<svg xmlns="http://www.w3.org/2000/svg" width="266" height="47" viewBox="0 0 70.379 12.435"><g stroke-width="13.639"><path d="M11.293 11.93a.01.01 0 01.01-.01.01.01 0 010 .02.01.01 0 01-.01-.01zm.142-.003a.018.018 0 01.026 0c.007.007.001.012-.013.012-.014 0-.02-.005-.013-.012zm-.22-.017a.01.01 0 01.01-.01.01.01 0 010 .02.01.01 0 01-.01-.01zm.31 0a.01.01 0 01.01-.01.01.01 0 010 .02.01.01 0 01-.01-.01zm.059-.02a.01.01 0 01.01-.009.01.01 0 010 .02.01.01 0 01-.01-.01zm-.485-.038a.01.01 0 01.01-.01.01.01 0 010 .02.01.01 0 01-.01-.01zm.601-.02a.01.01 0 01.01-.009.01.01 0 010 .02.01.01 0 01-.01-.01zm.039-.019a.01.01 0 01.01-.01.01.01 0 010 .02.01.01 0 01-.01-.01zm-.775-.097a.01.01 0 01.01-.01.01.01 0 010 .02.01.01 0 01-.01-.01zm-.059-.097a.01.01 0 01.01-.01.01.01 0 010 .02.01.01 0 01-.01-.01zm1.115-.087c.007-.01.016-.02.022-.02.005 0 .004.01-.003.02-.006.01-.016.02-.021.02-.006 0-.005-.01.002-.02zm.058-.058c.007-.011.017-.02.022-.02.005 0 .004.009-.002.02-.007.01-.017.019-.022.019-.005 0-.004-.009.002-.02zm-1.23-.03a.01.01 0 01.009-.01.01.01 0 010 .02.01.01 0 01-.01-.01zm-.04-.135a.01.01 0 01.01-.01.01.01 0 010 .02.01.01 0 01-.01-.01zm1.474-.059a.23.23 0 01.055-.048c.005 0-.01.022-.036.048a.23.23 0 01-.055.049c-.005 0 .01-.022.036-.049zm-1.493 0a.01.01 0 01.01-.01.01.01 0 010 .02.01.01 0 01-.01-.01zm-.02-.058a.01.01 0 01.01-.01.01.01 0 010 .02.01.01 0 01-.01-.01zm-.019-.078a.01.01 0 01.01-.01.01.01 0 010 .02.01.01 0 01-.01-.01zm-.02-.077a.01.01 0 01.01-.01.01.01 0 010 .02.01.01 0 01-.01-.01zm-.018-.058a.01.01 0 01.01-.01.01.01 0 010 .02.01.01 0 01-.01-.01zm1.831-.01c.007-.01.017-.02.022-.02.005 0 .004.01-.002.02-.007.01-.017.02-.022.02-.005 0-.004-.01.002-.02zm-1.89-.185a.01.01 0 01.01-.01.01.01 0 010 .02.01.01 0 01-.01-.01zm2.142-.087a.153.153 0 01.045-.039c.006 0-.006.018-.025.04a.153.153 0 01-.045.038c-.005 0 .006-.018.025-.039zm-2.18-.048a.01.01 0 01.01-.01.01.01 0 010 .02.01.01 0 01-.01-.01zm-.02-.078a.01.01 0 01.01-.01.01.01 0 010 .02.01.01 0 01-.01-.01zm-.02-.058a.01.01 0 01.01-.01.01.01 0 010 .02.01.01 0 01-.01-.01zm-.019-.059a.01.01 0 01.01-.01.01.01 0 010 .02.01.01 0 01-.01-.01zm2.491-.029c.007-.01.017-.02.022-.02.005 0 .004.01-.002.02-.007.011-.017.02-.022.02-.005 0-.004-.009.002-.02zm-2.53-.106a.01.01 0 01.01-.01.01.01 0 010 .02.01.01 0 01-.01-.01zm-.019-.078a.01.01 0 01.01-.01.01.01 0 010 .02.01.01 0 01-.01-.01zm-.02-.058a.01.01 0 01.01-.01.01.01 0 010 .02.01.01 0 01-.01-.01zm2.831-.04a.23.23 0 01.055-.048c.006 0-.01.022-.035.049a.23.23 0 01-.056.048c-.005 0 .011-.022.036-.048zm-2.888-.154a.01.01 0 01.01-.01.01.01 0 010 .02.01.01 0 01-.01-.01zm3.12-.098a.23.23 0 01.056-.048c.005 0-.01.022-.036.048a.23.23 0 01-.055.049c-.005 0 .01-.022.036-.049zm-3.14.02a.01.01 0 01.01-.01.01.01 0 010 .02.01.01 0 01-.01-.01zm-.038-.136a.01.01 0 01.01-.01.01.01 0 010 .02.01.01 0 01-.01-.01zm-.02-.058a.01.01 0 01.01-.01.01.01 0 010 .02.01.01 0 01-.01-.01zm-.02-.059a.01.01 0 01.01-.01.01.01 0 010 .02.01.01 0 01-.01-.01zm3.48-.048c.007-.01.017-.02.022-.02.005 0 .004.01-.002.02-.007.01-.016.02-.022.02-.005 0-.004-.01.002-.02zm-3.499-.03a.01.01 0 01.01-.009.01.01 0 010 .02.01.01 0 01-.01-.01zm-.038-.135a.01.01 0 01.01-.01.01.01 0 010 .02.01.01 0 01-.01-.01zm3.78-.095c0-.004.015-.02.034-.034.03-.024.031-.023.007.008-.025.032-.041.042-.041.026zm-3.838-.1a.01.01 0 01.01-.009.01.01 0 010 .02.01.01 0 01-.01-.01zm3.973-.057a.01.01 0 01.01-.01.01.01 0 010 .02.01.01 0 01-.01-.01zm-3.991-.06c0-.023.005-.027.011-.012.006.014.005.03-.001.037-.007.007-.011-.005-.01-.025zm4.088-.057a.23.23 0 01.056-.048c.005 0-.011.021-.036.048a.23.23 0 01-.055.049c-.006 0 .01-.022.035-.049zm-4.11-.02a.01.01 0 01.01-.009.01.01 0 010 .02.01.01 0 01-.01-.01zm-.019-.058a.01.01 0 01.01-.01.01.01 0 010 .02.01.01 0 01-.01-.01zm-.019-.058a.01.01 0 01.01-.01.01.01 0 010 .02.01.01 0 01-.01-.01zm4.323-.039a.01.01 0 01.01-.01.01.01 0 010 .02.01.01 0 01-.01-.01zm-4.342-.038a.01.01 0 01.01-.01.01.01 0 010 .02.01.01 0 01-.01-.01zm4.449-.068a.153.153 0 01.044-.04c.006 0-.006.018-.025.04a.153.153 0 01-.045.038c-.005 0 .006-.017.026-.038zm-4.469.01a.01.01 0 01.01-.01.01.01 0 010 .019.01.01 0 01-.01-.01zm-.02-.078a.01.01 0 01.01-.01.01.01 0 010 .02.01.01 0 01-.01-.01zm4.615-.078a.01.01 0 01.01-.01.01.01 0 010 .02.01.01 0 01-.01-.01zm-4.653-.058a.01.01 0 01.01-.01.01.01 0 010 .02.01.01 0 01-.01-.01zm4.691.003c0-.003.029-.031.063-.063l.063-.057-.057.063c-.053.06-.069.072-.069.057zm-4.71-.061a.01.01 0 01.01-.01.01.01 0 010 .02.01.01 0 01-.01-.01zm-.02-.059a.01.01 0 01.01-.01.01.01 0 010 .02.01.01 0 01-.01-.01zm-.02-.077a.01.01 0 01.01-.01.01.01 0 010 .02.01.01 0 01-.01-.01zm-.019-.078a.01.01 0 01.01-.01.01.01 0 010 .02.01.01 0 01-.01-.01zm5.06-.017c0-.004.015-.02.034-.034.03-.024.031-.023.007.007-.025.033-.04.043-.04.027zm-5.079-.041a.01.01 0 01.01-.01.01.01 0 010 .02.01.01 0 01-.01-.01zm-.02-.058a.01.01 0 01.01-.01.01.01 0 010 .02.01.01 0 01-.01-.01zm-.019-.059a.01.01 0 01.01-.01.01.01 0 010 .02.01.01 0 01-.01-.01zm5.254 0a.01.01 0 01.01-.01.01.01 0 010 .02.01.01 0 01-.01-.01zm-5.273-.077a.01.01 0 01.01-.01.01.01 0 010 .02.01.01 0 01-.01-.01zm5.39-.059a.23.23 0 01.054-.048c.006 0-.01.022-.036.048a.23.23 0 01-.055.049c-.005 0 .011-.022.036-.049zm-5.41 0a.01.01 0 01.01-.01.01.01 0 010 .02.01.01 0 01-.01-.01zm-.019-.077a.01.01 0 01.01-.01.01.01 0 010 .02.01.01 0 01-.01-.01zm-.02-.058a.01.01 0 01.01-.01.01.01 0 010 .02.01.01 0 01-.01-.01zM9.8 7.814a.01.01 0 01.01-.01.01.01 0 010 .02.01.01 0 01-.01-.01zm5.7-.036c0-.004.015-.02.034-.034.03-.024.031-.024.007.007-.025.033-.041.043-.041.027zM9.78 7.737a.01.01 0 01.01-.01.01.01 0 010 .02.01.01 0 01-.01-.01zm-.02-.059a.01.01 0 01.01-.01.01.01 0 010 .02.01.01 0 01-.01-.01zm-.019-.077a.01.01 0 01.01-.01.01.01 0 010 .02.01.01 0 01-.01-.01zm6-.088c.007-.01.016-.019.022-.019.005 0 .004.009-.003.02-.006.01-.016.019-.021.019-.006 0-.005-.009.002-.02zm-6.039-.048a.01.01 0 01.01-.01.01.01 0 010 .02.01.01 0 01-.01-.01zm6.107-.039a.01.01 0 01.01-.01.01.01 0 010 .02.01.01 0 01-.01-.01zm-6.126-.02a.01.01 0 01.01-.01.01.01 0 010 .02.01.01 0 01-.01-.01zm-.02-.058a.01.01 0 01.01-.01.01.01 0 010 .02.01.01 0 01-.01-.01zm-.019-.058a.01.01 0 01.01-.01.01.01 0 010 .02.01.01 0 01-.01-.01zm-.02-.077a.01.01 0 01.01-.01.01.01 0 010 .02.01.01 0 01-.01-.01zm-.018-.078a.01.01 0 01.01-.01.01.01 0 010 .02.01.01 0 01-.01-.01zm-.02-.058a.01.01 0 01.01-.01.01.01 0 010 .02.01.01 0 01-.01-.01zm6.6-.049c.007-.01.017-.02.023-.02.005 0 .004.01-.003.02-.006.01-.016.02-.021.02-.006 0-.005-.01.002-.02zm-6.62-.01a.01.01 0 01.01-.01.01.01 0 010 .02.01.01 0 01-.01-.01zm-.019-.058a.01.01 0 01.01-.01.01.01 0 010 .02.01.01 0 01-.01-.01zm-.019-.078a.01.01 0 01.01-.01.01.01 0 010 .02.01.01 0 01-.01-.01zm-.02-.058a.01.01 0 01.01-.01.01.01 0 010 .02.01.01 0 01-.01-.01zm6.892-.029c.007-.01.016-.02.022-.02.005 0 .004.01-.002.02-.007.01-.017.02-.022.02-.006 0-.004-.01.002-.02zm-6.91-.048a.01.01 0 01.009-.01.01.01 0 010 .02.01.01 0 01-.01-.01zm-.02-.059a.01.01 0 01.01-.01.01.01 0 010 .02.01.01 0 01-.01-.01zm-.02-.058a.01.01 0 01.01-.01.01.01 0 010 .02.01.01 0 01-.01-.01zm7.144-.048c.007-.011.016-.02.022-.02.005 0 .004.009-.003.02-.006.01-.016.019-.021.019-.006 0-.005-.009.002-.02zm-7.163-.01a.01.01 0 01.01-.01.01.01 0 010 .02.01.01 0 01-.01-.01zm-.02-.078a.01.01 0 01.01-.01.01.01 0 010 .02.01.01 0 01-.01-.01zm7.25 0a.01.01 0 01.01-.01.01.01 0 010 .02.01.01 0 01-.01-.01zm-7.269-.058a.01.01 0 01.01-.01.01.01 0 010 .02.01.01 0 01-.01-.01zm7.328-.02a.01.01 0 01.01-.01.01.01 0 010 .02.01.01 0 01-.01-.01zm-7.347-.058a.01.01 0 01.01-.01.01.01 0 010 .02.01.01 0 01-.01-.01zm7.386 0a.01.01 0 01.01-.01.01.01 0 010 .02.01.01 0 01-.01-.01zm.02-.038a.01.01 0 01.009-.01.01.01 0 010 .02.01.01 0 01-.01-.01zM9.354 6.3a.01.01 0 01.01-.01.01.01 0 010 .02.01.01 0 01-.01-.01zm-.02-.068c0-.014.006-.02.013-.013a.018.018 0 010 .026c-.007.007-.013.001-.013-.013zm-.02-.068a.01.01 0 01.01-.01.01.01 0 010 .02.01.01 0 01-.01-.01zm7.58-.058a.01.01 0 01.01-.01.01.01 0 010 .02.01.01 0 01-.01-.01zm-7.597-.06c0-.022.005-.027.012-.012.005.014.005.031-.002.038-.006.006-.01-.005-.01-.026zm7.617.002a.01.01 0 01.01-.01.01.01 0 010 .02.01.01 0 01-.01-.01zm.02-.058a.01.01 0 01.009-.01.01.01 0 010 .02.01.01 0 01-.01-.01zm.02-.1c.001-.022.006-.026.012-.01.005.013.005.03-.002.036-.006.007-.01-.005-.01-.025zm-.001-.066c0-.014.005-.02.013-.012a.018.018 0 010 .025c-.008.008-.013.002-.013-.013zm-7.658-.019c0-.014.006-.02.013-.013a.018.018 0 010 .026c-.007.007-.013.001-.013-.013zm.02-.087a.01.01 0 01.01-.01.01.01 0 010 .02.01.01 0 01-.01-.01zm7.618-.02a.01.01 0 01.01-.01.01.01 0 010 .02.01.01 0 01-.01-.01zm-7.56-.097a.01.01 0 01.01-.01.01.01 0 010 .02.01.01 0 01-.01-.01zm7.521-.039a.01.01 0 01.01-.01.01.01 0 010 .02.01.01 0 01-.01-.01zm-7.463-.038a.01.01 0 01.01-.01.01.01 0 010 .02.01.01 0 01-.01-.01zm.058-.04a.01.01 0 01.01-.009.01.01 0 010 .02.01.01 0 01-.01-.01zm7.367-.019a.01.01 0 01.01-.01.01.01 0 010 .02.01.01 0 01-.01-.01zm-7.309-.019a.01.01 0 01.01-.01.01.01 0 010 .02.01.01 0 01-.01-.01zm.04-.02a.01.01 0 01.009-.01.01.01 0 010 .02.01.01 0 01-.01-.01zm.096-.038a.01.01 0 01.01-.01.01.01 0 010 .02.01.01 0 01-.01-.01zm7.134 0a.01.01 0 01.01-.01.01.01 0 010 .02.01.01 0 01-.01-.01zm-7.076-.02a.01.01 0 01.01-.01.01.01 0 010 .02.01.01 0 01-.01-.01zm.058-.02a.01.01 0 01.01-.009.01.01 0 010 .02.01.01 0 01-.01-.01zm.04-.019a.01.01 0 01.009-.01.01.01 0 010 .02.01.01 0 01-.01-.01zm6.94 0a.01.01 0 01.009-.01.01.01 0 010 .02.01.01 0 01-.01-.01zM9.896 5.31a.01.01 0 01.01-.01.01.01 0 010 .02.01.01 0 01-.01-.01zm.097-.039a.01.01 0 01.01-.01.01.01 0 010 .02.01.01 0 01-.01-.01zm.117-.039a.01.01 0 01.01-.01.01.01 0 010 .02.01.01 0 01-.01-.01zm.097-.038a.01.01 0 01.01-.01.01.01 0 010 .02.01.01 0 01-.01-.01zm.096-.04a.01.01 0 01.01-.009.01.01 0 010 .02.01.01 0 01-.01-.01zm6.308-.012c-.008-.014-.005-.017.009-.009.012.008.022.018.022.023 0 .016-.017.008-.03-.014zm-6.25-.007a.01.01 0 01.01-.01.01.01 0 010 .02.01.01 0 01-.01-.01zm6.182-.063c-.024-.03-.023-.031.007-.007.033.025.043.041.027.041-.004 0-.02-.015-.034-.034zm-6.007-.014a.01.01 0 01.01-.01.01.01 0 010 .02.01.01 0 01-.01-.01zm.039-.02a.01.01 0 01.01-.01.01.01 0 010 .02.01.01 0 01-.01-.01zm.058-.02a.01.01 0 01.01-.009.01.01 0 010 .02.01.01 0 01-.01-.01zm.136-.077a.01.01 0 01.01-.01.01.01 0 010 .02.01.01 0 01-.01-.01zm.116-.058a.01.01 0 01.01-.01.01.01 0 010 .02.01.01 0 01-.01-.01zm.039-.02a.01.01 0 01.01-.01.01.01 0 010 .02.01.01 0 01-.01-.01zm.039-.019a.01.01 0 01.01-.01.01.01 0 010 .02.01.01 0 01-.01-.01zm.038-.02a.01.01 0 01.01-.009.01.01 0 010 .02.01.01 0 01-.01-.01zm.097-.057a.01.01 0 01.01-.01.01.01 0 010 .02.01.01 0 01-.01-.01zm.058-.04a.01.01 0 01.01-.009.01.01 0 010 .02.01.01 0 01-.01-.01zm5.029-.033l-.037-.044.044.037c.024.02.043.04.043.044 0 .015-.015.004-.05-.037zm-4.932-.025a.01.01 0 01.01-.01.01.01 0 010 .02.01.01 0 01-.01-.01zm.058-.038a.01.01 0 01.01-.01.01.01 0 010 .02.01.01 0 01-.01-.01zm.059-.04a.01.01 0 01.01-.009.01.01 0 010 .02.01.01 0 01-.01-.01zm-3.044-.05c-.332-.066-.714-.194-1.229-.413a2.71 2.71 0 01-.232-.106 9.818 9.818 0 00-.448-.207 35.286 35.286 0 01-.67-.305 8.416 8.416 0 00-.377-.17c-.32-.128-1.22-.568-1.286-.628-.103-.095-.128-.228-.063-.335.064-.105.15-.142.461-.194.502-.085.78-.173 1.217-.385.499-.241.875-.532 1.551-1.197.497-.488.553-.527.806-.558.228-.027.374 0 .939.177a134.709 134.709 0 001.464.45c.08.026.35.109.6.185 1.14.348 1.303.407 1.389.499a.522.522 0 01.124.278c0 .066-.087.289-.177.456-.096.18-.37.589-.476.71-.051.06-.15.176-.217.258a5.345 5.345 0 01-.715.694c-.347.263-.773.476-1.3.65-.438.146-.516.162-.857.172a1.795 1.795 0 01-.504-.03zm.896-.037a.363.363 0 00.121-.037c.005-.009-.024-.068-.065-.132-.109-.168-.114-.196-.05-.247l.055-.043-.076-.052c-.068-.046-.144-.068-.144-.041 0 .006.019.036.042.068.055.074.03.104-.073.085-.1-.019-.163-.085-.163-.173 0-.094-.058-.117-.192-.077-.163.049-.27.173-.234.271.03.082.094.115.244.127.172.014.24.056.27.164.023.08.077.131.124.118.017-.005.08-.018.141-.03zm-1.083-.07a5.208 5.208 0 00-.014-.087c-.01-.054-.004-.081.028-.122.038-.048.05-.051.13-.04.119.019.096-.006-.089-.096-.167-.082-.231-.084-.209-.007.007.024.018.09.025.147l.012.104-.088-.013c-.07-.01-.09-.007-.1.018-.012.035-.01.036.158.09.112.036.152.037.147.006zm-.425-.158c.007-.029.02-.15.03-.267.01-.117.024-.24.03-.272.01-.046-.001-.078-.053-.155a1.132 1.132 0 01-.1-.184c-.05-.126-.085-.175-.129-.175-.074 0-.033.15.095.349.097.149.136.263.103.296-.017.017-.036.013-.076-.017l-.054-.04-.115.104c-.162.148-.245.133-.274-.05l-.014-.085.076.015c.041.009.106.017.143.018.056.002.07-.006.085-.05.015-.043.006-.08-.052-.208a4.789 4.789 0 01-.113-.268c-.054-.146-.062-.155-.158-.172a.685.685 0 01-.18-.069c-.102-.058-.19-.072-.213-.034-.02.033-.163.089-.262.103a.566.566 0 00-.193.08c-.113.072-.156.079-.313.045-.221-.047-.384-.173-.384-.297 0-.054.026-.09.173-.241.21-.215.22-.218.437-.08.172.108.226.117.322.052.099-.066.112-.128.06-.272a.897.897 0 01-.042-.145c0-.036.12-.011.241.05.117.058.22.052.436-.023.153-.054.287-.064.386-.03.077.027.12-.001.12-.08 0-.092.097-.157.173-.116.042.023.042.024-.032.134a.256.256 0 00-.045.1c0 .054.09.113.24.158.076.022.183.066.237.096.055.03.11.056.122.056.012 0 .055-.03.096-.068a.301.301 0 01.1-.068c.013 0 .05.022.082.05.076.063.1.053.108-.045.008-.11.046-.118.18-.035a.6.6 0 00.134.069c.05 0 .002-.048-.117-.118-.197-.115-.251-.167-.251-.24 0-.08.062-.14.164-.157.21-.034.272-.087.15-.128-.098-.032-.33-.03-.401.004-.046.022-.064.05-.092.149-.033.112-.043.125-.127.168a.632.632 0 00-.147.107c-.049.054-.066.06-.168.06a.613.613 0 01-.163-.02c-.067-.025-.067-.092-.001-.108.058-.015.087-.062.087-.14 0-.072-.049-.116-.148-.131a.335.335 0 01-.132-.055c-.045-.036-.053-.057-.053-.137 0-.079.01-.104.057-.151.046-.047.08-.06.19-.074a5.8 5.8 0 00.753-.173c.152-.053.203-.05.36.018a.615.615 0 00.22.058c.077 0 .093.008.151.079.036.043.161.176.279.296.27.275.345.384.332.484-.009.072-.008.073.058.073.05 0 .081-.015.124-.062.055-.06.057-.06.096-.026.021.02.039.06.039.089 0 .061.028.077.142.077a.49.49 0 01.166.04c.047.02.101.033.12.027.022-.007.045.005.064.033.043.06.199.118.245.09.043-.028.124.022.335.206.08.07.15.12.156.114.007-.006.007-.045 0-.087-.015-.093.024-.143.134-.172.068-.019.082-.016.12.02l.044.041.053-.062c.18-.216.506-.783.555-.97.047-.178-.042-.355-.221-.436-.12-.054-.873-.292-2.146-.679C9.438.396 9.131.302 8.821.203c-.409-.13-.58-.158-.772-.127-.237.039-.322.093-.614.39-.739.752-1.168 1.092-1.715 1.36a3.816 3.816 0 01-1.221.388c-.306.05-.343.064-.417.148-.07.08-.077.18-.02.275.04.063.245.172 1.076.566l.213.102.1-.031c.115-.037.225-.04.285-.01a.83.83 0 01.121.096c.077.07.205.116.325.116.071 0 .343.076.459.128.237.107.32.203.297.345-.011.067-.008.072.064.102.154.067.676.277.688.278.007 0 .018-.023.025-.053zm3.15-1.922a.402.402 0 01-.095-.123c0-.024.217-.126.345-.163.075-.021.323.045.424.113.104.07.136.124.062.103-.198-.056-.272-.07-.368-.07-.125 0-.143.014-.179.138-.034.118-.073.118-.189.002zm-.3.034c-.007-.012-.004-.031.007-.043.026-.026.087-.003.077.029-.011.032-.066.042-.083.014zm-3.789-.233a1.143 1.143 0 00-.17-.058c-.013 0-.024-.013-.024-.029 0-.02.02-.029.068-.029.062 0 .068-.005.068-.054 0-.052.05-.092.16-.128.042-.013.043-.069.005-.16-.025-.06-.025-.075 0-.124.054-.105.214-.19.19-.1a.065.065 0 00.022.06c.041.034.038.078-.009.128l-.039.042.049.13c.056.15.064.304.018.35-.046.047-.175.036-.338-.028zm-.368-.335c-.027-.014-.048-.042-.048-.062 0-.024.017-.042.048-.05.038-.008.048-.023.048-.066 0-.045.011-.06.056-.071.1-.027.245.025.245.088a.372.372 0 01-.08.103c-.064.068-.09.083-.15.083a.32.32 0 01-.119-.025zm3.45.433c-.11-.124-.174-.167-.174-.118 0 .01.018.067.04.125.035.095.046.108.102.114.162.02.16.024.031-.121zm1.57 2.3a.01.01 0 01.01-.01.01.01 0 010 .02.01.01 0 01-.01-.01zm.078-.058a.01.01 0 01.01-.01.01.01 0 010 .02.01.01 0 01-.01-.01zm.068-.049c.007-.01.017-.02.022-.02.005 0 .004.01-.002.02-.007.01-.017.02-.022.02-.005 0-.004-.01.002-.02zm.097-.077c.007-.011.016-.02.022-.02.005 0 .004.009-.003.02-.006.01-.016.019-.021.019-.006 0-.004-.009.002-.02zm4.185-.025l-.036-.043.043.037c.041.034.053.05.037.05a.215.215 0 01-.044-.044zm-4.05-.092c.007-.01.017-.02.022-.02.006 0 .005.01-.002.02-.006.01-.016.02-.021.02-.006 0-.005-.01.002-.02zm.185-.184a.01.01 0 01.01-.01.01.01 0 010 .02.01.01 0 01-.01-.01zm3.506-.102c-.024-.031-.023-.032.008-.008.032.026.042.042.026.042-.004 0-.02-.016-.034-.034zm-3.293-.131a.01.01 0 01.01-.01.01.01 0 010 .02.01.01 0 01-.01-.01zm3.003-.18l-.047-.053.054.047c.03.026.053.05.053.053 0 .015-.016.003-.06-.047zm-2.857.015c.006-.011.016-.02.021-.02.006 0 .005.009-.002.02-.007.01-.016.02-.022.02-.005 0-.004-.01.003-.02zm.097-.117c.006-.01.016-.02.021-.02.006 0 .004.01-.002.02-.007.01-.016.02-.022.02-.005 0-.004-.01.003-.02zm.087-.104c0-.004.015-.02.034-.034.03-.024.031-.024.007.007-.025.033-.041.043-.041.027zm.087-.09c.007-.01.016-.02.022-.02.005 0 .004.01-.003.02-.006.01-.016.02-.021.02-.006 0-.005-.01.002-.02zm2.276-.034l-.047-.053.054.047c.05.044.062.06.047.06a.336.336 0 01-.054-.054zm-2.208-.053a.01.01 0 01.01-.01.01.01 0 010 .02.01.01 0 01-.01-.01zm.097-.156a.01.01 0 01.01-.01.01.01 0 010 .02.01.01 0 01-.01-.01zm1.839-.082c-.024-.03-.024-.032.007-.007.019.014.034.03.034.034 0 .016-.016.005-.041-.027zm-1.781.005a.01.01 0 01.01-.01.01.01 0 010 .02.01.01 0 01-.01-.01zm.058-.078a.01.01 0 01.01-.01.01.01 0 010 .02.01.01 0 01-.01-.01zm.058-.078a.01.01 0 01.01-.01.01.01 0 010 .02.01.01 0 01-.01-.01zm1.384-.15l-.037-.044.044.037c.024.02.044.04.044.044 0 .016-.016.004-.05-.037zm-1.267-.005a.01.01 0 01.01-.01.01.01 0 010 .02.01.01 0 01-.01-.01zm.058-.077a.01.01 0 01.01-.01.01.01 0 010 .02.01.01 0 01-.01-.01zm.077-.098a.01.01 0 01.01-.01.01.01 0 010 .02.01.01 0 01-.01-.01zm.087-.106a.153.153 0 01.045-.04c.006 0-.006.018-.025.04a.153.153 0 01-.045.039c-.005 0 .006-.018.025-.04zm.755-.025l-.057-.063.063.057c.035.032.063.06.063.063 0 .015-.016.002-.069-.057zm-.648-.082a.01.01 0 01.01-.01.01.01 0 010 .02.01.01 0 01-.01-.01zm.427-.058a.01.01 0 01.01-.01.01.01 0 010 .02.01.01 0 01-.01-.01zm-.31-.02a.01.01 0 01.01-.01.01.01 0 010 .02.01.01 0 01-.01-.01zm.232 0a.01.01 0 01.01-.01.01.01 0 010 .02.01.01 0 01-.01-.01z" fill="#a6d7e3"/><path d="M9.248 12.454c-.164-.044-.96-.397-2.782-1.232l-1.415-.646a3.27 3.27 0 01-.29-.143 20.373 20.373 0 00-1.074-.493c-.01 0-.268-.115-.573-.255-.928-.427-2.072-.948-2.318-1.055-.492-.214-.606-.295-.708-.503a.86.86 0 01-.054-.623c.01-.043.077-.174.147-.291a152.28 152.28 0 011.61-2.544c.352-.549.706-1.063.788-1.146a.865.865 0 01.19-.143c.083-.04.115-.044.272-.036.155.008.204.02.37.09.106.045.202.089.214.098.02.016.412.195 1.213.554l.63.283c.245.11 1.123.498 1.396.617.074.032.287.12.472.196.397.161.485.214.65.392.205.223.272.38.398.942.121.537.33 1.338.495 1.9.038.128.13.451.206.718.347 1.23.475 1.675.573 1.99.188.604.216.789.151 1.007a.466.466 0 01-.561.323zm.306-.06c.165-.084.246-.243.246-.482 0-.145-.05-.373-.171-.768-.113-.37-.202-.673-.236-.796-.018-.07-.073-.262-.121-.427a50.86 50.86 0 01-.16-.563 43.048 43.048 0 00-.287-1.01c-.131-.442-.216-.76-.323-1.21l-.083-.347-.07.013c-.25.044-.343.051-.614.046-.37-.008-.367-.006-.35-.23a1.058 1.058 0 00-.027-.33 2.042 2.042 0 01-.039-.342c0-.283-.055-.457-.218-.7-.11-.164-.14-.173-.125-.04.007.056.021.312.032.568.027.606.039.672.158.904.084.162.097.2.091.281l-.006.094.133.056c.118.05.158.056.345.058.186.001.215.006.232.037.036.069-.02.187-.153.319a1.586 1.586 0 01-.651.346 1.242 1.242 0 00-.224.079c-.116.058-.478.365-.513.434a3.84 3.84 0 00-.109.382c-.085.343-.141.486-.23.579-.064.069-.267.183-.386.219-.194.057-.197.06-.285.25-.09.194-.115.217-.325.3-.15.06-.33.261-.275.308.01.009.24.117.512.24l1.416.647c1.666.763 2.4 1.087 2.549 1.123a.51.51 0 00.267-.038zm-3.507-1.93c-.091-.036-.131-.163-.082-.258.012-.024.064-.092.115-.152.052-.06.121-.167.155-.237.067-.14.081-.152.337-.284a5.68 5.68 0 00.22-.119c.11-.067.128.136.032.348-.103.227-.39.588-.54.682a.28.28 0 01-.237.02zM3.685 9.83a2.297 2.297 0 01.011-.335c.022-.272.021-.298-.02-.492-.059-.28-.05-.314.127-.504.11-.117.163-.195.232-.34.125-.263.14-.345.1-.58-.059-.343-.06-.372-.012-.59.066-.303.062-.337-.045-.434a.838.838 0 01-.142-.173.352.352 0 00-.104-.12c-.055-.027-.261-.07-.524-.109-.278-.04-.533-.193-.625-.373-.067-.131-.25-.778-.248-.875.001-.066.047-.177.13-.318a.947.947 0 00.1-.234c.033-.163.054-.183.591-.582a.493.493 0 01.144-.066c.082-.02.178-.099.178-.145 0-.013-.094-.06-.209-.105-.258-.1-.44-.114-.587-.042-.18.088-.305.255-1.027 1.373C.76 6.326.123 7.35.077 7.48a.92.92 0 00-.027.431c.069.335.197.45.775.695.112.047.522.232.911.41a512.942 512.942 0 001.375.63c.304.138.56.247.569.241.01-.006.012-.032.005-.058zm2.097-.783c.064-.157.059-.268-.016-.361-.084-.107-.114-.17-.114-.245 0-.059-.015-.128-.08-.374l-.02-.077-.038.045c-.026.033-.037.076-.037.153 0 .092.017.14.119.342l.118.236-.012.135a2.991 2.991 0 01-.024.201c-.01.057-.007.064.025.058.023-.004.052-.046.08-.113zm.264-1.164c.09-.107.086-.186-.009-.161-.084.022-.17.195-.12.244.018.018.074-.018.129-.083zm6.468 3.115a.01.01 0 01.01-.01.01.01 0 010 .02.01.01 0 01-.01-.01zm-2.074-.951a.01.01 0 01.01-.01.01.01 0 010 .02.01.01 0 01-.01-.01zm-.058-.214a.01.01 0 01.01-.01.01.01 0 010 .02.01.01 0 01-.01-.01zm3.644-.466a.01.01 0 01.01-.01.01.01 0 010 .02.01.01 0 01-.01-.01zm2.54-2.756a.01.01 0 01.01-.01.01.01 0 010 .02.01.01 0 01-.01-.01zm.252-.35a.01.01 0 01.01-.01.01.01 0 010 .02.01.01 0 01-.01-.01zm.058-.116a.01.01 0 01.01-.01.01.01 0 010 .02.01.01 0 01-.01-.01zm.078-.291a.01.01 0 01.01-.01.01.01 0 010 .02.01.01 0 01-.01-.01zM15.81 4.3a.01.01 0 01.01-.01.01.01 0 010 .02.01.01 0 01-.01-.01zm-.388-.408a.01.01 0 01.01-.01.01.01 0 010 .02.01.01 0 01-.01-.01z" fill="#f8b673"/><path d="M9.015 4.517a.218.218 0 01-.057-.1c-.03-.108-.098-.15-.27-.164-.15-.012-.214-.045-.244-.127-.037-.098.07-.222.234-.27.134-.04.192-.018.192.076 0 .088.063.154.163.173.103.02.128-.01.073-.085a.316.316 0 01-.042-.068c0-.027.076-.005.144.041l.076.052-.054.043c-.065.051-.06.079.049.247.041.064.07.123.065.132a.363.363 0 01-.12.037 3.125 3.125 0 00-.142.031c-.016.005-.046-.004-.067-.018zm-1.022-.09c-.168-.053-.17-.054-.157-.089.01-.025.029-.029.1-.018l.087.013-.012-.104a1.236 1.236 0 00-.025-.147c-.022-.077.042-.075.21.007.184.09.207.115.088.097-.08-.012-.092-.009-.13.04-.032.04-.038.067-.028.121a5.2 5.2 0 01.014.087c.005.031-.035.03-.147-.006zm-.616-.221c-.498-.203-.452-.176-.44-.257.024-.142-.06-.238-.296-.345a1.96 1.96 0 00-.459-.128.507.507 0 01-.324-.116.83.83 0 00-.122-.095c-.06-.031-.17-.028-.286.009l-.099.03-.213-.1c-.83-.395-1.037-.504-1.075-.567-.058-.095-.051-.195.019-.275.074-.084.111-.098.417-.148.498-.083.775-.171 1.22-.389.548-.267.977-.607 1.716-1.359.293-.297.377-.351.614-.39.191-.03.363-.002.772.127.31.099.617.193 1.328.41 1.273.386 2.027.624 2.146.678.179.081.268.258.221.437-.049.186-.374.753-.555.969l-.053.062-.043-.04c-.04-.037-.053-.04-.12-.021-.111.03-.15.08-.135.172.007.042.007.08 0 .087-.006.007-.076-.044-.156-.114-.211-.184-.292-.234-.335-.207-.046.029-.202-.028-.245-.09-.02-.027-.042-.039-.064-.032-.019.006-.073-.006-.12-.028a.49.49 0 00-.166-.039c-.114 0-.142-.016-.142-.077 0-.03-.018-.07-.04-.089-.038-.035-.04-.034-.095.026-.043.047-.073.062-.124.062-.066 0-.067 0-.057-.073.012-.1-.063-.209-.333-.484a7.53 7.53 0 01-.279-.296c-.058-.07-.074-.079-.152-.079a.615.615 0 01-.219-.058c-.157-.069-.208-.071-.36-.018a5.8 5.8 0 01-.753.173c-.11.014-.144.027-.19.074-.047.047-.057.072-.057.151 0 .08.008.101.053.137a.335.335 0 00.132.055c.1.016.148.059.148.131 0 .078-.03.125-.087.14-.066.016-.066.083 0 .109.028.01.102.019.164.019.102 0 .119-.006.168-.06a.632.632 0 01.147-.107c.084-.043.094-.056.127-.168.028-.098.046-.127.092-.149.07-.034.303-.036.4-.004.123.04.061.094-.149.128-.102.017-.164.077-.164.157 0 .073.054.125.25.24.12.07.167.118.118.118a.6.6 0 01-.134-.069c-.134-.083-.172-.075-.18.035-.007.098-.032.108-.108.044-.032-.027-.07-.049-.083-.049a.301.301 0 00-.099.068.314.314 0 01-.096.068.543.543 0 01-.122-.056 1.405 1.405 0 00-.236-.096c-.151-.045-.24-.104-.24-.157 0-.02.02-.065.044-.1.074-.111.074-.112.032-.135-.076-.04-.174.024-.174.116 0 .079-.042.107-.119.08-.1-.034-.233-.024-.386.03-.217.075-.32.08-.436.022-.12-.06-.241-.085-.241-.05 0 .014.019.08.043.146.051.144.038.206-.061.272-.096.065-.15.056-.322-.053-.216-.136-.228-.134-.437.08-.147.151-.173.188-.173.242 0 .124.163.25.384.297.157.034.2.027.313-.045a.566.566 0 01.193-.08c.1-.014.241-.07.262-.103.023-.038.111-.024.213.034.054.03.135.062.18.07.096.016.104.025.158.171.023.062.074.183.113.268.058.128.067.165.052.208-.015.044-.029.052-.085.05a1.07 1.07 0 01-.143-.018l-.076-.015.014.085c.029.183.112.198.275.05l.114-.104.054.04c.04.03.059.034.076.017.033-.033-.006-.147-.103-.296-.128-.199-.169-.349-.095-.349.044 0 .08.049.129.175.019.048.063.13.1.184.052.077.063.109.053.155a3.81 3.81 0 00-.03.272c-.018.225-.035.321-.055.32a7.59 7.59 0 01-.313-.123zm3.677-1.854c.036-.124.054-.138.18-.138.095 0 .169.014.367.07.074.021.042-.032-.062-.103-.1-.068-.35-.134-.424-.113-.128.037-.345.14-.345.163 0 .044.187.22.226.212.02-.004.043-.038.058-.09zm-.405.022c.01-.032-.05-.055-.077-.029-.01.012-.014.03-.006.043.017.028.072.018.083-.014zm-3.535-.19c.046-.047.038-.201-.018-.352l-.049-.13.04-.041c.046-.05.049-.094.008-.128a.066.066 0 01-.021-.06c.023-.09-.137-.005-.191.1-.025.049-.025.064 0 .124.038.091.037.147-.005.16-.11.036-.16.076-.16.128 0 .049-.006.054-.068.054-.047 0-.068.009-.068.03 0 .015.011.028.025.028.013 0 .09.026.17.058.162.064.29.075.337.028zm-.436-.422a.371.371 0 00.079-.103c0-.063-.144-.115-.245-.088-.045.012-.056.026-.056.07 0 .044-.01.059-.048.068-.03.007-.048.025-.048.049 0 .047.075.086.168.087.058 0 .085-.015.15-.083zm3.148.613c-.056-.007-.067-.02-.102-.115a.84.84 0 01-.04-.125c0-.049.064-.006.173.118.13.145.13.142-.031.122z" fill="#72bcd5"/><path d="M11.234 11.91a.542.542 0 01-.293-.255 2.681 2.681 0 01-.129-.366 167.5 167.5 0 00-.324-1.119c-.057-.199-.14-.483-.184-.63a4.81 4.81 0 01-.096-.357 6.648 6.648 0 00-.115-.427l-.217-.738c-.18-.614-.247-.838-.348-1.174-.17-.57-.21-.718-.223-.836-.026-.24.06-.442.228-.54.046-.026.24-.106.432-.178.634-.236.966-.398 1.382-.676.317-.212.558-.426.834-.74.121-.14.283-.323.358-.408.075-.085.167-.203.205-.262.086-.136.416-.576.545-.728.054-.063.135-.14.18-.171.075-.051.094-.055.212-.047.247.017.215-.012 1.226 1.072l.436.466.785.83c.351.371.658.705.683.741.071.105.143.342.143.475 0 .309-.24.657-.968 1.41a4.75 4.75 0 00-.223.242c-.05.063-.286.316-.817.872a5.068 5.068 0 00-.265.295 2.824 2.824 0 01-.218.233 4.02 4.02 0 00-.261.28 7.73 7.73 0 01-.275.311l-1.533 1.652c-.37.398-.63.663-.683.694a.964.964 0 01-.35.107.688.688 0 01-.127-.028zm.389-.07c.133-.062.162-.091 1.046-1.045l1.103-1.19c.207-.223.368-.412.359-.42a.83.83 0 00-.153-.048 1.58 1.58 0 01-.252-.09.631.631 0 00-.273-.064c-.146-.009-.26-.045-.288-.09-.007-.01.03-.037.08-.06.089-.04.111-.041.452-.029.197.008.368.022.38.032.013.01.1.023.193.028l.17.01.094-.092a.44.44 0 00.093-.114c0-.011-.031-.032-.07-.046-.083-.03-.26-.194-.26-.242 0-.018.013-.038.027-.043.018-.007.032-.06.04-.15.008-.077.023-.18.035-.227.011-.048.026-.153.032-.233l.012-.146.13-.005c.114-.005.13-.002.141.033.007.021-.002.066-.02.1-.03.058-.03.063.013.107a.293.293 0 00.117.067c.088.024.103.044.074.097-.017.032-.012.063.023.151.06.151.066.155.132.091.082-.078.086-.11.03-.214-.074-.14-.066-.17.08-.322.12-.124.182-.163.182-.113 0 .043-.06.13-.11.163-.09.057-.162.132-.162.168 0 .07.112.063.173-.01.019-.023.032-.025.059-.008.029.018.054 0 .169-.122.303-.323.302-.321.287-.387-.018-.084.048-.155.144-.155.066 0 .089-.02.39-.35.485-.534.628-.768.626-1.028 0-.14-.07-.364-.145-.471a18.77 18.77 0 00-.568-.616 313.93 313.93 0 01-1.697-1.804c-.592-.634-.627-.661-.84-.661-.138 0-.19.025-.315.158-.166.176-.556.712-.556.765a.33.33 0 00.07.138c.085.108.088.131.018.115a1.8 1.8 0 00-.17-.024l-.118-.012-.176.211a4.592 4.592 0 01-.217.248c-.079.07-.055.09.114.09h.156l-.006.052c-.005.05.002.055.111.083.077.02.117.04.117.059 0 .044-.132.032-.3-.03-.16-.058-.338-.084-.357-.053-.007.011.025.042.07.07.284.167.409.389.359.637-.019.093-.017.122.01.184.017.041.034.092.038.114.005.036.02.038.221.038.188 0 .222.005.258.039.05.044.043.127-.014.19-.028.032-.048.035-.13.023a2.741 2.741 0 00-.262-.019 1.168 1.168 0 01-.207-.018c-.032-.011-.059.001-.116.054-.06.053-.083.064-.11.049-.08-.045-.166.05-.13.144.042.113.119.115.247.005a.352.352 0 01.1-.069c.013 0 .022.033.022.074 0 .143.072.197.297.22.169.016.222.043.395.199.144.13.188.231.176.407-.01.145-.048.242-.169.42-.082.122-.077.163.028.237.088.063.107.105.064.148-.055.055-.157.006-.174-.084a.06.06 0 00-.048-.045c-.088-.012-.137.154-.073.245.045.064.16.116.311.14.193.03.244.05.319.128.065.067.066.072.066.227 0 .088-.007.185-.016.215-.014.055-.017.056-.116.044-.26-.032-.415-.036-.429-.014-.026.042.007.112.097.212.098.11.169.139.33.14.055 0 .145.008.2.018.119.023.39.144.39.175 0 .045-.14.082-.28.075a.617.617 0 01-.282-.077 1.517 1.517 0 00-.243-.094c-.08-.02-.123-.048-.252-.173a.975.975 0 00-.297-.214l-.142-.065-.056.06c-.059.065-.082.065-.177 0a.786.786 0 00-.12-.065c-.088-.037-.39-.09-.43-.075-.062.024-.114.165-.127.347a5.16 5.16 0 01-.036.33c-.037.245-.008.349.144.512.136.147.185.231.185.322a.246.246 0 01-.027.118c-.035.047-.081.035-.41-.108a60.192 60.192 0 00-.377-.162.855.855 0 01-.283-.192.944.944 0 00-.157-.131c-.01 0-.026.037-.036.082-.017.077-.024.083-.087.088-.074.006-.116-.014-.122-.055-.006-.035-.027-.04-.107-.025-.035.006-.07.025-.075.04-.01.026.024.158.16.617l.164.563c.405 1.401.399 1.385.6 1.491a.33.33 0 00.224.049.683.683 0 00.223-.057zm.427-2.281c-.055-.06-.096-.12-.092-.131.004-.012.044-.021.09-.02.144.003.233.114.176.22-.033.062-.066.049-.174-.069zm3.446-2.066a.35.35 0 01-.113-.181c0-.068.064-.06.13.017.096.112.085.224-.017.164zm-1.187-.137c-.015-.13.008-.187.046-.116.027.05.019.22-.011.229-.013.004-.027-.038-.035-.113zm.37-.12c-.02-.073-.015-.09.045-.143.07-.062.071-.078.016-.136l-.042-.045h.054c.055 0 .136.071.242.212l.046.063-.048.048c-.046.045-.054.047-.132.026-.059-.016-.088-.016-.103-.001-.034.033-.066.024-.079-.023zm-.15-.137c-.11-.049-.15-.117-.081-.136.11-.031.152-.03.197.004l.046.036-.045.061c-.05.068-.047.067-.118.035zm-.344-.149c-.028-.032-.067-.058-.087-.058-.061 0-.103-.034-.169-.136-.056-.088-.06-.103-.034-.128.042-.043.115-.017.2.074l.075.078.12-.012c.12-.012.12-.012.16.051.05.08.03.101-.073.074-.1-.027-.127-.013-.089.045.058.088-.028.098-.103.012zm.373-.105c-.02-.015-.03-.034-.022-.042.008-.009.034.004.057.027.048.048.024.058-.035.015zm-1.15-.507c-.068-.077-.072-.132-.011-.14.041-.006.148.11.152.167.005.063-.076.047-.141-.027zm-.048-.955c-.062-.025-.082-.026-.115-.006-.063.04-.096-.021-.086-.164a.339.339 0 01.06-.192.297.297 0 00.051-.134c0-.033.014-.074.03-.092.027-.03.027-.041-.002-.113-.024-.062-.054-.093-.131-.136a1.165 1.165 0 00-.173-.08.257.257 0 01-.113-.08.33.33 0 00-.097-.086c-.086-.045-.07-.082.065-.146.158-.075.241-.09.28-.052.04.04.003.154-.066.205-.076.055-.042.087.074.071.132-.018.243.039.367.188.107.129.116.173.057.288a.361.361 0 00-.039.106c0 .017-.022.04-.049.05-.044.016-.048.026-.037.086.01.053.006.07-.018.08-.041.016-.04.04.007.1.04.05.051.112.025.128-.008.005-.049-.005-.09-.021z" fill="#da7a94"/><path d="M9.287 12.432c-.149-.036-.883-.36-2.55-1.123a813.87 813.87 0 00-1.415-.646 13.02 13.02 0 01-.512-.24c-.055-.048.125-.25.275-.31.21-.082.235-.105.325-.3.088-.19.091-.192.285-.25.12-.035.322-.15.387-.218.088-.093.144-.236.23-.58a3.84 3.84 0 01.108-.381c.035-.07.397-.376.513-.434.05-.026.15-.061.224-.079.223-.053.508-.204.651-.346.133-.132.19-.25.153-.319-.017-.031-.046-.036-.232-.037-.187-.002-.227-.009-.345-.058l-.133-.056.006-.094c.006-.08-.007-.12-.09-.281-.12-.232-.132-.298-.159-.904a16.548 16.548 0 00-.032-.568c-.014-.133.015-.124.125.04.163.243.218.417.218.7 0 .087.018.241.04.342.028.137.035.223.027.33-.018.224-.02.222.35.23.27.005.364-.002.613-.046l.07-.013.083.347c.107.45.192.768.323 1.21.108.365.159.542.287 1.01l.16.563c.048.165.103.357.121.427.034.123.123.426.236.796.12.395.171.623.171.768 0 .304-.145.497-.392.522a.484.484 0 01-.121-.002zm-3.003-1.988c.15-.094.437-.455.54-.682.063-.138.081-.285.042-.336-.026-.035-.034-.037-.074-.012a5.68 5.68 0 01-.22.119c-.256.132-.27.144-.337.284-.034.07-.103.177-.155.237-.112.13-.137.176-.137.25 0 .153.192.232.34.14zM3.11 9.647a399.386 399.386 0 00-1.375-.63c-.389-.178-.799-.363-.911-.41-.578-.245-.706-.36-.775-.695a.92.92 0 01.027-.431C.123 7.35.76 6.326 1.755 4.786c.722-1.118.847-1.285 1.027-1.373.147-.072.33-.059.587.042.115.045.209.092.209.105 0 .046-.096.124-.178.145a.493.493 0 00-.144.066c-.537.399-.558.419-.591.582a.947.947 0 01-.1.234c-.083.141-.129.252-.13.318-.002.097.181.744.248.875.092.18.347.333.625.373.263.038.47.082.524.11a.352.352 0 01.104.119c.029.051.092.13.142.173.107.097.11.131.045.434-.047.218-.047.247.011.59.04.235.026.317-.1.58a1.163 1.163 0 01-.23.34c-.178.19-.187.224-.127.504.04.194.041.22.02.492a2.297 2.297 0 00-.012.335c.007.026.004.052-.005.058-.01.006-.265-.103-.569-.241zm2.567-.545c.007-.035.017-.126.024-.2l.012-.136-.118-.236c-.102-.203-.119-.25-.119-.342 0-.077.011-.12.037-.153l.037-.045.02.077c.066.246.081.315.081.374 0 .074.03.138.114.245.048.06.06.093.06.165 0 .115-.074.3-.123.31-.032.005-.035-.002-.025-.059zm.238-1.136c-.028-.029-.009-.124.036-.177.078-.092.185-.096.156-.006-.026.084-.162.213-.192.183z" fill="#f37817"/><path d="M11.177 11.848c-.202-.106-.196-.09-.6-1.49l-.165-.564c-.136-.459-.17-.591-.16-.617.006-.015.04-.034.075-.04.08-.015.101-.01.107.025.006.041.048.06.122.055.063-.005.07-.011.087-.088.01-.045.026-.082.036-.082.01 0 .08.059.157.131a.855.855 0 00.283.192l.378.162c.328.143.374.155.409.108a.246.246 0 00.027-.118c0-.09-.049-.175-.185-.322-.152-.163-.181-.267-.144-.512.013-.086.03-.234.036-.33.013-.182.065-.323.127-.347.04-.015.342.038.43.075a.786.786 0 01.12.064c.095.066.118.066.177.002l.056-.06.142.064a.975.975 0 01.297.214c.13.125.172.154.252.173.054.013.163.055.243.094a.616.616 0 00.282.077c.14.007.28-.03.28-.075 0-.03-.271-.152-.39-.175a1.297 1.297 0 00-.2-.019c-.161 0-.232-.03-.33-.139-.09-.1-.122-.17-.097-.212.014-.022.168-.018.43.014.098.012.1.01.115-.044.009-.03.016-.127.016-.215 0-.155-.001-.16-.066-.227-.075-.077-.126-.098-.319-.128-.15-.024-.266-.076-.311-.14-.064-.091-.015-.257.073-.245a.06.06 0 01.048.045c.017.09.119.139.174.084.043-.043.024-.085-.064-.148-.105-.074-.11-.115-.028-.237.12-.178.16-.275.17-.42.01-.176-.033-.277-.177-.407-.173-.156-.226-.183-.395-.2-.225-.022-.297-.076-.297-.22 0-.04-.01-.073-.021-.073a.352.352 0 00-.101.069c-.128.11-.205.108-.248-.005-.035-.093.052-.189.132-.144.026.015.05.004.109-.05.057-.052.085-.064.116-.053.023.008.116.016.207.018.09.003.208.011.262.019.082.012.102.009.13-.023.057-.063.063-.146.014-.19-.036-.034-.07-.039-.258-.039-.2 0-.216-.002-.221-.038a.645.645 0 00-.038-.114c-.027-.062-.029-.09-.01-.184.05-.248-.075-.47-.359-.638-.045-.027-.077-.057-.07-.069.02-.03.197-.005.357.054.168.06.3.073.3.029 0-.02-.04-.04-.117-.06-.109-.027-.116-.032-.11-.082l.005-.053h-.156c-.169 0-.193-.019-.114-.089.022-.02.12-.132.217-.248l.176-.21.117.01a1.8 1.8 0 01.17.025c.071.016.068-.007-.016-.115a.33.33 0 01-.07-.138c0-.053.389-.589.555-.765.125-.133.177-.159.316-.158.212 0 .247.027.839.661.569.61.867.926 1.697 1.804.288.304.544.581.568.616.075.107.144.331.145.47.002.261-.14.495-.626 1.028-.301.33-.324.351-.39.351-.096 0-.162.07-.144.155.015.066.016.064-.287.387-.115.122-.14.14-.17.122-.026-.017-.04-.015-.058.008-.06.073-.173.08-.173.01 0-.036.072-.111.161-.168.052-.033.11-.12.11-.163 0-.05-.06-.011-.18.113-.147.153-.155.182-.08.322.055.105.051.136-.03.214-.067.064-.073.06-.133-.091-.035-.088-.04-.119-.023-.15.029-.054.014-.074-.074-.098a.293.293 0 01-.117-.067c-.042-.044-.043-.049-.012-.107.017-.034.026-.079.019-.1-.01-.035-.027-.038-.142-.033l-.129.005-.012.146c-.006.08-.02.185-.032.233-.012.048-.027.15-.034.227-.01.09-.023.143-.04.15-.015.005-.027.025-.027.043 0 .048.176.212.26.242.038.014.07.035.07.046a.44.44 0 01-.094.114l-.094.092-.17-.01a.704.704 0 01-.192-.028 2.363 2.363 0 00-.381-.032c-.34-.012-.363-.01-.451.029-.051.023-.088.05-.081.06.028.045.142.081.288.09.12.007.184.022.273.065.064.03.177.07.252.09a.83.83 0 01.153.047c.01.008-.152.197-.359.42l-1.103 1.19c-.4.431-.774.832-.833.89a.68.68 0 01-.436.212.33.33 0 01-.223-.049zm1.047-2.22c.057-.106-.032-.217-.177-.22-.045-.001-.085.008-.089.02-.01.028.183.24.218.24.015 0 .036-.018.048-.04zm3.353-2.17c0-.072-.115-.209-.161-.191-.044.016-.041.063.008.142.069.112.153.14.153.05zm-1.205-.086c.006-.098-.027-.186-.058-.154-.026.026.002.26.03.251.012-.004.024-.048.028-.097zm.385-.112c.015-.015.044-.015.103.001.078.021.086.02.132-.026l.048-.048-.046-.063c-.106-.14-.187-.212-.242-.212h-.054l.042.045c.055.058.054.074-.016.136-.06.054-.065.07-.046.144.013.047.045.056.079.023zm-.111-.196l.045-.06-.046-.037c-.045-.034-.087-.035-.197-.004-.069.02-.028.087.08.136.07.032.068.033.118-.035zm-.342-.068c.007-.007 0-.033-.016-.058-.038-.058-.01-.072.09-.045.102.027.122.006.072-.074-.04-.063-.04-.063-.16-.051l-.12.012-.075-.078c-.085-.09-.158-.117-.2-.074-.026.025-.022.04.034.128.066.102.108.136.17.136.019 0 .058.026.086.058.05.057.092.073.12.046zm.29-.166c-.024-.023-.05-.036-.058-.027-.008.008.002.027.022.042.059.043.083.033.035-.015zm-1.045-.465c-.004-.056-.11-.173-.152-.167-.061.008-.057.063.01.14.066.074.147.09.142.027zm-.085-1.005a.179.179 0 00-.039-.084c-.046-.06-.048-.084-.007-.1.024-.01.028-.027.018-.08-.01-.06-.007-.07.037-.086.027-.01.05-.033.05-.05 0-.016.017-.064.038-.106.059-.115.05-.16-.057-.288-.124-.15-.235-.206-.367-.188-.116.016-.15-.016-.074-.071.069-.05.106-.165.066-.205-.039-.038-.122-.023-.28.052-.135.064-.151.101-.065.146a.33.33 0 01.097.086.257.257 0 00.113.08c.04.013.118.049.173.08.077.043.107.074.131.136.029.072.03.083.002.113a.159.159 0 00-.03.092.297.297 0 01-.052.134.339.339 0 00-.06.192c-.009.143.024.204.087.164.033-.02.053-.02.115.006.084.033.104.029.104-.023z" fill="#ba1a33"/></g><g stroke-width=".987"><path d="M63.74 6.232V2.608h2.07l.005.411.006.411.1-.14c.292-.41.774-.687 1.415-.814a3.513 3.513 0 011.186.002c.833.177 1.407.674 1.681 1.456.091.258.132.478.155.834.011.17.02 1.385.02 2.699l.001 2.389h-2.135V7.549c0-2.532.002-2.5-.127-2.776-.153-.327-.379-.488-.758-.541a1.27 1.27 0 00-.887.204c-.268.183-.454.46-.56.837-.047.168-.047.17-.054 2.375l-.007 2.208H63.74zM44.471 6.232V2.608H46.542v.396c0 .217.007.395.016.394a.783.783 0 00.12-.14c.265-.351.698-.625 1.186-.749.7-.178 1.428-.086 2.005.253.172.1.529.465.632.645l.085.147.063-.083c.123-.16.453-.472.611-.578.311-.21.619-.339.979-.412.668-.137 1.338-.037 1.878.28.186.11.53.466.643.668.181.321.28.657.322 1.08.011.114.02 1.348.02 2.776l.001 2.57H52.992l-.008-2.367c-.01-2.605-.004-2.502-.141-2.796a.73.73 0 00-.352-.373 1.093 1.093 0 00-1.097.115c-.21.155-.38.418-.48.743l-.048.157-.006 2.26-.007 2.262H48.72V7.499c-.001-2.58.002-2.513-.127-2.788-.204-.437-.694-.604-1.207-.412-.347.13-.617.474-.742.945-.046.174-.047.193-.054 2.394l-.007 2.218H44.47V6.232zM20.773 4.928V0h2.22L23 2.126l.005 2.126 1.758-2.126L26.519 0h1.367c.855 0 1.363.008 1.359.02-.004.012-.78.925-1.726 2.031a220.585 220.585 0 00-1.725 2.031c-.004.012.8 1.31 1.788 2.885a454.54 454.54 0 011.795 2.877c0 .006-.59.012-1.311.012h-1.31l-1.2-2.015a292.937 292.937 0 00-1.217-2.032c-.008-.01-.314.332-.68.759l-.663.776-.002 1.256v1.256h-2.221zM59.024 2.446c-1 .046-1.9.402-2.516 1.005l-.22.215.616.63.616.63.157-.146c.198-.183.36-.294.587-.4.293-.138.462-.174.82-.175.467-.002.717.08.951.315.203.203.307.477.308.809v.144h-.699c-.95 0-1.39.04-1.901.173-.516.133-.886.328-1.19.629-.396.391-.566.838-.566 1.489 0 .666.192 1.157.626 1.596.36.364.908.613 1.49.674.32.033.816-.008 1.126-.094.458-.127.866-.412 1.101-.768l.077-.117v.801h2.073l-.008-2.486c-.007-2.237-.01-2.503-.044-2.667-.123-.615-.333-1.05-.678-1.405-.522-.536-1.25-.807-2.292-.852a4.885 4.885 0 00-.434 0zM60.37 6.84l-.012.284c-.012.325-.052.48-.18.697-.21.355-.538.593-.932.675-.54.112-1.044-.087-1.186-.47-.099-.263-.072-.559.069-.756.089-.125.284-.257.472-.32.265-.086.51-.11 1.163-.11z"/><path d="M32.564 2.421c-.684-.004-1.388.178-1.913.502-.917.566-1.499 1.523-1.652 2.718-.04.304-.046.95-.012 1.222.218 1.769 1.46 2.975 3.26 3.163.255.027.93.01 1.19-.03.958-.147 1.717-.543 2.288-1.193.074-.085.135-.16.134-.165 0-.006-.09-.078-.197-.159l-.701-.53-.505-.384-.2.2c-.327.328-.657.499-1.084.563-.922.14-1.614-.208-1.901-.954a2.126 2.126 0 01-.128-.474c0-.035.132-.037 2.489-.037h2.49l-.012-.53a5.223 5.223 0 00-.055-.785c-.157-.919-.48-1.583-1.047-2.15-.589-.59-1.253-.887-2.152-.964a3.667 3.667 0 00-.292-.013zm-.023 1.697c.54-.002.93.245 1.195.758.083.162.203.508.203.589 0 .025-.218.03-1.388.03-1.107 0-1.387-.006-1.387-.028 0-.068.096-.363.17-.521.192-.412.432-.641.805-.77a.996.996 0 01.402-.058zM37.774 12.42c-.317-.029-.954-.156-.996-.199-.006-.006.102-.378.24-.826.236-.763.255-.814.296-.802.024.008.16.038.3.068.422.09.758.05.949-.114.104-.09.181-.242.342-.673l.133-.355-1.412-3.403a2123.72 2123.72 0 01-1.432-3.455l-.02-.053h2.294l.79 2.244c.435 1.234.796 2.236.803 2.228.007-.008.348-1.017.758-2.243l.745-2.228h2.294l-.022.058c-.457 1.216-3.158 8.137-3.253 8.333-.168.345-.31.558-.517.78a2.026 2.026 0 01-1.085.598c-.248.052-.87.074-1.207.043z"/></g></svg>