<svg width="377" height="296" fill="none" xmlns="http://www.w3.org/2000/svg"><g clip-path="url(#clip0)"><path opacity=".1" d="M184.083 25.961c-13.498-1.617-26.123-6.587-38.864-10.789a347.5 347.5 0 00-43.278-11.176C86.331 1.014 70.241-.93 54.592.46 38.943 1.85 23.674 6.848 13.693 15.987-3.217 31.488-1.789 54.984 3.795 75.694c6.628 24.571 18.087 48.86 36.843 69.787 13.331 14.875 30.06 27.753 46.64 40.536 9.372 7.213 18.832 14.477 29.78 20.149 10.184 5.269 21.429 9.048 32.594 12.772 11.923 3.981 23.874 7.984 36.184 11.028 39.291 9.714 80.654 9.41 121.096 8.545 14.233-.3 29.111-.796 41.051-6.351 9.304-4.344 15.935-11.38 20.959-18.882 6.573-9.83 10.723-21.56 6.055-32.523-6.881-16.171-30.465-25.697-38.317-41.622-10.061-20.435 9.482-42.035 3.951-63.305-2.299-8.85-8.786-16.848-15.66-24.307-16.395-17.785-38.186-33.985-67.474-31.618-24.797 1.998-47.414 9.178-73.414 6.058z" fill="#E6E6E6"/><path d="M123.613 16.023H236.97a11.22 11.22 0 0111.227 11.184V275.25a11.221 11.221 0 01-11.227 11.183H123.613a11.221 11.221 0 01-11.227-11.183V27.203a11.216 11.216 0 013.303-7.908 11.23 11.23 0 017.924-3.272z" fill="url(#paint0_linear)"/><path d="M122.731 285.306h114.277c5.374 0 9.731-4.354 9.731-9.725V27.725c0-5.371-4.357-9.725-9.731-9.725H122.731c-5.374 0-9.731 4.354-9.731 9.725v247.856c0 5.371 4.357 9.725 9.731 9.725z" fill="#4E5A86"/><path d="M123.266 260.535h114.041V42.961H123.266v217.574zM193.764 31.56a1.036 1.036 0 100-2.071 1.036 1.036 0 000 2.071zM166.131 31.56h22.085c.2 0 .362-.162.362-.362v-1.35c0-.2-.162-.362-.362-.362h-22.085c-.2 0-.362.162-.362.362v1.35c0 .2.162.362.362.362zM180.806 278.146a7.256 7.256 0 007.258-7.253 7.256 7.256 0 00-7.258-7.253 7.256 7.256 0 00-7.258 7.253 7.256 7.256 0 007.258 7.253z" fill="#fff"/><path opacity=".1" d="M174.856 296c50.804 0 91.989-7.94 91.989-17.735 0-9.794-41.185-17.734-91.989-17.734-50.805 0-91.99 7.94-91.99 17.734 0 9.795 41.185 17.735 91.99 17.735zM224.291 76.671h-88.006v117.627h88.006V76.671z" fill="#E6E6E6"/><path d="M211.64 133.693a25.135 25.135 0 00-.666-.724c1.749-1.983 3.564-4.021 3.546-6.569-.019-3.102-2.771-5.48-3.799-8.411-1.398-3.981.543-8.259 1.34-12.403a23.258 23.258 0 00-5.049-19.161c-.808-.955-1.746-1.878-2.952-2.255-1.829-.579-3.777.225-5.682.46-6.298.774-12.027-4.647-18.354-4.162a3.41 3.41 0 00-1.217.275c-.819.39-1.261 1.252-1.768 1.998-1.966 2.895-5.265 4.343-8.55 5.79a4.58 4.58 0 00-1.166.536c-.985.46-1.956.938-2.872 1.48-4.564 2.737-5.288 6.244-3.865 9.168a8.972 8.972 0 002.217 2.816 5.298 5.298 0 01-.131.525c-.93 3.344-4.19 6.344-3.596 9.822.131.677.376 1.327.724 1.922.967 1.748 2.568 3.258 3.184 5.154.063.192.115.388.156.586.333 1.658-.196 3.236-.924 4.803-6.939 1.604-14.776 4.557-15.385 9.772-1.064 9.07-4.266 34.123-4.266 34.123s-2.144 11.582 3.021 12.993c1.626.442 3.983-.134 7.366-2.41l-.181.535c-.04.12-.08.236-.116.362a106.125 106.125 0 00-3.542 13.573h49.834a54.652 54.652 0 00-1.945-8.531c-.062-.203-.123-.387-.178-.561a38.269 38.269 0 004.346 1.564c1.836.55 3.31.543 4.495.191 4.313-1.284 4.769-7.122 4.769-7.122l1.855-14.231 2.216-21.22c.328-.92.493-1.89.489-2.867 0-2.045-.695-4.795-3.354-7.821zm-37.838-13.362c.025-.247.043-.496.058-.742l.065.043c0 .235-.026.471-.051.702v.04a9.34 9.34 0 01-.471 2.172c.192-.727.326-1.468.399-2.215zm25.148 51.328c-1.112.507-2.593-.22-2.593-.22.127.231.246.456.362.68a.053.053 0 010 .025l-.079-.043-.851-.434a20.93 20.93 0 011.673-4.973 41.57 41.57 0 001.731-4.047c.214-.608.391-1.165.536-1.679a57.43 57.43 0 00.329 6.826c.319 2.465-.293 3.5-1.108 3.865z" fill="url(#paint1_linear)"/><path d="M164.896 92.093c-1.184.807-2.426 1.74-2.846 3.112-.681 2.212 1.028 4.43 1.195 6.74.307 4.194-4.44 7.662-3.741 11.813.478 2.845 3.397 4.777 3.958 7.6.818 4.126-3.654 7.764-3.303 11.944.188 2.233 1.742 4.13 3.502 5.512a17.061 17.061 0 008.558 3.511c-.206-3.587-2.872-6.855-2.412-10.42.315-2.443 2.035-4.444 3.031-6.699 1.75-3.96 1.188-8.542.142-12.74-1.047-4.199-2.565-8.35-2.641-12.668-.047-2.606 1.177-6.431.279-8.903-1.09-2.997-3.69-.185-5.722 1.198z" fill="#B0605D"/><path opacity=".1" d="M165.258 91.369c-1.184.807-2.426 1.74-2.846 3.113-.681 2.21 1.028 4.43 1.195 6.739.308 4.194-4.44 7.662-3.741 11.813.478 2.845 3.397 4.778 3.958 7.601.819 4.126-3.654 7.763-3.303 11.943.188 2.233 1.742 4.13 3.502 5.512a17.061 17.061 0 008.558 3.511c-.206-3.587-2.872-6.855-2.412-10.42.315-2.443 2.036-4.444 3.031-6.699 1.75-3.96 1.188-8.542.142-12.74-1.047-4.198-2.564-8.35-2.64-12.668-.048-2.605 1.177-6.431.278-8.903-1.09-2.997-3.69-.185-5.722 1.198z" fill="#000"/><path d="M169.09 145.774s-19.195-19.544-4.708-18.096c3.285.329 5.508-.257 6.982-1.358 1.681-1.252 2.387-3.17 2.583-5.172.398-3.981-1.235-8.324-1.235-8.324s19.556-15.563 15.573 3.981a33.203 33.203 0 00-.761 6.041c-.065 4.148 1.3 5.737 3.216 6.388 3.23 1.104 8.033-.442 10.22 3.134 3.984 6.529-31.87 13.406-31.87 13.406z" fill="#FFB9B9"/><path opacity=".05" d="M188.285 116.82a33.203 33.203 0 00-.761 6.04c-.521.181-1.052.332-1.59.453a15.616 15.616 0 01-11.987-2.172c.398-3.981-1.235-8.324-1.235-8.324s19.556-15.541 15.573 4.003z" fill="#000"/><path d="M198.063 107.41c0 4.127-1.641 8.086-4.561 11.004a15.579 15.579 0 01-22.024 0 15.558 15.558 0 01-4.561-11.004c0-.29 0-.579.025-.865a15.557 15.557 0 015.013-10.575 15.58 15.58 0 0121.691.603 15.558 15.558 0 014.417 10.837z" fill="#FFB9B9"/><path opacity=".05" d="M169.09 145.774s-19.195-19.544-4.708-18.096c3.285.329 5.508-.257 6.982-1.358-2.785 4.648-5.957 12.994 8.229 12.216 12.983-.724 12.762-5.893 11.147-9.288 3.23 1.104 8.033-.441 10.22 3.135 3.984 6.514-31.87 13.391-31.87 13.391z" fill="#000"/><path d="M213.664 144.576c-.09.266-.202.524-.336.771l-4.922 3.753-.627.481-8.21 6.261s.753 1.318-.322 5.176a34.864 34.864 0 01-2.213 5.682 21.165 21.165 0 00-1.637 4.93.482.482 0 010 .076c-.062.315-.116.626-.159.934a26.404 26.404 0 00.289 9.377c.174.825.337 1.386.402 1.596l.033.098s.174.463.435 1.274l.021.072a55.052 55.052 0 012.05 8.813h-48.606a107.58 107.58 0 013.531-13.612l.178-.528c-.297.202-.587.394-.866.568-3.368 2.114-5.602 2.334-7.069 1.52-4.082-2.269-2.206-12.584-2.206-12.584s3.126-24.847 4.165-33.84c.598-5.172 8.247-8.1 15.019-9.693A80.293 80.293 0 01173.055 124h.073s-.102.123-.272.362l-.022.029c-.126.166-.289.38-.471.64a24.943 24.943 0 00-2.958 5.288c-1.123 2.954-1.315 6.178 1.97 7.818 1.655.829 4.19 1.256 7.928 1.05 5.776-.319 8.941-1.524 10.531-3.059a4.322 4.322 0 001.308-2.356c.416-2.2-.924-4.517-1.855-5.812-.257-.357-.532-.7-.825-1.028l9.495.676a18.886 18.886 0 0112.281 5.657c.225.228.442.467.652.724 4.151 4.81 3.376 8.936 2.774 10.587z" fill="#FFD6EF"/><path opacity=".05" d="M156.776 144.326s.725 5.791-.724 7.601c-1.449 1.81-1.811 10.134 0 15.201l.724-22.802z" fill="#000"/><path d="M181.856 156.628h-21.911c-.75 0-1.358.608-1.358 1.358v7.419c0 .75.608 1.357 1.358 1.357h21.911c.75 0 1.358-.607 1.358-1.357v-7.419c0-.75-.608-1.358-1.358-1.358z" fill="#CDD0DB"/><path opacity=".05" d="M181.856 156.628h-21.911c-.75 0-1.358.608-1.358 1.358v7.419c0 .75.608 1.357 1.358 1.357h21.911c.75 0 1.358-.607 1.358-1.357v-7.419c0-.75-.608-1.358-1.358-1.358z" fill="#000"/><path d="M181.856 156.99h-21.911c-.75 0-1.358.608-1.358 1.358v7.419c0 .75.608 1.357 1.358 1.357h21.911c.75 0 1.358-.607 1.358-1.357v-7.419c0-.75-.608-1.358-1.358-1.358z" fill="#CDD0DB"/><path d="M177.963 162.962a1.086 1.086 0 100-2.171 1.086 1.086 0 000 2.171z" fill="#9DA7C0"/><path opacity=".05" d="M148.106 172.68a7.037 7.037 0 014.093-4.307c1.238-.514 2.749-1.448 3.513-3.152 1.427-3.16 3.962-6.417 10.481-4.246 6.519 2.172-1.811 3.619-1.811 3.619s14.848-2.171 9.054 2.172c-5.795 4.343-13.038 6.877-13.038 6.877l-3.567 3.775c-2.173 2.305-5.947 2.294-7.968-.16-.905-1.107-1.38-2.598-.757-4.578z" fill="#000"/><path d="M147.744 171.956a7.045 7.045 0 014.093-4.307c1.238-.514 2.748-1.448 3.512-3.152 1.427-3.16 3.963-6.417 10.481-4.246 6.519 2.172-1.81 3.62-1.81 3.62s14.848-2.172 9.054 2.171c-5.795 4.343-13.038 6.877-13.038 6.877l-3.567 3.775c-2.173 2.305-5.947 2.294-7.968-.16-.905-1.107-1.38-2.598-.757-4.578z" fill="#FFB9B9"/><path opacity=".05" d="M198.787 179.434l-2.535 6.152-3.259-2.385-9.054-6.663-6.157-3.981c-8.692-6.515 0-7.601 0-7.601-3.26-1.447 0-2.895 0-2.895 11.589-2.534 9.416 6.877 9.416 6.877l7.341 3.803 2.437 1.264 1.811 5.429z" fill="#000"/><path d="M199.512 178.71l-2.536 6.152-3.259-2.385-9.054-6.663-6.157-3.981c-8.692-6.515 0-7.6 0-7.6-3.259-1.448 0-2.896 0-2.896 11.589-2.533 9.416 6.877 9.416 6.877l7.341 3.804 2.438 1.263 1.811 5.429z" fill="#FFB9B9"/><path opacity=".05" d="M199.512 178.71l-2.536 6.152-3.259-2.385c2.937.105 6.407-1.313 1.532-10.459l2.437 1.263 1.826 5.429z" fill="#000"/><path d="M212.912 142.155l.699 2.848-2.148 21.039-1.811 14.115s-.724 9.411-9.054 6.877c-8.33-2.533-9.054-5.067-9.054-5.067s11.951 3.981 4.346-10.134c0 0 4.346 2.172 3.622-3.619-.725-5.791 0-15.925 0-15.925l13.4-10.134z" fill="#FFD6EF"/><path opacity=".05" d="M198.063 107.41a15.562 15.562 0 01-12.129 15.179c-.521-1.506-.891-3.004-.511-4.528.725-2.957 4.151-5.114 3.771-8.136a2.013 2.013 0 00-.363-.948c-.764-1.006-2.321-.507-3.56-.257-3.201.637-6.707-1.524-7.576-4.669a10.589 10.589 0 01-10.771 2.494 15.557 15.557 0 015.013-10.575 15.58 15.58 0 0121.691.603 15.558 15.558 0 014.417 10.837h.018z" fill="#000"/><path d="M178.079 103.327c.865 3.145 4.375 5.306 7.573 4.665 1.238-.246 2.795-.745 3.56.261.195.279.313.605.344.945.384 3.025-3.032 5.179-3.767 8.139-.757 3.048 1.449 5.99 1.938 9.092.257 1.697 0 3.427 0 5.143 0 1.716.405 3.561 1.68 4.705 1.275 1.144 3.622 1.165 4.48-.326 4.074 2.154 2.448 8.824 5.541 12.237 1.706 1.882 4.513 2.335 7.044 2.096a2.97 2.97 0 001.655-.536c.419-.413.702-.943.812-1.52a12.34 12.34 0 00-.315-7.322c-.406-1.125-.989-2.262-.837-3.445.116-.927.67-1.734 1.257-2.462 1.944-2.41 4.599-4.741 4.581-7.839-.018-3.098-2.705-5.429-3.709-8.324-1.365-3.956.529-8.194 1.308-12.306a23.335 23.335 0 00-4.929-19.001c-.79-.948-1.706-1.864-2.897-2.24-1.786-.572-3.687.224-5.552.456-6.157.77-11.738-4.608-17.917-4.126a3.285 3.285 0 00-1.187.271c-.801.387-1.232 1.245-1.728 1.983-2.727 4.072-8.087 5.234-12.288 7.76-12.252 7.373 3.966 20.721 13.353 11.694z" fill="#B0605D"/><path d="M252.811 282.388s-5.244-26.551 5.556-44.749a40.987 40.987 0 005.66-25.313 68.874 68.874 0 00-2.535-12.357" stroke="#535461" stroke-width="2" stroke-miterlimit="10"/><path d="M268.235 188.46c-.289 3.167-6.881 11.828-6.881 11.828s-4.896-9.714-4.603-12.885a5.768 5.768 0 014.013-5.085 5.772 5.772 0 016.209 1.855 5.756 5.756 0 011.259 4.283l.003.004zM276.112 206.879c-1.966 2.501-12.204 6.196-12.204 6.196s1.173-10.815 3.14-13.316a5.766 5.766 0 0110.082 2.949 5.763 5.763 0 01-1.028 4.171h.01zM272.94 236.832c-2.963 1.165-13.664-.811-13.664-.811s6.475-8.744 9.438-9.909a5.762 5.762 0 014.226 10.72zM265.436 258.957c-2.723 1.65-13.606 1.509-13.606 1.509s4.903-9.711 7.627-11.361a5.762 5.762 0 014.396-.731 5.766 5.766 0 014.377 4.755 5.765 5.765 0 01-2.794 5.828zM251.797 212.583c2.071 2.417 12.455 5.675 12.455 5.675s-1.63-10.757-3.698-13.171a5.764 5.764 0 00-3.947-2.056 5.762 5.762 0 00-4.81 9.552zM243.348 238.565c2.698 1.687 13.584 1.691 13.584 1.691s-4.773-9.772-7.475-11.463a5.776 5.776 0 00-4.38-.778 5.775 5.775 0 00-3.631 2.57 5.742 5.742 0 00-.719 4.387 5.761 5.761 0 002.621 3.593zM238.6 264.95c2.376 2.117 13.103 3.963 13.103 3.963s-3.053-10.441-5.433-12.559a5.77 5.77 0 00-8.205.407 5.758 5.758 0 00.531 8.193l.004-.004zM161.452 57.076a13.7 13.7 0 00-4.016-9.689 13.715 13.715 0 00-9.696-4.013H73.034a13.716 13.716 0 00-9.696 4.013 13.698 13.698 0 000 19.378 13.716 13.716 0 009.696 4.014l62.462-.12 14.367 12.527V70.594a13.689 13.689 0 0011.589-13.518z" fill="#E6E6E6"/><path opacity=".2" d="M75.402 62.273a4.728 4.728 0 004.73-4.726 4.728 4.728 0 00-4.73-4.727 4.728 4.728 0 00-4.73 4.727 4.728 4.728 0 004.73 4.727zM91.475 62.273a4.728 4.728 0 004.73-4.726 4.728 4.728 0 00-4.73-4.727 4.728 4.728 0 00-4.73 4.727 4.728 4.728 0 004.73 4.727zM107.551 62.273a4.728 4.728 0 100-9.453 4.729 4.729 0 00-4.73 4.727 4.729 4.729 0 004.73 4.727z" fill="#fff"/><path d="M173.769 213.118h-37.665v11.22h37.665v-11.22z" fill="#E6E6E6"/><path opacity=".1" d="M224.11 213.118h-37.665v11.22h37.665v-11.22z" fill="#E6E6E6"/></g><defs><linearGradient id="paint0_linear" x1="180.288" y1="286.434" x2="180.288" y2="16.023" gradientUnits="userSpaceOnUse"><stop stop-color="gray" stop-opacity=".25"/><stop offset=".54" stop-color="gray" stop-opacity=".12"/><stop offset="1" stop-color="gray" stop-opacity=".1"/></linearGradient><linearGradient id="paint1_linear" x1="41863.9" y1="65878.8" x2="41863.9" y2="30062.7" gradientUnits="userSpaceOnUse"><stop stop-color="gray" stop-opacity=".25"/><stop offset=".54" stop-color="gray" stop-opacity=".12"/><stop offset="1" stop-color="gray" stop-opacity=".1"/></linearGradient><clipPath id="clip0"><path fill="#fff" d="M0 0h377v296H0z"/></clipPath></defs></svg>