<svg xmlns="http://www.w3.org/2000/svg" width="2935" height="322" fill="none"><g clip-path="url(#clip0)" transform="matrix(1 0 0 1.0006 887.881 -240.516)" fill="#000" filter="url(#a)" opacity=".198"><path d="M-886.582 272.031c241.477 0 281.532 36.875 409.6 93.266 147.41 65.757 194.259 95.89 329.878 117.892 65.062 5.25 80.908 8.612 215.372-16.4 69.612-15.784 204.799-61.204 341.332-71.773 136.533-10.57 273.066 10.568 409.6 35.837 136.532 25.654 273.07 56.4 409.6 41.028 136.53-15.373 262.19-52.136 409.6-117.893 128.067-56.39 168.123-81.957 409.6-81.957z"/></g><g clip-path="url(#clip0)" transform="matrix(1.00014 0 0 1.0006 888.007 -272.193)"><path d="M-886.582 272.031c241.477 0 281.532 36.875 409.6 93.266 147.41 65.757 194.259 95.89 329.878 117.892 65.062 5.25 80.908 8.612 215.372-16.4 69.612-15.784 204.799-61.204 341.332-71.773 136.533-10.57 273.066 10.568 409.6 35.837 136.532 25.654 273.07 56.4 409.6 41.028 136.53-15.373 262.19-52.136 409.6-117.893 128.067-56.39 168.123-81.957 409.6-81.957z" fill="#09f"/></g><defs id="defs844"><filter id="a" x="-.026" width="1.052" y="-.352" height="1.703" color-interpolation-filters="sRGB"><feGaussianBlur stdDeviation="31.486" id="feGaussianBlur841"/></filter></defs></svg>