<svg width="424" height="323" viewBox="0 0 424 323" fill="none" xmlns="http://www.w3.org/2000/svg">
<g filter="url(#filter0_d)">
<path fill-rule="evenodd" clip-rule="evenodd" d="M43 58.4091H381V253.409H43V58.4091Z" fill="#D1D5DB" fill-opacity="0.9"/>
<g filter="url(#filter1_d)">
<path fill-rule="evenodd" clip-rule="evenodd" d="M51.0834 73.1557C51.0834 70.7338 53.0468 68.7704 55.4687 68.7704H73.01C75.4319 68.7704 77.3953 70.7338 77.3953 73.1557V97.7134C77.3953 100.135 75.4319 102.099 73.01 102.099H55.4687C53.0468 102.099 51.0834 100.135 51.0834 97.7134V73.1557Z" fill="white"/>
</g>
<path d="M63.4776 79.5461C60.2784 79.5461 58.1925 82.1242 58.1925 86.0852C58.1925 90.0695 60.255 92.6242 63.4776 92.6242C65.2589 92.6242 66.6182 91.886 67.4268 90.5031H67.6143V96.6203H69.6534V79.7688H67.7081V81.8781H67.5206C66.7706 80.4602 65.2003 79.5461 63.4776 79.5461ZM63.9347 90.8078C61.6378 90.8078 60.2784 89.05 60.2784 86.0852C60.2784 83.132 61.6495 81.3625 63.9464 81.3625C66.2315 81.3625 67.6729 83.1906 67.6729 86.0852C67.6729 88.9914 66.2432 90.8078 63.9347 90.8078Z" fill="black"/>
<g filter="url(#filter2_d)">
<path fill-rule="evenodd" clip-rule="evenodd" d="M83.9732 73.1557C83.9732 70.7338 85.9366 68.7704 88.3585 68.7704H105.9C108.322 68.7704 110.285 70.7338 110.285 73.1557V97.7134C110.285 100.135 108.322 102.099 105.9 102.099H88.3585C85.9366 102.099 83.9732 100.135 83.9732 97.7134V73.1557Z" fill="white"/>
</g>
<path d="M105.625 79.7688H103.598L101.114 89.8703H100.926L98.1018 79.7688H96.1682L93.344 89.8703H93.1565L90.6721 79.7688H88.633L92.1721 92.4016H94.2112L97.0237 82.6281H97.2112L100.035 92.4016H102.086L105.625 79.7688Z" fill="black"/>
<g filter="url(#filter3_d)">
<path fill-rule="evenodd" clip-rule="evenodd" d="M116.863 73.1557C116.863 70.7338 118.826 68.7704 121.248 68.7704H138.79C141.212 68.7704 143.175 70.7338 143.175 73.1557V97.7134C143.175 100.135 141.212 102.099 138.79 102.099H121.248C118.826 102.099 116.863 100.135 116.863 97.7134V73.1557Z" fill="white"/>
</g>
<path d="M130.101 81.3274C132.105 81.3274 133.441 82.8039 133.488 85.0422H126.527C126.679 82.8039 128.085 81.3274 130.101 81.3274ZM133.429 89.132C132.902 90.2453 131.8 90.843 130.171 90.843C128.027 90.843 126.632 89.261 126.527 86.7649V86.6711H135.609V85.8977C135.609 81.9719 133.535 79.5461 130.124 79.5461C126.656 79.5461 124.429 82.1242 124.429 86.0969C124.429 90.093 126.621 92.6242 130.124 92.6242C132.89 92.6242 134.859 91.2883 135.445 89.132H133.429Z" fill="black"/>
<g filter="url(#filter4_d)">
<path fill-rule="evenodd" clip-rule="evenodd" d="M149.753 73.1557C149.753 70.7338 151.716 68.7704 154.138 68.7704H171.679C174.101 68.7704 176.065 70.7338 176.065 73.1557V97.7134C176.065 100.135 174.101 102.099 171.679 102.099H154.138C151.716 102.099 149.753 100.135 149.753 97.7134V73.1557Z" fill="white"/>
</g>
<path d="M160.237 92.4016H162.253V84.5735C162.253 82.7922 163.647 81.5031 165.569 81.5031C165.967 81.5031 166.694 81.5735 166.858 81.6203V79.6047C166.6 79.5695 166.178 79.5461 165.85 79.5461C164.174 79.5461 162.721 80.4133 162.346 81.6438H162.159V79.7688H160.237V92.4016Z" fill="black"/>
<g filter="url(#filter5_d)">
<path fill-rule="evenodd" clip-rule="evenodd" d="M182.643 73.1557C182.643 70.7338 184.606 68.7704 187.028 68.7704H204.569C206.991 68.7704 208.954 70.7338 208.954 73.1557V97.7134C208.954 100.135 206.991 102.099 204.569 102.099H187.028C184.606 102.099 182.643 100.135 182.643 97.7134V73.1557Z" fill="white"/>
</g>
<path d="M194.181 76.4992V79.7688H192.142V81.4563H194.181V89.1203C194.181 91.5344 195.224 92.4953 197.826 92.4953C198.224 92.4953 198.611 92.4485 199.009 92.3781V90.6789C198.634 90.7141 198.435 90.7258 198.072 90.7258C196.759 90.7258 196.197 90.093 196.197 88.6047V81.4563H199.009V79.7688H196.197V76.4992H194.181Z" fill="black"/>
<g filter="url(#filter6_d)">
<path fill-rule="evenodd" clip-rule="evenodd" d="M215.532 73.1557C215.532 70.7338 217.496 68.7704 219.918 68.7704H237.459C239.881 68.7704 241.844 70.7338 241.844 73.1557V97.7134C241.844 100.135 239.881 102.099 237.459 102.099H219.918C217.496 102.099 215.532 100.135 215.532 97.7134V73.1557Z" fill="white"/>
</g>
<path d="M225.149 96.9719C227.388 96.9719 228.395 96.1047 229.473 93.175L234.407 79.7688H232.263L228.806 90.1633H228.618L225.149 79.7688H222.97L227.645 92.4133L227.411 93.1633C226.884 94.6867 226.251 95.2375 225.091 95.2375C224.809 95.2375 224.493 95.2258 224.247 95.1789V96.9016C224.528 96.9485 224.88 96.9719 225.149 96.9719Z" fill="black"/>
<g filter="url(#filter7_d)">
<path fill-rule="evenodd" clip-rule="evenodd" d="M248.422 73.1557C248.422 70.7338 250.386 68.7704 252.808 68.7704H270.349C272.771 68.7704 274.734 70.7338 274.734 73.1557V97.7134C274.734 100.135 272.771 102.099 270.349 102.099H252.808C250.386 102.099 248.422 100.135 248.422 97.7134V73.1557Z" fill="white"/>
</g>
<path d="M266.688 79.7688H264.672V87.2453C264.672 89.4602 263.453 90.7844 261.227 90.7844C259.211 90.7844 258.367 89.7297 258.367 87.4563V79.7688H256.352V87.9485C256.352 90.9367 257.828 92.6242 260.664 92.6242C262.598 92.6242 263.945 91.8274 264.578 90.4211H264.766V92.4016H266.688V79.7688Z" fill="black"/>
<g filter="url(#filter8_d)">
<path fill-rule="evenodd" clip-rule="evenodd" d="M281.312 73.1557C281.312 70.7338 283.275 68.7704 285.697 68.7704H303.239C305.661 68.7704 307.624 70.7338 307.624 73.1557V97.7134C307.624 100.135 305.661 102.099 303.239 102.099H285.697C283.275 102.099 281.312 100.135 281.312 97.7134V73.1557Z" fill="white"/>
</g>
<path d="M293.46 92.4016H295.476V79.7688H293.46V92.4016ZM294.468 77.3313C295.241 77.3313 295.874 76.6985 295.874 75.925C295.874 75.1516 295.241 74.5188 294.468 74.5188C293.695 74.5188 293.062 75.1516 293.062 75.925C293.062 76.6985 293.695 77.3313 294.468 77.3313Z" fill="black"/>
<g filter="url(#filter9_d)">
<path fill-rule="evenodd" clip-rule="evenodd" d="M314.202 73.1557C314.202 70.7338 316.165 68.7704 318.587 68.7704H336.128C338.55 68.7704 340.514 70.7338 340.514 73.1557V97.7134C340.514 100.135 338.55 102.099 336.128 102.099H318.587C316.165 102.099 314.202 100.135 314.202 97.7134V73.1557Z" fill="white"/>
</g>
<path d="M327.358 92.6242C330.955 92.6242 333.182 90.1399 333.182 86.0852C333.182 82.0188 330.955 79.5461 327.358 79.5461C323.76 79.5461 321.534 82.0188 321.534 86.0852C321.534 90.1399 323.76 92.6242 327.358 92.6242ZM327.358 90.8078C324.967 90.8078 323.62 89.0735 323.62 86.0852C323.62 83.0852 324.967 81.3625 327.358 81.3625C329.748 81.3625 331.096 83.0852 331.096 86.0852C331.096 89.0735 329.748 90.8078 327.358 90.8078Z" fill="black"/>
<g filter="url(#filter10_d)">
<path fill-rule="evenodd" clip-rule="evenodd" d="M347.092 73.1557C347.092 70.7338 349.055 68.7704 351.477 68.7704H369.018C371.44 68.7704 373.404 70.7338 373.404 73.1557V97.7134C373.404 100.135 371.44 102.099 369.018 102.099H351.477C349.055 102.099 347.092 100.135 347.092 97.7134V73.1557Z" fill="white"/>
</g>
<path d="M360.986 79.5461C359.263 79.5461 357.752 80.425 356.943 81.8781H356.755V79.7688H354.834V96.6203H356.849V90.5031H357.037C357.728 91.8391 359.181 92.6242 360.986 92.6242C364.197 92.6242 366.294 90.0344 366.294 86.0852C366.294 82.1125 364.209 79.5461 360.986 79.5461ZM360.505 90.8078C358.232 90.8078 356.791 88.9797 356.791 86.0852C356.791 83.1789 358.232 81.3625 360.517 81.3625C362.826 81.3625 364.209 83.132 364.209 86.0852C364.209 89.0383 362.826 90.8078 360.505 90.8078Z" fill="black"/>
<g filter="url(#filter11_d)">
<path fill-rule="evenodd" clip-rule="evenodd" d="M67.5283 120.517C67.5283 118.095 69.4917 116.132 71.9136 116.132H89.4549C91.8768 116.132 93.8402 118.095 93.8402 120.517V145.075C93.8402 147.497 91.8768 149.46 89.4549 149.46H71.9136C69.4917 149.46 67.5283 147.497 67.5283 145.075V120.517Z" fill="white"/>
</g>
<path d="M79.8522 138.216C78.3874 138.216 77.2975 137.466 77.2975 136.177C77.2975 134.911 78.1413 134.243 80.0631 134.114L83.4616 133.892V135.052C83.4616 136.857 81.9264 138.216 79.8522 138.216ZM79.4772 139.986C81.1647 139.986 82.5475 139.247 83.3678 137.9H83.5553V139.763H85.4772V131.114C85.4772 128.489 83.7546 126.907 80.6725 126.907C77.9772 126.907 75.985 128.243 75.7155 130.271H77.7546C78.0358 129.275 79.0905 128.7 80.6022 128.7C82.4889 128.7 83.4616 129.556 83.4616 131.114V132.263L79.8171 132.486C76.8756 132.661 75.2116 133.962 75.2116 136.224C75.2116 138.532 77.028 139.986 79.4772 139.986Z" fill="black"/>
<g filter="url(#filter12_d)">
<path fill-rule="evenodd" clip-rule="evenodd" d="M100.418 120.517C100.418 118.095 102.381 116.132 104.803 116.132H122.345C124.767 116.132 126.73 118.095 126.73 120.517V145.075C126.73 147.497 124.767 149.46 122.345 149.46H104.803C102.381 149.46 100.418 147.497 100.418 145.075V120.517Z" fill="white"/>
</g>
<path d="M108.898 130.587C108.898 132.415 109.976 133.435 112.344 134.009L114.512 134.536C115.859 134.864 116.515 135.45 116.515 136.318C116.515 137.478 115.297 138.286 113.597 138.286C111.98 138.286 110.972 137.607 110.633 136.54H108.558C108.781 138.638 110.715 139.986 113.527 139.986C116.398 139.986 118.59 138.427 118.59 136.165C118.59 134.349 117.441 133.318 115.062 132.743L113.117 132.275C111.629 131.911 110.926 131.372 110.926 130.505C110.926 129.38 112.097 128.618 113.597 128.618C115.121 128.618 116.105 129.286 116.375 130.294H118.367C118.097 128.22 116.258 126.907 113.609 126.907C110.926 126.907 108.898 128.489 108.898 130.587Z" fill="black"/>
<g filter="url(#filter13_d)">
<path fill-rule="evenodd" clip-rule="evenodd" d="M133.308 120.517C133.308 118.095 135.271 116.132 137.693 116.132H155.234C157.656 116.132 159.62 118.095 159.62 120.517V145.075C159.62 147.497 157.656 149.46 155.234 149.46H137.693C135.271 149.46 133.308 147.497 133.308 145.075V120.517Z" fill="white"/>
</g>
<path d="M145.667 139.986C147.413 139.986 148.913 139.154 149.71 137.747H149.897V139.763H151.819V122.114H149.804V129.122H149.628C148.913 127.739 147.425 126.907 145.667 126.907C142.456 126.907 140.358 129.486 140.358 133.447C140.358 137.419 142.433 139.986 145.667 139.986ZM146.136 128.724C148.421 128.724 149.851 130.552 149.851 133.447C149.851 136.364 148.433 138.169 146.136 138.169C143.827 138.169 142.444 136.4 142.444 133.447C142.444 130.505 143.839 128.724 146.136 128.724Z" fill="black"/>
<g filter="url(#filter14_d)">
<path fill-rule="evenodd" clip-rule="evenodd" d="M166.198 120.517C166.198 118.095 168.161 116.132 170.583 116.132H188.124C190.546 116.132 192.51 118.095 192.51 120.517V145.075C192.51 147.497 190.546 149.46 188.124 149.46H170.583C168.161 149.46 166.198 147.497 166.198 145.075V120.517Z" fill="white"/>
</g>
<path d="M177.748 139.763H179.764V128.818H182.658V127.13H179.764V125.782C179.764 124.4 180.373 123.697 181.826 123.697C182.19 123.697 182.529 123.708 182.776 123.755V122.114C182.354 122.032 181.908 121.997 181.416 121.997C179.014 121.997 177.748 123.204 177.748 125.724V127.13H175.651V128.818H177.748V139.763Z" fill="black"/>
<g filter="url(#filter15_d)">
<path fill-rule="evenodd" clip-rule="evenodd" d="M199.088 120.517C199.088 118.095 201.051 116.132 203.473 116.132H221.014C223.436 116.132 225.399 118.095 225.399 120.517V145.075C225.399 147.497 223.436 149.46 221.014 149.46H203.473C201.051 149.46 199.088 147.497 199.088 145.075V120.517Z" fill="white"/>
</g>
<path d="M211.939 137.794C209.595 137.794 208.283 136.013 208.283 133.259C208.283 130.505 209.595 128.724 211.939 128.724C214.271 128.724 215.689 130.505 215.689 133.259C215.689 136.013 214.283 137.794 211.939 137.794ZM212.033 144.614C215.478 144.614 217.658 142.81 217.658 139.986V127.13H215.736V129.134H215.548C214.822 127.775 213.263 126.907 211.493 126.907C208.247 126.907 206.197 129.474 206.197 133.259C206.197 137.044 208.224 139.575 211.493 139.575C213.228 139.575 214.658 138.79 215.454 137.396H215.642V139.88C215.642 141.743 214.294 142.857 212.033 142.857C210.216 142.857 209.091 142.189 208.868 141.157H206.736C207.04 143.243 208.986 144.614 212.033 144.614Z" fill="black"/>
<g filter="url(#filter16_d)">
<path fill-rule="evenodd" clip-rule="evenodd" d="M231.977 120.517C231.977 118.095 233.941 116.132 236.363 116.132H253.904C256.326 116.132 258.289 118.095 258.289 120.517V145.075C258.289 147.497 256.326 149.46 253.904 149.46H236.363C233.941 149.46 231.977 147.497 231.977 145.075V120.517Z" fill="white"/>
</g>
<path d="M240.024 139.763H242.04V132.286C242.04 130.154 243.282 128.724 245.543 128.724C247.454 128.724 248.461 129.837 248.461 132.075V139.763H250.477V131.583C250.477 128.618 248.79 126.907 246.118 126.907C244.184 126.907 242.86 127.728 242.227 129.122H242.04V122.114H240.024V139.763Z" fill="black"/>
<g filter="url(#filter17_d)">
<path fill-rule="evenodd" clip-rule="evenodd" d="M264.867 120.517C264.867 118.095 266.831 116.132 269.252 116.132H286.794C289.216 116.132 291.179 118.095 291.179 120.517V145.075C291.179 147.497 289.216 149.46 286.794 149.46H269.252C266.831 149.46 264.867 147.497 264.867 145.075V120.517Z" fill="white"/>
</g>
<path d="M279.031 127.13H277.015V140.419C277.015 141.814 276.547 142.376 275.117 142.376H274.812V144.099H275.164C277.812 144.099 279.031 142.986 279.031 140.384V127.13ZM278.047 124.693C278.82 124.693 279.453 124.06 279.453 123.286C279.453 122.513 278.82 121.88 278.047 121.88C277.273 121.88 276.64 122.513 276.64 123.286C276.64 124.06 277.273 124.693 278.047 124.693Z" fill="black"/>
<g filter="url(#filter18_d)">
<path fill-rule="evenodd" clip-rule="evenodd" d="M297.757 120.517C297.757 118.095 299.72 116.132 302.142 116.132H319.683C322.105 116.132 324.069 118.095 324.069 120.517V145.075C324.069 147.497 322.105 149.46 319.683 149.46H302.142C299.72 149.46 297.757 147.497 297.757 145.075V120.517Z" fill="white"/>
</g>
<path d="M308.616 132.65H308.429V122.114H306.413V139.763H308.429V134.97L309.636 133.845L314.37 139.763H316.936L311.136 132.544L316.573 127.13H314.1L308.616 132.65Z" fill="black"/>
<g filter="url(#filter19_d)">
<path fill-rule="evenodd" clip-rule="evenodd" d="M330.647 120.517C330.647 118.095 332.61 116.132 335.032 116.132H352.573C354.995 116.132 356.959 118.095 356.959 120.517V145.075C356.959 147.497 354.995 149.46 352.573 149.46H335.032C332.61 149.46 330.647 147.497 330.647 145.075V120.517Z" fill="white"/>
</g>
<path d="M342.795 139.763H344.811V122.114H342.795V139.763Z" fill="black"/>
<g filter="url(#filter20_d)">
<path fill-rule="evenodd" clip-rule="evenodd" d="M100.418 167.878C100.418 165.456 102.381 163.493 104.803 163.493H122.345C124.767 163.493 126.73 165.456 126.73 167.878V192.436C126.73 194.858 124.767 196.821 122.345 196.821H104.803C102.381 196.821 100.418 194.858 100.418 192.436V167.878Z" fill="white"/>
</g>
<path d="M108.711 187.124H118.437V185.437H111.148V185.249L118.402 176.003V174.491H108.722V176.179H116V176.366L108.711 185.648V187.124Z" fill="black"/>
<g filter="url(#filter21_d)">
<path fill-rule="evenodd" clip-rule="evenodd" d="M133.308 167.878C133.308 165.456 135.271 163.493 137.693 163.493H155.234C157.656 163.493 159.62 165.456 159.62 167.878V192.436C159.62 194.858 157.656 196.821 155.234 196.821H137.693C135.271 196.821 133.308 194.858 133.308 192.436V167.878Z" fill="white"/>
</g>
<path d="M146.534 182.39L149.522 187.159H151.913L147.565 180.761L151.854 174.527H149.569L146.604 179.226H146.417L143.417 174.527H141.015L145.386 180.843L141.062 187.159H143.347L146.347 182.39H146.534Z" fill="black"/>
<g filter="url(#filter22_d)">
<path fill-rule="evenodd" clip-rule="evenodd" d="M166.198 167.878C166.198 165.456 168.161 163.493 170.583 163.493H188.124C190.546 163.493 192.51 165.456 192.51 167.878V192.436C192.51 194.858 190.546 196.821 188.124 196.821H170.583C168.161 196.821 166.198 194.858 166.198 192.436V167.878Z" fill="white"/>
</g>
<path d="M184.99 178.359C184.639 176.109 182.764 174.269 179.694 174.269C176.154 174.269 173.904 176.823 173.904 180.761C173.904 184.78 176.166 187.347 179.705 187.347C182.74 187.347 184.627 185.636 184.99 183.316H182.951C182.576 184.745 181.393 185.53 179.694 185.53C177.444 185.53 175.99 183.679 175.99 180.761C175.99 177.902 177.42 176.085 179.694 176.085C181.51 176.085 182.623 177.105 182.951 178.359H184.99Z" fill="black"/>
<g filter="url(#filter23_d)">
<path fill-rule="evenodd" clip-rule="evenodd" d="M199.088 167.878C199.088 165.456 201.051 163.493 203.473 163.493H221.014C223.436 163.493 225.399 165.456 225.399 167.878V192.436C225.399 194.858 223.436 196.821 221.014 196.821H203.473C201.051 196.821 199.088 194.858 199.088 192.436V167.878Z" fill="white"/>
</g>
<path d="M217.95 174.491H215.794L212.337 184.898H212.15L208.693 174.491H206.536L211.212 187.124H213.275L217.95 174.491Z" fill="black"/>
<g filter="url(#filter24_d)">
<path fill-rule="evenodd" clip-rule="evenodd" d="M231.977 167.878C231.977 165.456 233.941 163.493 236.363 163.493H253.904C256.326 163.493 258.289 165.456 258.289 167.878V192.436C258.289 194.858 256.326 196.821 253.904 196.821H236.363C233.941 196.821 231.977 194.858 231.977 192.436V167.878Z" fill="white"/>
</g>
<path d="M245.942 187.347C249.141 187.347 251.239 184.757 251.239 180.808C251.239 176.835 249.153 174.269 245.942 174.269C244.207 174.269 242.672 175.124 241.981 176.484H241.793V169.476H239.778V187.124H241.7V185.109H241.887C242.684 186.515 244.184 187.347 245.942 187.347ZM245.473 176.085C247.782 176.085 249.153 177.855 249.153 180.808C249.153 183.761 247.782 185.53 245.473 185.53C243.176 185.53 241.747 183.726 241.747 180.808C241.747 177.89 243.176 176.085 245.473 176.085Z" fill="black"/>
<g filter="url(#filter25_d)">
<path fill-rule="evenodd" clip-rule="evenodd" d="M264.867 167.878C264.867 165.456 266.831 163.493 269.252 163.493H286.794C289.216 163.493 291.179 165.456 291.179 167.878V192.436C291.179 194.858 289.216 196.821 286.794 196.821H269.252C266.831 196.821 264.867 194.858 264.867 192.436V167.878Z" fill="white"/>
</g>
<path d="M272.914 187.124H274.929V179.648C274.929 177.433 276.23 176.085 278.246 176.085C280.261 176.085 281.222 177.163 281.222 179.437V187.124H283.238V178.945C283.238 175.945 281.656 174.269 278.82 174.269C276.886 174.269 275.656 175.089 275.023 176.484H274.836V174.491H272.914V187.124Z" fill="black"/>
<g filter="url(#filter26_d)">
<path fill-rule="evenodd" clip-rule="evenodd" d="M297.757 167.878C297.757 165.456 299.72 163.493 302.142 163.493H319.683C322.105 163.493 324.069 165.456 324.069 167.878V192.436C324.069 194.858 322.105 196.821 319.683 196.821H302.142C299.72 196.821 297.757 194.858 297.757 192.436V167.878Z" fill="white"/>
</g>
<path d="M302.37 187.124H304.386V179.296C304.386 177.515 305.663 176.085 307.315 176.085C308.909 176.085 309.952 177.046 309.952 178.546V187.124H311.968V179.003C311.968 177.398 313.139 176.085 314.897 176.085C316.679 176.085 317.557 176.999 317.557 178.863V187.124H319.573V178.394C319.573 175.745 318.132 174.269 315.554 174.269C313.807 174.269 312.366 175.148 311.686 176.484H311.499C310.913 175.171 309.718 174.269 308.007 174.269C306.319 174.269 305.054 175.077 304.479 176.484H304.292V174.491H302.37V187.124Z" fill="black"/>
<g filter="url(#filter27_d)">
<path fill-rule="evenodd" clip-rule="evenodd" d="M133 214.794C133 212.372 134.963 210.409 137.385 210.409H154.927C157.348 210.409 159.312 212.372 159.312 214.794V239.352C159.312 241.774 157.348 243.737 154.927 243.737H137.385C134.963 243.737 133 241.774 133 239.352V214.794Z" fill="white"/>
</g>
<path fill-rule="evenodd" clip-rule="evenodd" d="M143.394 221.815C143.394 220.121 144.772 218.748 146.464 218.748C148.159 218.748 149.534 220.121 149.534 221.815V227.96C149.534 229.654 148.156 231.027 146.464 231.027C144.768 231.027 143.394 229.654 143.394 227.96V221.815ZM144.71 221.815V227.96C144.71 228.927 145.495 229.711 146.464 229.711C147.431 229.711 148.218 228.925 148.218 227.96V221.815C148.218 220.848 147.433 220.064 146.464 220.064C145.497 220.064 144.71 220.849 144.71 221.815Z" fill="black"/>
<path d="M142.956 235.631C142.956 235.268 143.25 234.974 143.613 234.974H145.806V233.179C143.321 232.869 141.375 230.826 141.212 228.296C141.207 228.265 141.203 228.233 141.202 228.2L141.201 228.176V225.984C141.201 225.62 141.496 225.326 141.859 225.326C142.223 225.326 142.517 225.62 142.517 225.984V227.954C142.517 230.136 144.284 231.904 146.464 231.904C148.644 231.904 150.411 230.136 150.411 227.954V225.984C150.411 225.62 150.705 225.326 151.068 225.326C151.432 225.326 151.726 225.62 151.726 225.984V228.176C151.726 228.217 151.723 228.257 151.715 228.296C151.553 230.825 149.607 232.869 147.122 233.179V234.974H149.314C149.678 234.974 149.972 235.268 149.972 235.631C149.972 235.995 149.678 236.289 149.314 236.289H143.613C143.25 236.289 142.956 235.995 142.956 235.631Z" fill="black"/>
<g filter="url(#filter28_d)">
<path fill-rule="evenodd" clip-rule="evenodd" d="M167 214.794C167 212.372 168.963 210.409 171.385 210.409H288.034C290.456 210.409 292.42 212.372 292.42 214.794V239.352C292.42 241.774 290.456 243.737 288.034 243.737H171.385C168.963 243.737 167 241.774 167 239.352V214.794Z" fill="white"/>
</g>
<path d="M208.705 227.631C208.705 228.849 209.423 229.529 211.001 229.912L212.447 230.264C213.345 230.482 213.783 230.873 213.783 231.451C213.783 232.224 212.97 232.764 211.837 232.764C210.759 232.764 210.087 232.31 209.861 231.599H208.478C208.626 232.998 209.915 233.896 211.79 233.896C213.705 233.896 215.165 232.857 215.165 231.349C215.165 230.139 214.4 229.451 212.814 229.068L211.517 228.756C210.525 228.514 210.056 228.154 210.056 227.576C210.056 226.826 210.837 226.318 211.837 226.318C212.853 226.318 213.509 226.764 213.689 227.435H215.017C214.837 226.053 213.611 225.178 211.845 225.178C210.056 225.178 208.705 226.232 208.705 227.631ZM220.876 225.178C219.728 225.178 218.72 225.764 218.181 226.732H218.056V225.326H216.775V236.56H218.119V232.482H218.244C218.705 233.373 219.673 233.896 220.876 233.896C223.017 233.896 224.415 232.17 224.415 229.537C224.415 226.889 223.025 225.178 220.876 225.178ZM220.556 232.685C219.04 232.685 218.08 231.467 218.08 229.537C218.08 227.599 219.04 226.389 220.564 226.389C222.103 226.389 223.025 227.568 223.025 229.537C223.025 231.506 222.103 232.685 220.556 232.685ZM228.619 232.717C227.642 232.717 226.915 232.217 226.915 231.357C226.915 230.514 227.478 230.068 228.759 229.982L231.025 229.834V230.607C231.025 231.81 230.001 232.717 228.619 232.717ZM228.369 233.896C229.494 233.896 230.415 233.404 230.962 232.506H231.087V233.748H232.369V227.982C232.369 226.232 231.22 225.178 229.165 225.178C227.369 225.178 226.04 226.068 225.861 227.42H227.22C227.408 226.756 228.111 226.373 229.119 226.373C230.376 226.373 231.025 226.943 231.025 227.982V228.748L228.595 228.896C226.634 229.014 225.525 229.881 225.525 231.389C225.525 232.928 226.736 233.896 228.369 233.896ZM241.322 227.904C241.087 226.404 239.837 225.178 237.79 225.178C235.431 225.178 233.931 226.881 233.931 229.506C233.931 232.185 235.439 233.896 237.798 233.896C239.822 233.896 241.08 232.756 241.322 231.209H239.962C239.712 232.162 238.923 232.685 237.79 232.685C236.29 232.685 235.322 231.451 235.322 229.506C235.322 227.599 236.275 226.389 237.79 226.389C239.001 226.389 239.744 227.068 239.962 227.904H241.322ZM246.165 226.365C247.501 226.365 248.392 227.349 248.423 228.842H243.783C243.884 227.349 244.822 226.365 246.165 226.365ZM248.384 231.568C248.033 232.31 247.298 232.709 246.212 232.709C244.783 232.709 243.853 231.654 243.783 229.99V229.928H249.837V229.412C249.837 226.795 248.455 225.178 246.181 225.178C243.869 225.178 242.384 226.896 242.384 229.545C242.384 232.209 243.845 233.896 246.181 233.896C248.025 233.896 249.337 233.006 249.728 231.568H248.384Z" fill="black"/>
<g filter="url(#filter29_d)">
<path fill-rule="evenodd" clip-rule="evenodd" d="M336.814 167.878C336.814 165.456 338.777 163.493 341.199 163.493H369.429C371.851 163.493 373.815 165.456 373.815 167.878V192.436C373.815 194.858 371.851 196.821 369.429 196.821H341.199C338.777 196.821 336.814 194.858 336.814 192.436V167.878Z" fill="#ACB4BE"/>
</g>
<path fill-rule="evenodd" clip-rule="evenodd" d="M347.523 176.912C345.378 178.969 344.707 179.708 344.707 180.596C344.707 181.484 345.377 182.222 347.52 184.277C347.631 184.383 347.744 184.491 347.859 184.6C348.109 184.836 348.366 185.077 348.627 185.318C349.001 185.665 349.384 186.015 349.767 186.36C349.994 186.566 350.205 186.755 350.395 186.923L350.516 187.031L350.636 187.137C351.231 187.669 352.232 188.051 353.041 188.051H361.37C363.064 188.051 364.441 186.677 364.441 184.982V176.209C364.441 174.516 363.065 173.141 361.37 173.141H353.041C352.231 173.141 351.238 173.518 350.636 174.054L350.625 174.064C350.583 174.101 350.505 174.17 350.4 174.263C350.211 174.432 349.999 174.621 349.772 174.827C349.122 175.414 348.471 176.013 347.862 176.589L347.706 176.737L347.523 176.912ZM351.505 186.15C351.505 186.15 346.023 181.321 346.023 180.596C346.023 179.87 351.511 175.037 351.511 175.037C351.871 174.716 352.552 174.456 353.041 174.456H361.37C362.34 174.456 363.125 175.243 363.125 176.209V184.982C363.125 185.95 362.337 186.735 361.37 186.735H353.041C352.556 186.735 351.866 186.472 351.505 186.15Z" fill="black"/>
<path d="M353.943 178.483C353.686 178.226 353.686 177.81 353.943 177.553C354.2 177.296 354.616 177.296 354.873 177.553L360.145 182.824C360.402 183.081 360.402 183.498 360.145 183.755C359.888 184.011 359.471 184.011 359.214 183.755L353.943 178.483Z" fill="black"/>
<path d="M359.215 177.553C359.471 177.296 359.888 177.296 360.145 177.553C360.402 177.81 360.402 178.226 360.145 178.483L354.873 183.754C354.616 184.011 354.2 184.011 353.943 183.754C353.686 183.498 353.686 183.081 353.943 182.824L359.215 177.553Z" fill="black"/>
<g filter="url(#filter30_d)">
<path fill-rule="evenodd" clip-rule="evenodd" d="M51.0834 167.878C51.0834 165.456 53.0468 163.493 55.4687 163.493H83.6991C86.1211 163.493 88.0845 165.456 88.0845 167.878V192.436C88.0845 194.858 86.1211 196.821 83.6991 196.821H55.4687C53.0468 196.821 51.0834 194.858 51.0834 192.436V167.878Z" fill="#ACB4BE"/>
</g>
<path d="M78.6824 181.387C78.7734 181.874 78.654 182.171 78.2108 182.326H73.4485V187.09C73.4485 187.571 73.0564 187.962 72.5727 187.962H66.8705C66.3869 187.962 65.9947 187.571 65.9947 187.09V182.326H61.2316C60.7908 182.143 60.6673 181.849 60.76 181.387L69.2495 172.934C69.721 172.491 70.1172 172.522 70.6645 172.934L78.6824 181.387Z" stroke="black" stroke-width="1.31559"/>
<g filter="url(#filter31_d)">
<path fill-rule="evenodd" clip-rule="evenodd" d="M51.0834 215.24C51.0834 212.818 53.0468 210.854 55.4687 210.854H81.6435C84.0655 210.854 86.0288 212.818 86.0288 215.24V239.797C86.0288 242.219 84.0655 244.183 81.6435 244.183H55.4687C53.0468 244.183 51.0834 242.219 51.0834 239.797V215.24Z" fill="#ACB4BE"/>
</g>
<path d="M59.8804 234.625H61.2866V223.352H59.8882L56.8882 225.508V226.992L59.7554 224.914H59.8804V234.625ZM64.2835 226.531H65.6429C65.6429 225.195 66.5413 224.312 67.8929 224.312C69.221 224.312 70.0257 225.203 70.0257 226.398C70.0257 227.391 69.6038 227.977 68.1663 229.531L64.3538 233.656V234.625H71.6507V233.359H66.3069V233.234L68.8694 230.586C70.9007 228.484 71.4632 227.547 71.4632 226.25C71.4632 224.422 69.9554 223.086 67.9866 223.086C65.8304 223.086 64.2835 224.523 64.2835 226.531ZM76.0929 229.43H77.4913C79.0772 229.43 80.0538 230.242 80.0538 231.547C80.0538 232.812 78.9991 233.664 77.5147 233.664C76.0616 233.664 75.046 232.906 74.921 231.719H73.5616C73.6632 233.633 75.2413 234.891 77.5304 234.891C79.7726 234.891 81.4991 233.477 81.4991 231.586C81.4991 230.016 80.5304 229.023 79.0694 228.789V228.664C80.2257 228.328 81.0694 227.43 81.0772 226.07C81.0851 224.492 79.8038 223.086 77.5772 223.086C75.296 223.086 73.8976 224.437 73.7569 226.273H75.1241C75.2413 225.008 76.1241 224.312 77.4835 224.312C78.8429 224.312 79.6476 225.172 79.6476 226.227C79.6476 227.398 78.7257 228.227 77.4288 228.227H76.0929V229.43Z" fill="black"/>
<g filter="url(#filter32_d)">
<path fill-rule="evenodd" clip-rule="evenodd" d="M92.1957 215.24C92.1957 212.818 94.159 210.854 96.581 210.854H122.756C125.178 210.854 127.141 212.818 127.141 215.24V239.797C127.141 242.219 125.178 244.183 122.756 244.183H96.581C94.159 244.183 92.1957 242.219 92.1957 239.797V215.24Z" fill="#ACB4BE"/>
</g>
<path d="M108.86 225.545C108.86 226.151 108.369 226.641 107.764 226.641C107.158 226.641 106.667 226.151 106.667 225.545C106.667 224.94 107.158 224.449 107.764 224.449C108.369 224.449 108.86 224.94 108.86 225.545Z" fill="black"/>
<path fill-rule="evenodd" clip-rule="evenodd" d="M116.315 229.273C116.315 231.046 113.664 234.096 110.395 234.096C107.125 234.096 104.475 231.093 104.475 229.273C104.475 228.243 105.444 228.459 106.933 228.79C107.907 229.007 109.102 229.273 110.395 229.273C111.687 229.273 112.883 229.012 113.856 228.799C115.346 228.474 116.315 228.263 116.315 229.273ZM106.413 229.497C106.114 229.4 105.79 229.622 105.79 229.936V230.012C105.79 230.077 105.804 230.14 105.836 230.194C105.848 230.215 105.863 230.235 105.88 230.252C106.187 230.562 107.346 231.465 110.434 231.465C113.536 231.465 114.637 230.553 114.919 230.248C114.976 230.187 114.999 230.105 114.999 230.022V229.964C114.999 229.643 114.66 229.418 114.355 229.522C113.593 229.781 112.209 230.15 110.494 230.15C108.724 230.15 107.217 229.757 106.413 229.497Z" fill="black"/>
<path d="M113.026 226.641C113.631 226.641 114.122 226.151 114.122 225.545C114.122 224.94 113.631 224.449 113.026 224.449C112.42 224.449 111.93 224.94 111.93 225.545C111.93 226.151 112.42 226.641 113.026 226.641Z" fill="black"/>
<path fill-rule="evenodd" clip-rule="evenodd" d="M110.395 236.728C105.672 236.728 101.843 232.899 101.843 228.176C101.843 223.454 105.672 219.625 110.395 219.625C115.117 219.625 118.946 223.454 118.946 228.176C118.946 232.899 115.117 236.728 110.395 236.728ZM110.395 235.851C114.633 235.851 118.069 232.415 118.069 228.176C118.069 223.938 114.633 220.502 110.395 220.502C106.156 220.502 102.72 223.938 102.72 228.176C102.72 232.415 106.156 235.851 110.395 235.851Z" fill="black"/>
<g filter="url(#filter33_d)">
<path fill-rule="evenodd" clip-rule="evenodd" d="M297.757 215.24C297.757 212.818 299.72 210.854 302.142 210.854H369.429C371.851 210.854 373.815 212.818 373.815 215.24V239.797C373.815 242.219 371.851 244.183 369.429 244.183H302.142C299.72 244.183 297.757 242.219 297.757 239.797V215.24Z" fill="#ACB4BE"/>
</g>
<path d="M315.8 232.871H317.144V227.652C317.144 226.465 318.073 225.605 319.354 225.605C319.62 225.605 320.104 225.652 320.214 225.683V224.34C320.042 224.316 319.761 224.301 319.542 224.301C318.425 224.301 317.456 224.879 317.206 225.699H317.081V224.449H315.8V232.871ZM324.519 225.488C325.854 225.488 326.745 226.472 326.776 227.965H322.136C322.237 226.472 323.175 225.488 324.519 225.488ZM326.737 230.691C326.386 231.433 325.651 231.832 324.565 231.832C323.136 231.832 322.206 230.777 322.136 229.113V229.051H328.19V228.535C328.19 225.918 326.808 224.301 324.534 224.301C322.222 224.301 320.737 226.019 320.737 228.668C320.737 231.332 322.198 233.019 324.534 233.019C326.378 233.019 327.69 232.129 328.081 230.691H326.737ZM330.362 222.269V224.449H329.003V225.574H330.362V230.683C330.362 232.293 331.058 232.933 332.792 232.933C333.058 232.933 333.315 232.902 333.581 232.855V231.722C333.331 231.746 333.198 231.754 332.956 231.754C332.081 231.754 331.706 231.332 331.706 230.34V225.574H333.581V224.449H331.706V222.269H330.362ZM341.925 224.449H340.581V229.433C340.581 230.91 339.769 231.793 338.284 231.793C336.94 231.793 336.378 231.09 336.378 229.574V224.449H335.034V229.902C335.034 231.894 336.019 233.019 337.909 233.019C339.198 233.019 340.097 232.488 340.519 231.551H340.644V232.871H341.925V224.449ZM343.956 232.871H345.3V227.652C345.3 226.465 346.229 225.605 347.511 225.605C347.776 225.605 348.261 225.652 348.37 225.683V224.34C348.198 224.316 347.917 224.301 347.698 224.301C346.581 224.301 345.612 224.879 345.362 225.699H345.237V224.449H343.956V232.871ZM349.706 232.871H351.05V227.886C351.05 226.41 351.917 225.511 353.261 225.511C354.604 225.511 355.245 226.23 355.245 227.746V232.871H356.589V227.418C356.589 225.418 355.534 224.301 353.644 224.301C352.354 224.301 351.534 224.847 351.112 225.777H350.987V224.449H349.706V232.871Z" fill="black"/>
<path fill-rule="evenodd" clip-rule="evenodd" d="M43 21.4091H381V58.4091H43V21.4091Z" fill="#BBC2C9"/>
<path fill-rule="evenodd" clip-rule="evenodd" d="M156.756 21.4091H157.633V58.2456H156.756V21.4091Z" fill="white" fill-opacity="0.36"/>
<path fill-rule="evenodd" clip-rule="evenodd" d="M267.265 21.4091H268.142V58.2456H267.265V21.4091Z" fill="white" fill-opacity="0.36"/>
<path d="M198.478 34.1072V36.0707H199.992V37.1424H198.478V42.1712C198.478 42.4959 198.545 42.7408 198.68 42.9056C198.815 43.0655 199.045 43.1455 199.37 43.1455C199.529 43.1455 199.749 43.1155 200.029 43.0555V44.1797C199.664 44.2796 199.31 44.3296 198.965 44.3296C198.345 44.3296 197.878 44.1422 197.563 43.7675C197.249 43.3928 197.091 42.8607 197.091 42.1712V37.1424H195.615V36.0707H197.091V34.1072H198.478ZM206.405 44.1797C206.325 44.0198 206.26 43.735 206.21 43.3253C205.565 43.9948 204.796 44.3296 203.902 44.3296C203.102 44.3296 202.445 44.1047 201.931 43.6551C201.421 43.2004 201.166 42.6258 201.166 41.9314C201.166 41.087 201.486 40.4325 202.126 39.9678C202.77 39.4982 203.674 39.2633 204.839 39.2633H206.188V38.6263C206.188 38.1417 206.043 37.757 205.753 37.4722C205.463 37.1824 205.036 37.0375 204.471 37.0375C203.977 37.0375 203.562 37.1624 203.227 37.4122C202.892 37.662 202.725 37.9643 202.725 38.319H201.331C201.331 37.9144 201.474 37.5246 201.758 37.1499C202.048 36.7702 202.438 36.4704 202.927 36.2506C203.422 36.0308 203.964 35.9208 204.554 35.9208C205.488 35.9208 206.22 36.1557 206.75 36.6253C207.279 37.09 207.554 37.732 207.574 38.5514V42.2836C207.574 43.028 207.669 43.6201 207.859 44.0598V44.1797H206.405ZM204.104 43.123C204.539 43.123 204.951 43.0106 205.341 42.7857C205.73 42.5609 206.013 42.2686 206.188 41.9089V40.2451H205.101C203.402 40.2451 202.553 40.7422 202.553 41.7365C202.553 42.1712 202.698 42.5109 202.987 42.7557C203.277 43.0006 203.649 43.123 204.104 43.123ZM206.974 34.7217V34.7967H205.828L204.704 33.5226L203.587 34.7967H202.44V34.7067L204.284 32.6683H205.123L206.974 34.7217ZM210.84 36.0707L210.885 37.09C211.504 36.3105 212.314 35.9208 213.313 35.9208C215.027 35.9208 215.891 36.8876 215.906 38.8212V44.1797H214.519V38.8137C214.514 38.2291 214.38 37.7969 214.115 37.5171C213.855 37.2374 213.448 37.0975 212.893 37.0975C212.443 37.0975 212.049 37.2174 211.709 37.4572C211.369 37.697 211.104 38.0118 210.915 38.4015V44.1797H209.528V36.0707H210.84ZM217.275 36.3405L216.489 35.8009C216.953 35.1514 217.193 34.4669 217.208 33.7475V32.6683H218.579V33.6425C218.574 34.1422 218.45 34.6418 218.205 35.1414C217.965 35.636 217.655 36.0357 217.275 36.3405ZM223.914 42.0288C223.914 41.6541 223.771 41.3643 223.486 41.1594C223.207 40.9496 222.714 40.7697 222.01 40.6198C221.31 40.4699 220.753 40.2901 220.339 40.0802C219.929 39.8704 219.624 39.6206 219.424 39.3308C219.23 39.041 219.132 38.6963 219.132 38.2966C219.132 37.6321 219.412 37.07 219.971 36.6103C220.536 36.1507 221.256 35.9208 222.13 35.9208C223.049 35.9208 223.794 36.1582 224.363 36.6328C224.938 37.1075 225.225 37.7145 225.225 38.4539H223.831C223.831 38.0742 223.669 37.747 223.344 37.4722C223.024 37.1974 222.62 37.06 222.13 37.06C221.625 37.06 221.231 37.1699 220.946 37.3897C220.661 37.6096 220.519 37.8969 220.519 38.2516C220.519 38.5864 220.651 38.8387 220.916 39.0085C221.181 39.1784 221.658 39.3408 222.347 39.4957C223.042 39.6506 223.604 39.8354 224.033 40.0503C224.463 40.2651 224.78 40.5249 224.985 40.8297C225.195 41.1295 225.3 41.4967 225.3 41.9314C225.3 42.6558 225.01 43.2379 224.431 43.6776C223.851 44.1122 223.099 44.3296 222.175 44.3296C221.525 44.3296 220.951 44.2147 220.451 43.9848C219.951 43.755 219.559 43.4352 219.275 43.0255C218.995 42.6109 218.855 42.1637 218.855 41.684H220.241C220.266 42.1487 220.451 42.5184 220.796 42.7932C221.146 43.063 221.605 43.1979 222.175 43.1979C222.699 43.1979 223.119 43.093 223.434 42.8832C223.754 42.6683 223.914 42.3835 223.914 42.0288ZM228.393 44.1797H227.007V36.0707H228.393V44.1797ZM226.894 33.9198C226.894 33.695 226.962 33.5051 227.097 33.3502C227.237 33.1954 227.441 33.1179 227.711 33.1179C227.981 33.1179 228.186 33.1954 228.326 33.3502C228.466 33.5051 228.536 33.695 228.536 33.9198C228.536 34.1447 228.466 34.332 228.326 34.4819C228.186 34.6318 227.981 34.7067 227.711 34.7067C227.441 34.7067 227.237 34.6318 227.097 34.4819C226.962 34.332 226.894 34.1447 226.894 33.9198Z" fill="white"/>
<path d="M89.4223 44.3296C88.3231 44.3296 87.4288 43.9698 86.7393 43.2504C86.0498 42.5259 85.7051 41.5591 85.7051 40.35V40.0952C85.7051 39.2908 85.8575 38.5739 86.1622 37.9443C86.472 37.3098 86.9017 36.8152 87.4513 36.4604C88.0059 36.1007 88.6054 35.9208 89.2499 35.9208C90.3042 35.9208 91.1236 36.2681 91.7081 36.9626C92.2927 37.657 92.585 38.6513 92.585 39.9453V40.5224H87.0916C87.1115 41.3218 87.3439 41.9688 87.7885 42.4635C88.2382 42.9531 88.8078 43.1979 89.4973 43.1979C89.9869 43.1979 90.4016 43.098 90.7413 42.8981C91.0811 42.6983 91.3784 42.4335 91.6332 42.1037L92.48 42.7632C91.8005 43.8075 90.7813 44.3296 89.4223 44.3296ZM89.2499 37.06C88.6904 37.06 88.2207 37.2648 87.841 37.6745C87.4613 38.0792 87.2265 38.6488 87.1365 39.3833H91.1985V39.2783C91.1585 38.5739 90.9687 38.0293 90.6289 37.6446C90.2892 37.2548 89.8295 37.06 89.2499 37.06ZM91.5133 34.7217V34.7967H90.3666L89.2425 33.5226L88.1258 34.7967H86.9791V34.7067L88.8228 32.6683H89.6621L91.5133 34.7217ZM96.2403 40.425L95.371 41.3318V44.1797H93.9845V32.6683H95.371V39.6306L96.1129 38.7387L98.6385 36.0707H100.325L97.1696 39.4582L100.692 44.1797H99.0657L96.2403 40.425ZM108.717 42.2686L110.275 36.0707H111.662L109.301 44.1797H108.177L106.206 38.0343L104.287 44.1797H103.163L100.81 36.0707H102.189L103.785 42.1412L105.674 36.0707H106.791L108.717 42.2686ZM117.865 44.1797C117.785 44.0198 117.72 43.735 117.671 43.3253C117.026 43.9948 116.257 44.3296 115.362 44.3296C114.563 44.3296 113.906 44.1047 113.391 43.6551C112.882 43.2004 112.627 42.6258 112.627 41.9314C112.627 41.087 112.947 40.4325 113.586 39.9678C114.231 39.4982 115.135 39.2633 116.299 39.2633H117.648V38.6263C117.648 38.1417 117.503 37.757 117.213 37.4722C116.924 37.1824 116.496 37.0375 115.932 37.0375C115.437 37.0375 115.022 37.1624 114.688 37.4122C114.353 37.662 114.186 37.9643 114.186 38.319H112.792C112.792 37.9144 112.934 37.5246 113.219 37.1499C113.509 36.7702 113.898 36.4704 114.388 36.2506C114.883 36.0308 115.425 35.9208 116.014 35.9208C116.949 35.9208 117.68 36.1557 118.21 36.6253C118.74 37.09 119.015 37.732 119.034 38.5514V42.2836C119.034 43.028 119.129 43.6201 119.319 44.0598V44.1797H117.865ZM115.565 43.123C115.999 43.123 116.411 43.0106 116.801 42.7857C117.191 42.5609 117.473 42.2686 117.648 41.9089V40.2451H116.561C114.863 40.2451 114.013 40.7422 114.013 41.7365C114.013 42.1712 114.158 42.5109 114.448 42.7557C114.738 43.0006 115.11 43.123 115.565 43.123Z" fill="white"/>
<path d="M306.248 36.0707L306.285 36.9701C306.88 36.2706 307.682 35.9208 308.691 35.9208C309.825 35.9208 310.597 36.3555 311.007 37.2249C311.276 36.8352 311.626 36.5204 312.056 36.2806C312.491 36.0407 313.003 35.9208 313.592 35.9208C315.371 35.9208 316.275 36.8626 316.305 38.7462V44.1797H314.919V38.8287C314.919 38.2491 314.786 37.8169 314.522 37.5321C314.257 37.2424 313.812 37.0975 313.188 37.0975C312.673 37.0975 312.246 37.2523 311.906 37.5621C311.566 37.8669 311.369 38.2791 311.314 38.7987V44.1797H309.92V38.8661C309.92 37.687 309.343 37.0975 308.189 37.0975C307.279 37.0975 306.657 37.4847 306.323 38.2591V44.1797H304.936V36.0707H306.248ZM323.191 44.1797C323.111 44.0198 323.046 43.735 322.996 43.3253C322.351 43.9948 321.582 44.3296 320.688 44.3296C319.888 44.3296 319.231 44.1047 318.716 43.6551C318.207 43.2004 317.952 42.6258 317.952 41.9314C317.952 41.087 318.272 40.4325 318.911 39.9678C319.556 39.4982 320.46 39.2633 321.624 39.2633H322.973V38.6263C322.973 38.1417 322.828 37.757 322.539 37.4722C322.249 37.1824 321.822 37.0375 321.257 37.0375C320.762 37.0375 320.348 37.1624 320.013 37.4122C319.678 37.662 319.511 37.9643 319.511 38.319H318.117C318.117 37.9144 318.259 37.5246 318.544 37.1499C318.834 36.7702 319.224 36.4704 319.713 36.2506C320.208 36.0308 320.75 35.9208 321.34 35.9208C322.274 35.9208 323.006 36.1557 323.535 36.6253C324.065 37.09 324.34 37.732 324.36 38.5514V42.2836C324.36 43.028 324.455 43.6201 324.645 44.0598V44.1797H323.191ZM320.89 43.123C321.325 43.123 321.737 43.0106 322.126 42.7857C322.516 42.5609 322.798 42.2686 322.973 41.9089V40.2451H321.887C320.188 40.2451 319.339 40.7422 319.339 41.7365C319.339 42.1712 319.483 42.5109 319.773 42.7557C320.063 43.0006 320.435 43.123 320.89 43.123ZM323.76 34.7217V34.7967H322.614L321.489 33.5226L320.373 34.7967H319.226V34.7067L321.07 32.6683H321.909L323.76 34.7217ZM328.577 40.425L327.708 41.3318V44.1797H326.321V32.6683H327.708V39.6306L328.45 38.7387L330.975 36.0707H332.662L329.507 39.4582L333.029 44.1797H331.403L328.577 40.425ZM338.88 44.1797C338.8 44.0198 338.735 43.735 338.685 43.3253C338.041 43.9948 337.271 44.3296 336.377 44.3296C335.578 44.3296 334.921 44.1047 334.406 43.6551C333.896 43.2004 333.642 42.6258 333.642 41.9314C333.642 41.087 333.961 40.4325 334.601 39.9678C335.245 39.4982 336.15 39.2633 337.314 39.2633H338.663V38.6263C338.663 38.1417 338.518 37.757 338.228 37.4722C337.938 37.1824 337.511 37.0375 336.947 37.0375C336.452 37.0375 336.037 37.1624 335.702 37.4122C335.368 37.662 335.2 37.9643 335.2 38.319H333.806C333.806 37.9144 333.949 37.5246 334.234 37.1499C334.523 36.7702 334.913 36.4704 335.403 36.2506C335.897 36.0308 336.439 35.9208 337.029 35.9208C337.963 35.9208 338.695 36.1557 339.225 36.6253C339.754 37.09 340.029 37.732 340.049 38.5514V42.2836C340.049 43.028 340.144 43.6201 340.334 44.0598V44.1797H338.88ZM336.579 43.123C337.014 43.123 337.426 43.0106 337.816 42.7857C338.206 42.5609 338.488 42.2686 338.663 41.9089V40.2451H337.576C335.877 40.2451 335.028 40.7422 335.028 41.7365C335.028 42.1712 335.173 42.5109 335.463 42.7557C335.752 43.0006 336.125 43.123 336.579 43.123Z" fill="white"/>
</g>
<defs>
<filter id="filter0_d" x="0.901047" y="-4.04948" width="422.198" height="326.607" filterUnits="userSpaceOnUse" color-interpolation-filters="sRGB">
<feFlood flood-opacity="0" result="BackgroundImageFix"/>
<feColorMatrix in="SourceAlpha" type="matrix" values="0 0 0 0 0 0 0 0 0 0 0 0 0 0 0 0 0 0 127 0"/>
<feOffset dy="21.0495"/>
<feGaussianBlur stdDeviation="21.0495"/>
<feColorMatrix type="matrix" values="0 0 0 0 0 0 0 0 0 0 0 0 0 0 0 0 0 0 0.15 0"/>
<feBlend mode="normal" in2="BackgroundImageFix" result="effect1_dropShadow"/>
<feBlend mode="normal" in="SourceGraphic" in2="effect1_dropShadow" result="shape"/>
</filter>
<filter id="filter1_d" x="51.0834" y="68.7704" width="26.3118" height="34.2054" filterUnits="userSpaceOnUse" color-interpolation-filters="sRGB">
<feFlood flood-opacity="0" result="BackgroundImageFix"/>
<feColorMatrix in="SourceAlpha" type="matrix" values="0 0 0 0 0 0 0 0 0 0 0 0 0 0 0 0 0 0 127 0"/>
<feOffset dy="0.877061"/>
<feColorMatrix type="matrix" values="0 0 0 0 0 0 0 0 0 0 0 0 0 0 0 0 0 0 0.4 0"/>
<feBlend mode="normal" in2="BackgroundImageFix" result="effect1_dropShadow"/>
<feBlend mode="normal" in="SourceGraphic" in2="effect1_dropShadow" result="shape"/>
</filter>
<filter id="filter2_d" x="83.9732" y="68.7704" width="26.3118" height="34.2054" filterUnits="userSpaceOnUse" color-interpolation-filters="sRGB">
<feFlood flood-opacity="0" result="BackgroundImageFix"/>
<feColorMatrix in="SourceAlpha" type="matrix" values="0 0 0 0 0 0 0 0 0 0 0 0 0 0 0 0 0 0 127 0"/>
<feOffset dy="0.877061"/>
<feColorMatrix type="matrix" values="0 0 0 0 0 0 0 0 0 0 0 0 0 0 0 0 0 0 0.4 0"/>
<feBlend mode="normal" in2="BackgroundImageFix" result="effect1_dropShadow"/>
<feBlend mode="normal" in="SourceGraphic" in2="effect1_dropShadow" result="shape"/>
</filter>
<filter id="filter3_d" x="116.863" y="68.7704" width="26.3118" height="34.2054" filterUnits="userSpaceOnUse" color-interpolation-filters="sRGB">
<feFlood flood-opacity="0" result="BackgroundImageFix"/>
<feColorMatrix in="SourceAlpha" type="matrix" values="0 0 0 0 0 0 0 0 0 0 0 0 0 0 0 0 0 0 127 0"/>
<feOffset dy="0.877061"/>
<feColorMatrix type="matrix" values="0 0 0 0 0 0 0 0 0 0 0 0 0 0 0 0 0 0 0.4 0"/>
<feBlend mode="normal" in2="BackgroundImageFix" result="effect1_dropShadow"/>
<feBlend mode="normal" in="SourceGraphic" in2="effect1_dropShadow" result="shape"/>
</filter>
<filter id="filter4_d" x="149.753" y="68.7704" width="26.3118" height="34.2054" filterUnits="userSpaceOnUse" color-interpolation-filters="sRGB">
<feFlood flood-opacity="0" result="BackgroundImageFix"/>
<feColorMatrix in="SourceAlpha" type="matrix" values="0 0 0 0 0 0 0 0 0 0 0 0 0 0 0 0 0 0 127 0"/>
<feOffset dy="0.877061"/>
<feColorMatrix type="matrix" values="0 0 0 0 0 0 0 0 0 0 0 0 0 0 0 0 0 0 0.4 0"/>
<feBlend mode="normal" in2="BackgroundImageFix" result="effect1_dropShadow"/>
<feBlend mode="normal" in="SourceGraphic" in2="effect1_dropShadow" result="shape"/>
</filter>
<filter id="filter5_d" x="182.643" y="68.7704" width="26.3118" height="34.2054" filterUnits="userSpaceOnUse" color-interpolation-filters="sRGB">
<feFlood flood-opacity="0" result="BackgroundImageFix"/>
<feColorMatrix in="SourceAlpha" type="matrix" values="0 0 0 0 0 0 0 0 0 0 0 0 0 0 0 0 0 0 127 0"/>
<feOffset dy="0.877061"/>
<feColorMatrix type="matrix" values="0 0 0 0 0 0 0 0 0 0 0 0 0 0 0 0 0 0 0.4 0"/>
<feBlend mode="normal" in2="BackgroundImageFix" result="effect1_dropShadow"/>
<feBlend mode="normal" in="SourceGraphic" in2="effect1_dropShadow" result="shape"/>
</filter>
<filter id="filter6_d" x="215.532" y="68.7704" width="26.3118" height="34.2054" filterUnits="userSpaceOnUse" color-interpolation-filters="sRGB">
<feFlood flood-opacity="0" result="BackgroundImageFix"/>
<feColorMatrix in="SourceAlpha" type="matrix" values="0 0 0 0 0 0 0 0 0 0 0 0 0 0 0 0 0 0 127 0"/>
<feOffset dy="0.877061"/>
<feColorMatrix type="matrix" values="0 0 0 0 0 0 0 0 0 0 0 0 0 0 0 0 0 0 0.4 0"/>
<feBlend mode="normal" in2="BackgroundImageFix" result="effect1_dropShadow"/>
<feBlend mode="normal" in="SourceGraphic" in2="effect1_dropShadow" result="shape"/>
</filter>
<filter id="filter7_d" x="248.422" y="68.7704" width="26.3118" height="34.2054" filterUnits="userSpaceOnUse" color-interpolation-filters="sRGB">
<feFlood flood-opacity="0" result="BackgroundImageFix"/>
<feColorMatrix in="SourceAlpha" type="matrix" values="0 0 0 0 0 0 0 0 0 0 0 0 0 0 0 0 0 0 127 0"/>
<feOffset dy="0.877061"/>
<feColorMatrix type="matrix" values="0 0 0 0 0 0 0 0 0 0 0 0 0 0 0 0 0 0 0.4 0"/>
<feBlend mode="normal" in2="BackgroundImageFix" result="effect1_dropShadow"/>
<feBlend mode="normal" in="SourceGraphic" in2="effect1_dropShadow" result="shape"/>
</filter>
<filter id="filter8_d" x="281.312" y="68.7704" width="26.3118" height="34.2054" filterUnits="userSpaceOnUse" color-interpolation-filters="sRGB">
<feFlood flood-opacity="0" result="BackgroundImageFix"/>
<feColorMatrix in="SourceAlpha" type="matrix" values="0 0 0 0 0 0 0 0 0 0 0 0 0 0 0 0 0 0 127 0"/>
<feOffset dy="0.877061"/>
<feColorMatrix type="matrix" values="0 0 0 0 0 0 0 0 0 0 0 0 0 0 0 0 0 0 0.4 0"/>
<feBlend mode="normal" in2="BackgroundImageFix" result="effect1_dropShadow"/>
<feBlend mode="normal" in="SourceGraphic" in2="effect1_dropShadow" result="shape"/>
</filter>
<filter id="filter9_d" x="314.202" y="68.7704" width="26.3118" height="34.2054" filterUnits="userSpaceOnUse" color-interpolation-filters="sRGB">
<feFlood flood-opacity="0" result="BackgroundImageFix"/>
<feColorMatrix in="SourceAlpha" type="matrix" values="0 0 0 0 0 0 0 0 0 0 0 0 0 0 0 0 0 0 127 0"/>
<feOffset dy="0.877061"/>
<feColorMatrix type="matrix" values="0 0 0 0 0 0 0 0 0 0 0 0 0 0 0 0 0 0 0.4 0"/>
<feBlend mode="normal" in2="BackgroundImageFix" result="effect1_dropShadow"/>
<feBlend mode="normal" in="SourceGraphic" in2="effect1_dropShadow" result="shape"/>
</filter>
<filter id="filter10_d" x="347.092" y="68.7704" width="26.3118" height="34.2054" filterUnits="userSpaceOnUse" color-interpolation-filters="sRGB">
<feFlood flood-opacity="0" result="BackgroundImageFix"/>
<feColorMatrix in="SourceAlpha" type="matrix" values="0 0 0 0 0 0 0 0 0 0 0 0 0 0 0 0 0 0 127 0"/>
<feOffset dy="0.877061"/>
<feColorMatrix type="matrix" values="0 0 0 0 0 0 0 0 0 0 0 0 0 0 0 0 0 0 0.4 0"/>
<feBlend mode="normal" in2="BackgroundImageFix" result="effect1_dropShadow"/>
<feBlend mode="normal" in="SourceGraphic" in2="effect1_dropShadow" result="shape"/>
</filter>
<filter id="filter11_d" x="67.5283" y="116.132" width="26.3118" height="34.2054" filterUnits="userSpaceOnUse" color-interpolation-filters="sRGB">
<feFlood flood-opacity="0" result="BackgroundImageFix"/>
<feColorMatrix in="SourceAlpha" type="matrix" values="0 0 0 0 0 0 0 0 0 0 0 0 0 0 0 0 0 0 127 0"/>
<feOffset dy="0.877061"/>
<feColorMatrix type="matrix" values="0 0 0 0 0 0 0 0 0 0 0 0 0 0 0 0 0 0 0.4 0"/>
<feBlend mode="normal" in2="BackgroundImageFix" result="effect1_dropShadow"/>
<feBlend mode="normal" in="SourceGraphic" in2="effect1_dropShadow" result="shape"/>
</filter>
<filter id="filter12_d" x="100.418" y="116.132" width="26.3118" height="34.2054" filterUnits="userSpaceOnUse" color-interpolation-filters="sRGB">
<feFlood flood-opacity="0" result="BackgroundImageFix"/>
<feColorMatrix in="SourceAlpha" type="matrix" values="0 0 0 0 0 0 0 0 0 0 0 0 0 0 0 0 0 0 127 0"/>
<feOffset dy="0.877061"/>
<feColorMatrix type="matrix" values="0 0 0 0 0 0 0 0 0 0 0 0 0 0 0 0 0 0 0.4 0"/>
<feBlend mode="normal" in2="BackgroundImageFix" result="effect1_dropShadow"/>
<feBlend mode="normal" in="SourceGraphic" in2="effect1_dropShadow" result="shape"/>
</filter>
<filter id="filter13_d" x="133.308" y="116.132" width="26.3118" height="34.2054" filterUnits="userSpaceOnUse" color-interpolation-filters="sRGB">
<feFlood flood-opacity="0" result="BackgroundImageFix"/>
<feColorMatrix in="SourceAlpha" type="matrix" values="0 0 0 0 0 0 0 0 0 0 0 0 0 0 0 0 0 0 127 0"/>
<feOffset dy="0.877061"/>
<feColorMatrix type="matrix" values="0 0 0 0 0 0 0 0 0 0 0 0 0 0 0 0 0 0 0.4 0"/>
<feBlend mode="normal" in2="BackgroundImageFix" result="effect1_dropShadow"/>
<feBlend mode="normal" in="SourceGraphic" in2="effect1_dropShadow" result="shape"/>
</filter>
<filter id="filter14_d" x="166.198" y="116.132" width="26.3118" height="34.2054" filterUnits="userSpaceOnUse" color-interpolation-filters="sRGB">
<feFlood flood-opacity="0" result="BackgroundImageFix"/>
<feColorMatrix in="SourceAlpha" type="matrix" values="0 0 0 0 0 0 0 0 0 0 0 0 0 0 0 0 0 0 127 0"/>
<feOffset dy="0.877061"/>
<feColorMatrix type="matrix" values="0 0 0 0 0 0 0 0 0 0 0 0 0 0 0 0 0 0 0.4 0"/>
<feBlend mode="normal" in2="BackgroundImageFix" result="effect1_dropShadow"/>
<feBlend mode="normal" in="SourceGraphic" in2="effect1_dropShadow" result="shape"/>
</filter>
<filter id="filter15_d" x="199.088" y="116.132" width="26.3118" height="34.2054" filterUnits="userSpaceOnUse" color-interpolation-filters="sRGB">
<feFlood flood-opacity="0" result="BackgroundImageFix"/>
<feColorMatrix in="SourceAlpha" type="matrix" values="0 0 0 0 0 0 0 0 0 0 0 0 0 0 0 0 0 0 127 0"/>
<feOffset dy="0.877061"/>
<feColorMatrix type="matrix" values="0 0 0 0 0 0 0 0 0 0 0 0 0 0 0 0 0 0 0.4 0"/>
<feBlend mode="normal" in2="BackgroundImageFix" result="effect1_dropShadow"/>
<feBlend mode="normal" in="SourceGraphic" in2="effect1_dropShadow" result="shape"/>
</filter>
<filter id="filter16_d" x="231.977" y="116.132" width="26.3118" height="34.2054" filterUnits="userSpaceOnUse" color-interpolation-filters="sRGB">
<feFlood flood-opacity="0" result="BackgroundImageFix"/>
<feColorMatrix in="SourceAlpha" type="matrix" values="0 0 0 0 0 0 0 0 0 0 0 0 0 0 0 0 0 0 127 0"/>
<feOffset dy="0.877061"/>
<feColorMatrix type="matrix" values="0 0 0 0 0 0 0 0 0 0 0 0 0 0 0 0 0 0 0.4 0"/>
<feBlend mode="normal" in2="BackgroundImageFix" result="effect1_dropShadow"/>
<feBlend mode="normal" in="SourceGraphic" in2="effect1_dropShadow" result="shape"/>
</filter>
<filter id="filter17_d" x="264.867" y="116.132" width="26.3118" height="34.2054" filterUnits="userSpaceOnUse" color-interpolation-filters="sRGB">
<feFlood flood-opacity="0" result="BackgroundImageFix"/>
<feColorMatrix in="SourceAlpha" type="matrix" values="0 0 0 0 0 0 0 0 0 0 0 0 0 0 0 0 0 0 127 0"/>
<feOffset dy="0.877061"/>
<feColorMatrix type="matrix" values="0 0 0 0 0 0 0 0 0 0 0 0 0 0 0 0 0 0 0.4 0"/>
<feBlend mode="normal" in2="BackgroundImageFix" result="effect1_dropShadow"/>
<feBlend mode="normal" in="SourceGraphic" in2="effect1_dropShadow" result="shape"/>
</filter>
<filter id="filter18_d" x="297.757" y="116.132" width="26.3118" height="34.2054" filterUnits="userSpaceOnUse" color-interpolation-filters="sRGB">
<feFlood flood-opacity="0" result="BackgroundImageFix"/>
<feColorMatrix in="SourceAlpha" type="matrix" values="0 0 0 0 0 0 0 0 0 0 0 0 0 0 0 0 0 0 127 0"/>
<feOffset dy="0.877061"/>
<feColorMatrix type="matrix" values="0 0 0 0 0 0 0 0 0 0 0 0 0 0 0 0 0 0 0.4 0"/>
<feBlend mode="normal" in2="BackgroundImageFix" result="effect1_dropShadow"/>
<feBlend mode="normal" in="SourceGraphic" in2="effect1_dropShadow" result="shape"/>
</filter>
<filter id="filter19_d" x="330.647" y="116.132" width="26.3118" height="34.2054" filterUnits="userSpaceOnUse" color-interpolation-filters="sRGB">
<feFlood flood-opacity="0" result="BackgroundImageFix"/>
<feColorMatrix in="SourceAlpha" type="matrix" values="0 0 0 0 0 0 0 0 0 0 0 0 0 0 0 0 0 0 127 0"/>
<feOffset dy="0.877061"/>
<feColorMatrix type="matrix" values="0 0 0 0 0 0 0 0 0 0 0 0 0 0 0 0 0 0 0.4 0"/>
<feBlend mode="normal" in2="BackgroundImageFix" result="effect1_dropShadow"/>
<feBlend mode="normal" in="SourceGraphic" in2="effect1_dropShadow" result="shape"/>
</filter>
<filter id="filter20_d" x="100.418" y="163.493" width="26.3118" height="34.2054" filterUnits="userSpaceOnUse" color-interpolation-filters="sRGB">
<feFlood flood-opacity="0" result="BackgroundImageFix"/>
<feColorMatrix in="SourceAlpha" type="matrix" values="0 0 0 0 0 0 0 0 0 0 0 0 0 0 0 0 0 0 127 0"/>
<feOffset dy="0.877061"/>
<feColorMatrix type="matrix" values="0 0 0 0 0 0 0 0 0 0 0 0 0 0 0 0 0 0 0.4 0"/>
<feBlend mode="normal" in2="BackgroundImageFix" result="effect1_dropShadow"/>
<feBlend mode="normal" in="SourceGraphic" in2="effect1_dropShadow" result="shape"/>
</filter>
<filter id="filter21_d" x="133.308" y="163.493" width="26.3118" height="34.2054" filterUnits="userSpaceOnUse" color-interpolation-filters="sRGB">
<feFlood flood-opacity="0" result="BackgroundImageFix"/>
<feColorMatrix in="SourceAlpha" type="matrix" values="0 0 0 0 0 0 0 0 0 0 0 0 0 0 0 0 0 0 127 0"/>
<feOffset dy="0.877061"/>
<feColorMatrix type="matrix" values="0 0 0 0 0 0 0 0 0 0 0 0 0 0 0 0 0 0 0.4 0"/>
<feBlend mode="normal" in2="BackgroundImageFix" result="effect1_dropShadow"/>
<feBlend mode="normal" in="SourceGraphic" in2="effect1_dropShadow" result="shape"/>
</filter>
<filter id="filter22_d" x="166.198" y="163.493" width="26.3118" height="34.2054" filterUnits="userSpaceOnUse" color-interpolation-filters="sRGB">
<feFlood flood-opacity="0" result="BackgroundImageFix"/>
<feColorMatrix in="SourceAlpha" type="matrix" values="0 0 0 0 0 0 0 0 0 0 0 0 0 0 0 0 0 0 127 0"/>
<feOffset dy="0.877061"/>
<feColorMatrix type="matrix" values="0 0 0 0 0 0 0 0 0 0 0 0 0 0 0 0 0 0 0.4 0"/>
<feBlend mode="normal" in2="BackgroundImageFix" result="effect1_dropShadow"/>
<feBlend mode="normal" in="SourceGraphic" in2="effect1_dropShadow" result="shape"/>
</filter>
<filter id="filter23_d" x="199.088" y="163.493" width="26.3118" height="34.2054" filterUnits="userSpaceOnUse" color-interpolation-filters="sRGB">
<feFlood flood-opacity="0" result="BackgroundImageFix"/>
<feColorMatrix in="SourceAlpha" type="matrix" values="0 0 0 0 0 0 0 0 0 0 0 0 0 0 0 0 0 0 127 0"/>
<feOffset dy="0.877061"/>
<feColorMatrix type="matrix" values="0 0 0 0 0 0 0 0 0 0 0 0 0 0 0 0 0 0 0.4 0"/>
<feBlend mode="normal" in2="BackgroundImageFix" result="effect1_dropShadow"/>
<feBlend mode="normal" in="SourceGraphic" in2="effect1_dropShadow" result="shape"/>
</filter>
<filter id="filter24_d" x="231.977" y="163.493" width="26.3118" height="34.2054" filterUnits="userSpaceOnUse" color-interpolation-filters="sRGB">
<feFlood flood-opacity="0" result="BackgroundImageFix"/>
<feColorMatrix in="SourceAlpha" type="matrix" values="0 0 0 0 0 0 0 0 0 0 0 0 0 0 0 0 0 0 127 0"/>
<feOffset dy="0.877061"/>
<feColorMatrix type="matrix" values="0 0 0 0 0 0 0 0 0 0 0 0 0 0 0 0 0 0 0.4 0"/>
<feBlend mode="normal" in2="BackgroundImageFix" result="effect1_dropShadow"/>
<feBlend mode="normal" in="SourceGraphic" in2="effect1_dropShadow" result="shape"/>
</filter>
<filter id="filter25_d" x="264.867" y="163.493" width="26.3118" height="34.2054" filterUnits="userSpaceOnUse" color-interpolation-filters="sRGB">
<feFlood flood-opacity="0" result="BackgroundImageFix"/>
<feColorMatrix in="SourceAlpha" type="matrix" values="0 0 0 0 0 0 0 0 0 0 0 0 0 0 0 0 0 0 127 0"/>
<feOffset dy="0.877061"/>
<feColorMatrix type="matrix" values="0 0 0 0 0 0 0 0 0 0 0 0 0 0 0 0 0 0 0.4 0"/>
<feBlend mode="normal" in2="BackgroundImageFix" result="effect1_dropShadow"/>
<feBlend mode="normal" in="SourceGraphic" in2="effect1_dropShadow" result="shape"/>
</filter>
<filter id="filter26_d" x="297.757" y="163.493" width="26.3118" height="34.2054" filterUnits="userSpaceOnUse" color-interpolation-filters="sRGB">
<feFlood flood-opacity="0" result="BackgroundImageFix"/>
<feColorMatrix in="SourceAlpha" type="matrix" values="0 0 0 0 0 0 0 0 0 0 0 0 0 0 0 0 0 0 127 0"/>
<feOffset dy="0.877061"/>
<feColorMatrix type="matrix" values="0 0 0 0 0 0 0 0 0 0 0 0 0 0 0 0 0 0 0.4 0"/>
<feBlend mode="normal" in2="BackgroundImageFix" result="effect1_dropShadow"/>
<feBlend mode="normal" in="SourceGraphic" in2="effect1_dropShadow" result="shape"/>
</filter>
<filter id="filter27_d" x="133" y="210.409" width="26.3118" height="34.2054" filterUnits="userSpaceOnUse" color-interpolation-filters="sRGB">
<feFlood flood-opacity="0" result="BackgroundImageFix"/>
<feColorMatrix in="SourceAlpha" type="matrix" values="0 0 0 0 0 0 0 0 0 0 0 0 0 0 0 0 0 0 127 0"/>
<feOffset dy="0.877061"/>
<feColorMatrix type="matrix" values="0 0 0 0 0 0 0 0 0 0 0 0 0 0 0 0 0 0 0.4 0"/>
<feBlend mode="normal" in2="BackgroundImageFix" result="effect1_dropShadow"/>
<feBlend mode="normal" in="SourceGraphic" in2="effect1_dropShadow" result="shape"/>
</filter>
<filter id="filter28_d" x="167" y="210.409" width="125.42" height="34.2054" filterUnits="userSpaceOnUse" color-interpolation-filters="sRGB">
<feFlood flood-opacity="0" result="BackgroundImageFix"/>
<feColorMatrix in="SourceAlpha" type="matrix" values="0 0 0 0 0 0 0 0 0 0 0 0 0 0 0 0 0 0 127 0"/>
<feOffset dy="0.877061"/>
<feColorMatrix type="matrix" values="0 0 0 0 0 0 0 0 0 0 0 0 0 0 0 0 0 0 0.4 0"/>
<feBlend mode="normal" in2="BackgroundImageFix" result="effect1_dropShadow"/>
<feBlend mode="normal" in="SourceGraphic" in2="effect1_dropShadow" result="shape"/>
</filter>
<filter id="filter29_d" x="336.814" y="163.493" width="37.001" height="34.2054" filterUnits="userSpaceOnUse" color-interpolation-filters="sRGB">
<feFlood flood-opacity="0" result="BackgroundImageFix"/>
<feColorMatrix in="SourceAlpha" type="matrix" values="0 0 0 0 0 0 0 0 0 0 0 0 0 0 0 0 0 0 127 0"/>
<feOffset dy="0.877061"/>
<feColorMatrix type="matrix" values="0 0 0 0 0 0 0 0 0 0 0 0 0 0 0 0 0 0 0.4 0"/>
<feBlend mode="normal" in2="BackgroundImageFix" result="effect1_dropShadow"/>
<feBlend mode="normal" in="SourceGraphic" in2="effect1_dropShadow" result="shape"/>
</filter>
<filter id="filter30_d" x="51.0834" y="163.493" width="37.001" height="34.2054" filterUnits="userSpaceOnUse" color-interpolation-filters="sRGB">
<feFlood flood-opacity="0" result="BackgroundImageFix"/>
<feColorMatrix in="SourceAlpha" type="matrix" values="0 0 0 0 0 0 0 0 0 0 0 0 0 0 0 0 0 0 127 0"/>
<feOffset dy="0.877061"/>
<feColorMatrix type="matrix" values="0 0 0 0 0 0 0 0 0 0 0 0 0 0 0 0 0 0 0.4 0"/>
<feBlend mode="normal" in2="BackgroundImageFix" result="effect1_dropShadow"/>
<feBlend mode="normal" in="SourceGraphic" in2="effect1_dropShadow" result="shape"/>
</filter>
<filter id="filter31_d" x="51.0834" y="210.854" width="34.9454" height="34.2054" filterUnits="userSpaceOnUse" color-interpolation-filters="sRGB">
<feFlood flood-opacity="0" result="BackgroundImageFix"/>
<feColorMatrix in="SourceAlpha" type="matrix" values="0 0 0 0 0 0 0 0 0 0 0 0 0 0 0 0 0 0 127 0"/>
<feOffset dy="0.877061"/>
<feColorMatrix type="matrix" values="0 0 0 0 0 0 0 0 0 0 0 0 0 0 0 0 0 0 0.4 0"/>
<feBlend mode="normal" in2="BackgroundImageFix" result="effect1_dropShadow"/>
<feBlend mode="normal" in="SourceGraphic" in2="effect1_dropShadow" result="shape"/>
</filter>
<filter id="filter32_d" x="92.1957" y="210.854" width="34.9454" height="34.2054" filterUnits="userSpaceOnUse" color-interpolation-filters="sRGB">
<feFlood flood-opacity="0" result="BackgroundImageFix"/>
<feColorMatrix in="SourceAlpha" type="matrix" values="0 0 0 0 0 0 0 0 0 0 0 0 0 0 0 0 0 0 127 0"/>
<feOffset dy="0.877061"/>
<feColorMatrix type="matrix" values="0 0 0 0 0 0 0 0 0 0 0 0 0 0 0 0 0 0 0.4 0"/>
<feBlend mode="normal" in2="BackgroundImageFix" result="effect1_dropShadow"/>
<feBlend mode="normal" in="SourceGraphic" in2="effect1_dropShadow" result="shape"/>
</filter>
<filter id="filter33_d" x="297.757" y="210.854" width="76.0577" height="34.2054" filterUnits="userSpaceOnUse" color-interpolation-filters="sRGB">
<feFlood flood-opacity="0" result="BackgroundImageFix"/>
<feColorMatrix in="SourceAlpha" type="matrix" values="0 0 0 0 0 0 0 0 0 0 0 0 0 0 0 0 0 0 127 0"/>
<feOffset dy="0.877061"/>
<feColorMatrix type="matrix" values="0 0 0 0 0 0 0 0 0 0 0 0 0 0 0 0 0 0 0.4 0"/>
<feBlend mode="normal" in2="BackgroundImageFix" result="effect1_dropShadow"/>
<feBlend mode="normal" in="SourceGraphic" in2="effect1_dropShadow" result="shape"/>
</filter>
</defs>
</svg>
