<?xml version="1.0" encoding="utf-8"?>
<svg viewBox="0 0 500 500" xmlns="http://www.w3.org/2000/svg">
  <rect style="fill: rgb(0, 153, 255);" width="500" height="500" rx="50" ry="50"/>
  <path d="M 147.784 150.368 C 150.337 153.348 152.147 155.581 153.214 157.068 C 161.087 166.435 166.777 174.468 170.284 181.168 C 173.797 187.868 175.554 196.431 175.554 206.858 C 175.554 217.071 173.481 227.338 169.334 237.658 C 165.181 247.978 159.221 256.808 151.454 264.148 C 143.687 271.488 134.487 276.225 123.854 278.358 C 110.874 281.118 99.807 282.498 90.654 282.498 C 84.487 282.498 78.424 282.181 72.464 281.548 L 62.894 281.228 L 62.894 283.778 C 62.894 284.631 62.681 285.325 62.254 285.858 C 61.827 286.385 61.401 287.181 60.974 288.248 L 60.974 354.948 C 60.974 354.948 60.337 355.588 59.064 356.868 C 54.591 356.868 49.641 356.178 44.214 354.798 C 38.794 353.411 34.594 351.548 31.614 349.208 C 31.614 336.868 30.867 321.975 29.374 304.528 C 28.101 284.948 27.464 270.265 27.464 260.478 C 27.464 256.225 27.887 250.481 28.734 243.248 C 29.374 238.988 29.694 235.371 29.694 232.398 C 29.694 228.991 29.324 226.171 28.584 223.938 C 27.837 221.705 27.464 220.161 27.464 219.308 C 27.464 218.455 27.837 217.285 28.584 215.798 C 29.324 214.311 29.694 211.758 29.694 208.138 C 29.694 206.225 29.271 204.205 28.424 202.078 C 27.571 199.945 27.144 198.561 27.144 197.928 C 27.144 195.795 27.571 192.815 28.424 188.988 C 29.271 185.155 29.694 182.281 29.694 180.368 C 29.694 177.601 29.164 175.741 28.104 174.788 C 27.037 173.828 25.601 173.188 23.794 172.868 C 21.981 172.548 21.074 171.965 21.074 171.118 C 21.074 169.411 21.714 167.868 22.994 166.488 C 24.267 165.101 25.757 164.301 27.464 164.088 L 27.464 144.628 C 27.464 143.775 28.581 142.551 30.814 140.958 C 33.047 139.358 34.484 138.558 35.124 138.558 L 78.844 138.558 L 82.674 136.648 L 117.784 136.648 C 120.337 137.495 123.741 139.195 127.994 141.748 C 134.594 145.795 141.191 148.668 147.784 150.368 Z M 94.164 144.628 C 89.271 144.628 85.177 145.691 81.884 147.818 C 78.584 149.945 74.911 153.455 70.864 158.348 C 72.144 158.348 74.697 157.605 78.524 156.118 C 82.357 154.625 84.381 153.985 84.594 154.198 C 83.741 155.265 82.517 156.381 80.924 157.548 C 79.324 158.721 77.887 159.521 76.614 159.948 C 78.101 160.368 79.591 161.218 81.084 162.498 C 82.571 163.771 84.377 164.408 86.504 164.408 L 90.334 164.088 L 86.504 161.858 C 89.484 160.371 93.741 159.628 99.274 159.628 L 106.614 159.948 L 109.804 156.428 C 109.591 156.641 109.484 156.961 109.484 157.388 C 109.484 158.241 110.337 158.881 112.044 159.308 C 113.744 159.735 115.231 160.105 116.504 160.418 C 117.784 160.738 118.744 160.898 119.384 160.898 C 125.551 161.751 129.061 162.815 129.914 164.088 L 127.994 166.008 C 133.314 170.261 136.507 172.921 137.574 173.988 C 138.427 174.628 139.224 175.638 139.964 177.018 C 140.711 178.405 141.457 179.468 142.204 180.208 C 142.944 180.955 144.167 181.435 145.874 181.648 L 141.404 185.478 C 142.044 185.905 143.481 186.648 145.714 187.708 C 147.947 188.775 149.491 190.158 150.344 191.858 C 151.191 193.565 151.614 195.798 151.614 198.558 C 151.614 200.265 151.507 201.225 151.294 201.438 C 154.914 199.098 157.841 197.021 160.074 195.208 C 162.307 193.401 163.424 191.221 163.424 188.668 C 163.424 183.988 162.467 181.648 160.554 181.648 C 159.914 181.648 158.851 182.075 157.364 182.928 C 155.871 183.775 154.701 184.625 153.854 185.478 L 153.534 184.198 C 153.534 183.771 154.224 182.441 155.604 180.208 C 156.991 177.975 157.684 176.538 157.684 175.898 C 157.684 175.478 156.724 173.885 154.804 171.118 C 152.891 168.351 150.657 165.798 148.104 163.458 C 145.551 161.118 142.891 159.948 140.124 159.948 L 143.634 156.118 C 135.341 151.645 127.627 148.611 120.494 147.018 C 113.367 145.425 104.591 144.628 94.164 144.628 Z M 40.864 169.838 C 44.484 169.838 49.644 167.658 56.344 163.298 C 63.051 158.931 67.891 155.261 70.864 152.288 C 67.037 152.288 62.997 153.351 58.744 155.478 C 54.484 157.605 49.271 160.475 43.104 164.088 L 40.864 164.088 C 42.991 161.535 45.544 159.248 48.524 157.228 C 51.504 155.208 54.377 153.348 57.144 151.648 C 59.911 149.941 61.827 148.771 62.894 148.138 L 62.894 145.578 C 55.021 145.578 48.637 145.898 43.744 146.538 C 38.844 147.178 36.394 149.095 36.394 152.288 L 42.464 152.288 C 42.464 152.708 42.571 153.025 42.784 153.238 C 42.997 153.451 43.104 153.771 43.104 154.198 C 43.104 154.411 42.094 155.528 40.074 157.548 C 38.047 159.568 36.397 161.005 35.124 161.858 C 35.551 165.051 36.134 167.178 36.874 168.238 C 37.621 169.305 38.951 169.838 40.864 169.838 Z M 110.124 156.118 L 109.804 156.428 L 110.124 156.118 Z M 92.894 250.908 L 94.164 248.668 L 94.164 250.908 C 96.931 248.995 101.027 247.825 106.454 247.398 C 111.881 246.971 115.127 246.651 116.194 246.438 C 123.214 246.011 128.584 243.031 132.304 237.498 C 136.031 231.965 139.064 224.518 141.404 215.158 L 143.634 205.588 C 143.634 201.755 141.507 195.955 137.254 188.188 C 133.001 180.421 129.277 175.688 126.084 173.988 C 123.104 172.495 116.614 171.748 106.614 171.748 L 90.334 172.068 C 85.014 172.281 79.377 172.548 73.424 172.868 C 67.464 173.188 63.314 173.561 60.974 173.988 L 59.064 175.898 L 59.064 182.288 L 59.064 191.858 L 60.014 209.738 C 60.654 223.778 61.294 234.148 61.934 240.848 C 62.574 247.555 63.531 250.908 64.804 250.908 L 92.894 250.908 Z M 37.354 175.898 C 37.354 176.538 37.567 177.231 37.994 177.978 C 38.421 178.725 38.954 179.308 39.594 179.728 C 43.421 178.455 45.334 176.328 45.334 173.348 C 43.421 173.348 41.614 173.561 39.914 173.988 C 38.207 174.415 37.354 175.051 37.354 175.898 Z M 51.084 177.498 C 48.317 177.498 45.124 179.148 41.504 182.448 C 37.891 185.741 36.084 188.878 36.084 191.858 L 49.164 191.858 C 49.164 191.218 49.431 189.411 49.964 186.438 C 50.497 183.458 50.871 180.478 51.084 177.498 Z M 36.714 200.478 L 37.354 203.348 C 40.334 201.008 42.251 198.348 43.104 195.368 C 42.464 195.155 41.717 195.048 40.864 195.048 C 39.377 195.048 38.314 195.635 37.674 196.808 C 37.034 197.975 36.714 199.198 36.714 200.478 Z M 51.084 215.158 L 51.404 204.948 C 51.404 200.688 50.657 197.495 49.164 195.368 C 46.611 197.288 44.324 200.215 42.304 204.148 C 40.284 208.081 39.274 211.645 39.274 214.838 C 39.274 218.031 40.337 219.628 42.464 219.628 C 40.124 220.268 38.581 221.598 37.834 223.618 C 37.087 225.638 36.714 228.245 36.714 231.438 C 38.847 231.438 40.551 230.745 41.824 229.358 C 43.104 227.978 44.487 225.798 45.974 222.818 C 47.461 218.991 49.164 216.438 51.084 215.158 Z M 152.574 210.688 C 157.894 210.688 162.044 210.265 165.024 209.418 C 168.004 208.565 169.494 206.435 169.494 203.028 C 169.494 200.901 169.121 199.411 168.374 198.558 C 167.627 197.711 166.404 197.288 164.704 197.288 C 161.297 197.288 158.424 198.725 156.084 201.598 C 153.744 204.471 152.574 207.501 152.574 210.688 Z M 156.084 212.928 C 154.384 212.928 152.734 213.298 151.134 214.038 C 149.541 214.785 148.744 215.905 148.744 217.398 C 154.064 217.398 157.681 216.015 159.594 213.248 L 156.084 212.928 Z M 161.514 228.888 C 163.001 228.888 164.384 227.025 165.664 223.298 C 166.937 219.571 167.574 216.858 167.574 215.158 L 165.024 215.158 C 162.471 216.225 158.961 217.928 154.494 220.268 C 150.021 222.608 147.784 224.205 147.784 225.058 L 147.784 228.888 L 161.514 228.888 Z M 45.334 219.308 C 44.694 219.521 43.844 219.628 42.784 219.628 L 42.464 219.628 C 43.104 219.415 44.061 219.308 45.334 219.308 Z M 53.634 233.988 C 53.634 231.435 53.474 229.415 53.154 227.928 C 52.834 226.435 52.144 224.731 51.084 222.818 C 47.677 225.585 44.537 229.148 41.664 233.508 C 38.791 237.875 37.354 241.865 37.354 245.478 C 42.887 245.478 46.984 244.788 49.644 243.408 C 52.304 242.021 53.634 238.881 53.634 233.988 Z M 137.894 260.798 C 139.807 260.798 142.734 259.148 146.674 255.848 C 150.607 252.555 154.117 248.675 157.204 244.208 C 160.291 239.735 161.834 235.691 161.834 232.078 C 156.941 232.078 152.471 233.355 148.424 235.908 C 144.384 238.461 142.364 241.971 142.364 246.438 L 144.594 246.438 C 144.594 248.351 140.181 250.425 131.354 252.658 C 122.521 254.891 112.677 256.861 101.824 258.568 C 90.977 260.268 83.637 261.118 79.804 261.118 C 79.804 261.971 80.017 263.088 80.444 264.468 C 80.871 265.855 81.614 266.548 82.674 266.548 L 96.404 266.548 L 92.894 262.398 L 94.164 262.398 C 95.231 262.611 97.147 262.878 99.914 263.198 C 102.681 263.511 105.447 263.988 108.214 264.628 C 107.574 264.841 107.254 265.161 107.254 265.588 C 107.254 266.861 109.487 267.711 113.954 268.138 C 118.421 268.565 120.547 268.778 120.334 268.778 C 127.361 268.778 130.874 267.395 130.874 264.628 L 120.024 264.628 C 120.657 263.988 121.827 263.245 123.534 262.398 C 125.234 261.545 126.721 260.905 127.994 260.478 L 137.894 260.798 Z M 47.254 248.348 C 42.994 248.348 39.907 249.041 37.994 250.428 C 36.081 251.808 35.124 254.735 35.124 259.208 C 38.104 259.208 40.817 258.301 43.264 256.488 C 45.711 254.681 48.317 252.075 51.084 248.668 L 47.254 248.348 Z M 40.864 264.628 C 43.844 264.628 49.164 262.715 56.824 258.888 C 56.397 258.035 55.917 256.968 55.384 255.688 C 54.857 254.415 54.594 253.458 54.594 252.818 L 53.314 252.818 L 40.864 264.628 Z M 59.064 270.058 C 62.037 271.331 65.707 272.021 70.074 272.128 C 74.434 272.235 77.357 272.288 78.844 272.288 L 72.784 266.548 L 76.614 264.628 C 76.614 263.141 75.337 262.398 72.784 262.398 C 69.164 262.825 65.971 263.515 63.204 264.468 C 60.444 265.428 59.064 267.291 59.064 270.058 Z M 54.914 266.548 L 54.914 264.628 C 53.207 265.055 50.654 265.641 47.254 266.388 C 43.847 267.128 41.347 268.245 39.754 269.738 C 38.154 271.225 37.354 273.458 37.354 276.438 L 37.034 278.668 C 37.034 281.015 37.887 282.188 39.594 282.188 L 54.914 266.548 Z M 91.614 272.608 L 94.164 272.288 C 93.744 271.435 92.361 270.851 90.014 270.538 C 87.674 270.218 85.867 270.058 84.594 270.058 C 85.654 271.118 86.611 271.808 87.464 272.128 C 88.317 272.448 89.701 272.608 91.614 272.608 Z M 51.084 286.018 L 51.084 276.438 C 49.591 276.438 47.567 278.618 45.014 282.978 C 42.461 287.345 41.077 289.635 40.864 289.848 C 42.784 289.848 44.967 289.315 47.414 288.248 C 49.861 287.181 51.084 286.438 51.084 286.018 Z M 46.294 293.988 C 43.954 293.988 42.144 294.201 40.864 294.628 C 39.591 295.055 38.954 296.225 38.954 298.138 C 38.954 298.778 39.167 299.311 39.594 299.738 C 43.207 298.038 45.761 296.121 47.254 293.988 L 46.294 293.988 Z M 39.594 308.038 C 44.487 308.038 47.784 307.238 49.484 305.638 C 51.184 304.045 52.034 300.801 52.034 295.908 L 49.164 295.908 L 39.594 306.118 L 39.594 308.038 Z M 51.084 307.718 C 50.017 308.145 48.261 308.728 45.814 309.468 C 43.367 310.215 41.664 311.175 40.704 312.348 C 39.751 313.515 39.274 315.268 39.274 317.608 L 39.594 321.758 C 40.014 321.118 41.874 319.311 45.174 316.338 C 48.474 313.358 50.444 310.485 51.084 307.718 Z M 51.714 329.418 L 45.334 329.418 C 48.741 328.145 50.974 326.391 52.034 324.158 C 53.101 321.918 53.634 318.671 53.634 314.418 C 50.867 314.418 48.581 315.641 46.774 318.088 C 44.961 320.535 42.991 324.205 40.864 329.098 C 39.804 331.651 38.634 334.098 37.354 336.438 C 36.081 338.778 34.697 340.481 33.204 341.548 C 35.544 343.888 36.927 345.165 37.354 345.378 C 39.694 345.378 42.674 343.465 46.294 339.638 C 49.907 335.805 51.714 332.398 51.714 329.418 Z M 47.254 345.378 C 49.167 345.378 50.284 344.845 50.604 343.778 C 50.924 342.718 51.084 341.495 51.084 340.108 C 51.084 338.728 51.084 337.825 51.084 337.398 C 49.591 338.038 48.631 339.421 48.204 341.548 C 47.784 343.675 47.467 344.951 47.254 345.378 ZM 248.327 182.288 L 248.327 170.478 C 248.327 168.565 245.241 167.288 239.067 166.648 C 232.894 166.008 226.617 165.688 220.237 165.688 L 204.597 166.008 C 192.257 166.008 186.087 164.838 186.087 162.498 C 186.087 159.731 187.044 156.858 188.957 153.878 C 189.811 152.391 190.611 150.741 191.357 148.928 C 192.097 147.121 192.467 145.155 192.467 143.028 C 192.681 142.815 193.321 141.965 194.387 140.478 C 195.447 138.985 199.914 138.238 207.787 138.238 L 207.787 141.118 C 220.341 141.118 231.301 141.221 240.667 141.428 C 250.027 141.641 257.897 141.855 264.277 142.068 C 289.811 142.921 308.854 143.348 321.407 143.348 C 329.707 143.348 335.987 143.241 340.247 143.028 C 342.801 143.881 344.077 146.861 344.077 151.968 L 344.077 155.158 C 344.077 159.198 343.437 162.281 342.157 164.408 L 316.307 166.648 C 312.261 166.861 306.407 167.818 298.747 169.518 C 291.514 171.218 285.557 172.175 280.877 172.388 C 279.391 177.921 278.647 186.221 278.647 197.288 C 278.647 206.861 279.071 221.225 279.917 240.378 C 280.771 259.098 281.197 273.458 281.197 283.458 C 281.197 288.565 280.877 299.735 280.237 316.968 C 279.604 323.995 279.287 331.655 279.287 339.948 C 279.287 340.588 279.181 342.131 278.967 344.578 C 278.754 347.025 278.007 348.835 276.727 350.008 C 275.454 351.175 273.541 351.758 270.987 351.758 C 270.134 351.758 268.964 351.388 267.477 350.648 C 265.984 349.901 264.814 349.528 263.967 349.528 C 263.327 349.955 262.101 350.381 260.287 350.808 C 258.481 351.228 256.834 351.438 255.347 351.438 C 254.494 351.438 252.951 350.588 250.717 348.888 C 248.484 347.188 247.367 346.125 247.367 345.698 L 248.327 182.288 Z M 202.047 155.798 C 206.941 155.798 211.037 155.585 214.337 155.158 C 217.631 154.731 220.131 153.241 221.837 150.688 C 220.984 150.688 217.791 150.051 212.257 148.778 C 206.937 147.285 203.534 146.538 202.047 146.538 L 202.047 155.798 Z M 237.467 148.778 C 235.341 148.778 232.631 149.361 229.337 150.528 C 226.037 151.701 223.537 152.925 221.837 154.198 L 233.637 154.518 C 240.451 154.518 243.857 153.561 243.857 151.648 C 243.857 149.735 241.727 148.778 237.467 148.778 Z M 261.087 174.308 C 261.087 174.948 260.611 176.278 259.657 178.298 C 258.697 180.318 257.897 182.285 257.257 184.198 C 258.964 184.198 261.041 182.708 263.487 179.728 C 265.934 176.755 267.157 173.885 267.157 171.118 C 267.157 170.691 266.677 170.158 265.717 169.518 C 264.757 168.878 263.854 168.558 263.007 168.558 C 263.007 163.025 263.644 159.301 264.917 157.388 C 266.197 155.475 266.837 154.411 266.837 154.198 L 266.837 161.218 C 269.177 161.218 271.837 159.941 274.817 157.388 C 277.797 154.835 279.287 152.281 279.287 149.728 C 273.327 149.728 268.484 150.528 264.757 152.128 C 261.037 153.721 259.177 156.965 259.177 161.858 C 259.177 165.051 259.497 167.658 260.137 169.678 C 260.771 171.698 261.087 173.241 261.087 174.308 Z M 247.367 154.198 C 247.794 155.898 249.177 156.748 251.517 156.748 C 254.284 156.748 256.251 156.378 257.417 155.638 C 258.591 154.891 259.814 153.241 261.087 150.688 L 255.987 150.048 C 253.854 150.048 252.044 150.261 250.557 150.688 C 249.071 151.115 248.007 152.285 247.367 154.198 Z M 288.857 156.748 L 302.577 156.748 C 302.791 156.748 303.164 156.378 303.697 155.638 C 304.231 154.891 304.604 154.198 304.817 153.558 C 304.817 151.431 302.157 150.368 296.837 150.368 L 288.857 150.688 L 288.857 156.748 Z M 310.237 154.198 L 333.217 154.198 C 333.217 152.711 332.527 151.755 331.147 151.328 C 329.761 150.901 327.367 150.688 323.967 150.688 C 323.114 150.688 320.614 150.955 316.467 151.488 C 312.314 152.021 309.707 152.498 308.647 152.918 L 310.237 154.198 Z M 282.797 152.918 L 282.797 156.748 L 284.707 156.748 L 284.707 152.918 L 282.797 152.918 Z M 270.987 166.648 L 266.837 180.048 C 266.624 181.115 265.931 182.551 264.757 184.358 C 263.591 186.165 263.007 187.388 263.007 188.028 C 266.621 186.755 268.854 184.575 269.707 181.488 C 270.561 178.401 270.987 175.368 270.987 172.388 C 270.987 169.408 270.987 167.495 270.987 166.648 Z M 266.837 193.778 C 266.197 195.051 265.241 197.125 263.967 199.998 C 262.687 202.871 261.727 205.371 261.087 207.498 L 263.007 208.138 C 265.774 208.138 267.157 205.585 267.157 200.478 L 266.837 193.778 Z M 263.007 211.968 C 260.454 212.181 258.857 213.245 258.217 215.158 C 257.577 217.071 257.257 219.838 257.257 223.458 C 261.304 220.051 263.327 216.858 263.327 213.878 L 263.007 211.968 Z M 265.557 217.708 L 261.087 225.688 L 265.557 225.688 L 265.557 217.708 Z M 255.027 239.418 L 255.027 240.378 C 255.027 243.351 255.771 244.945 257.257 245.158 C 261.091 241.758 264.284 237.821 266.837 233.348 C 266.837 232.928 266.677 232.558 266.357 232.238 C 266.037 231.918 265.771 231.651 265.557 231.438 C 261.944 231.438 259.284 232.021 257.577 233.188 C 255.877 234.361 255.027 236.438 255.027 239.418 Z M 266.837 239.418 C 264.924 240.691 263.167 242.711 261.567 245.478 C 259.974 248.245 259.177 250.905 259.177 253.458 C 261.731 253.458 264.071 252.978 266.197 252.018 C 268.324 251.065 269.387 249.525 269.387 247.398 C 269.387 244.631 268.537 241.971 266.837 239.418 Z M 255.027 264.948 C 255.027 266.015 255.134 266.865 255.347 267.498 C 255.561 268.138 256.197 268.565 257.257 268.778 C 259.384 266.865 261.621 264.685 263.967 262.238 C 266.307 259.791 268.007 257.398 269.067 255.058 C 265.667 255.058 262.477 255.961 259.497 257.768 C 256.517 259.575 255.027 261.968 255.027 264.948 Z M 257.257 280.588 C 261.731 279.101 264.924 277.398 266.837 275.478 C 268.751 273.565 269.707 270.695 269.707 266.868 C 269.707 266.015 269.654 264.948 269.547 263.668 C 269.441 262.395 269.281 261.438 269.067 260.798 L 257.257 276.438 L 257.257 280.588 Z M 259.177 294.308 L 270.987 288.568 L 271.307 286.018 L 271.307 285.058 C 271.307 282.505 270.561 281.015 269.067 280.588 L 259.177 294.308 Z M 259.177 284.418 C 257.897 285.058 257.257 286.441 257.257 288.568 C 257.897 288.568 258.431 288.141 258.857 287.288 C 259.284 286.441 259.497 285.911 259.497 285.698 L 259.177 284.418 Z M 253.427 305.478 C 253.427 306.331 254.121 307.451 255.507 308.838 C 256.887 310.218 257.791 310.908 258.217 310.908 C 258.217 307.715 260.027 304.735 263.647 301.968 C 264.067 301.548 264.971 300.645 266.357 299.258 C 267.737 297.878 268.641 296.228 269.067 294.308 L 268.107 294.308 C 265.981 294.308 263.004 295.428 259.177 297.668 C 255.344 299.901 253.427 302.505 253.427 305.478 Z M 270.027 300.058 C 268.541 300.698 266.944 301.868 265.237 303.568 C 263.537 305.268 262.687 306.971 262.687 308.678 C 265.454 308.678 267.421 308.091 268.587 306.918 C 269.761 305.751 270.561 303.571 270.987 300.378 L 270.027 300.058 Z M 255.347 336.118 C 256.407 337.185 257.471 337.718 258.537 337.718 C 259.811 337.718 262.044 334.898 265.237 329.258 C 268.431 323.618 270.027 319.841 270.027 317.928 L 266.837 317.928 L 266.837 312.508 L 257.257 316.018 L 255.347 336.118 Z M 265.557 322.078 L 265.557 323.678 L 263.007 323.678 L 265.557 322.078 Z M 266.837 333.888 C 263.644 337.081 261.727 339.635 261.087 341.548 C 262.794 341.121 264.231 340.431 265.397 339.478 C 266.571 338.518 267.157 337.398 267.157 336.118 L 266.837 333.888 Z" transform="matrix(1.2560089826583862, 0, 0, 1.1906089782714844, 22.5, -42.89913558959961)" style="fill: rgb(255, 255, 255); line-height: 573.58px; white-space: pre;"/>
</svg>