<svg version="1.1" xmlns="http://www.w3.org/2000/svg" xmlns:xlink="http://www.w3.org/1999/xlink" width="579" height="827"><defs/><g><g/><g/><g/><g/><g/><g/><g/><g/><g/><g/><g><rect fill="white" stroke="none" x="0" y="0" width="579" height="827"/></g><g/><g><path fill="none" stroke="black" paint-order="fill stroke markers" d=" M 90.89074656666666 94.81957238599999 L 90.89074656666666 827.8681032439999" stroke-miterlimit="10" stroke-width="1.4659797833333332" stroke-dasharray="13.532121076923076,5.863919133333333"/><path fill="none" stroke="black" paint-order="fill stroke markers" d=" M 337.9277773214193 180.49143092399999 L 337.9277773214193 827.8681032439999" stroke-miterlimit="10" stroke-width="1.4659797833333332" stroke-dasharray="13.532121076923076,5.863919133333333"/><path fill="none" stroke="black" paint-order="fill stroke markers" d=" M 491.08375332272135 94.81957238599999 L 491.08375332272135 827.8681032439999" stroke-miterlimit="10" stroke-width="1.4659797833333332" stroke-dasharray="13.532121076923076,5.863919133333333"/></g><g><path fill="none" stroke="none"/><g><path fill="white" stroke="black" paint-order="fill stroke markers" d=" M 58.761461088936194 47.321827406 L 123.02003204439714 47.321827406 L 123.02003204439714 94.81957238599999 L 58.761461088936194 94.81957238599999 L 58.761461088936194 47.321827406 Z" stroke-miterlimit="10" stroke-width="2.814681184" stroke-dasharray=""/></g><g><g/><text fill="black" stroke="none" font-family="sans-serif" font-size="11pt" font-style="normal" font-weight="normal" text-decoration="normal" x="77.8485178679362" y="77.227814986" text-anchor="start" dominant-baseline="alphabetic" xml:space="preserve">App</text></g><g><path fill="white" stroke="black" paint-order="fill stroke markers" d=" M 465.3997875187214 60.33972788199999 L 465.3997875187214 23.397037341999994 L 516.7677191267213 23.397037341999994 L 516.7677191267213 60.33972788199999" stroke-miterlimit="10" stroke-width="2.990598758" stroke-dasharray=""/><path fill="white" stroke="black" paint-order="fill stroke markers" d=" M 516.7677191267213 22.112839051799995 L 516.7664349391328 22.228942715556357 L 516.7625825047847 22.345034769043096 L 516.7561622089174 22.461103603151603 L 516.747174693555 22.5771376110952 L 516.7356208574417 22.693125189569777 L 516.7215018559515 22.80905473991415 L 516.7048191009726 22.92491466926989 L 516.6855742607667 23.040693391740607 L 516.6637692598017 23.156379329550543 L 516.6394062785597 23.271960914202314 L 516.6124877533184 23.38742658763378 L 516.583016375908 23.502764803373815 L 516.5509950934414 23.617964027696956 L 516.5164271080205 23.73301274077678 L 516.4793158764148 23.847899437837842 L 516.4396651097168 23.962612630306182 L 516.3974787729699 24.077140846958144 L 516.3527610847725 24.191472635067502 L 516.3055165168565 24.305596561550722 L 516.2557497936391 24.41950121411026 L 516.2034658917512 24.533175202375777 L 516.1486700395394 24.646607159043178 L 516.0913677165433 24.75978574101132 L 516.0315646529475 24.872699630516323 L 515.9692668290083 24.98533753626333 L 515.9044804744565 25.09768819455563 L 515.8372120678733 25.209740370421024 L 515.7674683360434 25.321482858735298 L 515.6952562532819 25.43290448534274 L 515.6205830407368 25.543994108173536 L 515.5434561656673 25.65474061835798 L 515.4638833406964 25.76513294133735 L 515.3818725230404 25.875160037971327 L 515.2974319137129 25.984810905641947 L 515.2105699567041 26.094074579353816 L 515.1212953381377 26.202940132830612 L 515.0296169854008 26.311396679607718 L 514.9355440662525 26.41943337412082 L 514.8390859879064 26.527039412790515 L 514.7402523960897 26.634204035102595 L 514.6390531740793 26.740916524684135 L 514.5354984417132 26.847166210375107 L 514.4295985543783 26.952942467295482 L 514.3213641019751 27.058234717907713 L 514.2108059078583 27.16303243307448 L 514.0979350277557 27.2673251331116 L 513.982762748661 27.371102388835983 L 513.8653005877061 27.474353822608535 L 513.7455602910093 27.577069109371916 L 513.6235538325004 27.67923797768305 L 513.4992934127237 27.780850210740248 L 513.3727914576174 27.88189564740488 L 513.2440606172719 27.982364183217477 L 513.1131137646637 28.08224577140819 L 512.9799639943691 28.181530423901435 L 512.8446246212542 28.28020821231469 L 512.7071091791433 28.378269268951357 L 512.5674314194662 28.475703787787477 L 512.4256053098825 28.57250202545237 L 512.2816450328849 28.66865430220293 L 512.1355649843811 28.764151002891616 L 511.98737977225414 28.858982577927932 L 511.83710421490196 28.9531395442334 L 511.684753339755 29.04661248618986 L 511.5303423817737 29.13939205658101 L 511.3738867819253 29.231468977527115 L 511.2154021856394 29.322834041412822 L 511.0549044412435 29.413478111807876 L 510.8924095983783 29.503392124380778 L 510.7279339063927 29.592567087805193 L 510.5614938127188 29.680994084659094 L 510.3931059612274 29.768664272316485 L 510.2227871905631 29.855568883831655 L 510.05055453246126 29.941699228815878 L 509.876425210044 30.027046694306424 L 509.7004166360985 30.111602745627874 L 509.52254641133555 30.195358927245554 L 509.3428323226293 30.2783068636111 L 509.16129234123895 30.360438260000002 L 508.9779446210113 30.441744903341053 L 508.7928074965656 30.52221866303769 L 508.60589948146 30.60185149178099 L 508.4172392663403 30.68063542635445 L 508.2268457170707 30.75856258843026 L 508.0347378728476 30.83562518535715 L 507.8409349442952 30.911815510939647 L 507.64545631154493 30.987125946208693 L 507.44832152229714 31.061548960183508 L 507.24955028986653 31.135077110624714 L 507.0491624912106 31.20770304477855 L 506.8471781649423 31.279419500112116 L 506.64361750932596 31.35021930503964 L 506.43850088025744 31.420095379639633 L 506.23184878922876 31.489040736362863 L 506.0236819012768 31.557048480731112 L 505.81402103291686 31.624111812026616 L 505.6028871500611 31.69022402397213 L 505.39030136592186 31.75537850540156 L 505.1762849389004 31.819568740921046 L 504.96085927046096 31.882788311560535 L 504.74404590299105 31.94503089541565 L 504.52586651764665 32.00629026827986 L 504.30634293218446 32.06656030426694 L 504.0854970987801 32.125834976423526 L 503.8633511018329 32.18410835733177 L 503.6399271557574 32.24137461970217 L 503.41524760276207 32.29762803695619 L 503.18933491061495 32.352862983798985 L 502.962211670397 32.40707393678191 L 502.73390059424287 32.46025547485485 L 502.5044245130701 32.51240227990829 L 502.2738063742955 32.56350913730519 L 502.0420692395407 32.61357093640241 L 501.80923628232614 32.66258267106174 L 501.5753307857535 32.710539440150576 L 501.3403761401775 32.75743644803197 L 501.1043958408669 32.8032690050442 L 500.86741348565505 32.848032527969764 L 500.62945277257984 32.89172254049368 L 500.39053749751446 32.93433467365111 L 500.1506915517872 32.97586466626422 L 499.90993891979275 33.01630836536839 L 499.6683036765937 33.05566172662739 L 499.4258099855131 33.09392081473789 L 499.1824820957179 33.13108180382298 L 498.9383443397943 33.1671409778147 L 498.6934211313145 33.202094730825706 L 498.44773696239514 33.235939567509824 L 498.2013164012485 33.26867210341159 L 497.9541840897253 33.300289065304696 L 497.7063647408507 33.330787291519286 L 497.45788313635313 33.36016373225817 L 497.20876412418596 33.38841544990175 L 496.9590326160428 33.415539619301796 L 496.70871358486636 33.441533528063985 L 496.45783206235114 33.466394576819084 L 496.20641313644035 33.49012027948296 L 495.95448194881703 33.51270826350509 L 495.7020636923901 33.53415627010592 L 495.4491836087747 33.554462154502644 L 495.1958669857686 33.573623886123755 L 494.9421391548229 33.591639548812054 L 494.6880254885093 33.60850734101629 L 494.4335513979827 33.624225575971295 L 494.17874233044006 33.638792681866676 L 493.9236237665758 33.65220720200397 L 493.6682212180337 33.66446779494236 L 493.4125602248558 33.675573234632765 L 493.1566663529283 33.68552241054046 L 492.90056519142524 33.694314327756146 L 492.64428235024934 33.70194810709544 L 492.3878434574711 33.708422985186765 L 492.1312741567661 33.713738314547705 L 491.87460010485063 33.71789356364975 L 491.617846968916 33.72088831697146 L 491.36104042406185 33.72272227503999 L 491.1042061507286 33.723395254461074 L 490.84736983212963 33.722907187937324 L 490.5905571516827 33.721258124274975 L 490.33379379044186 33.71844822837903 L 490.07710542452935 33.714477781236745 L 489.82051772256773 33.70934717988951 L 489.56405634311346 33.70305693739319 L 489.30774693209077 33.6956076827668 L 489.0516151202271 33.687000160929585 L 488.7956865204902 33.67723523262656 L 488.5399867255269 33.66631387434241 L 488.28454130510346 33.65423717820387 L 488.0293758035491 33.6410063518705 L 487.7745157372014 33.62662271841389 L 487.51998659185455 33.61108771618541 L 487.26581382021095 33.59440289867233 L 487.01202283933605 33.5765699343425 L 486.75863902811636 33.55759060647749 L 486.5056877247219 33.53746681299428 L 486.25319422407216 33.516200566255435 L 486.00118377530686 33.49379399286792 L 485.7496815792608 33.4702493334704 L 485.4987127859441 33.44556894250918 L 485.2483024920269 33.419755288002804 L 484.9984757383299 33.3928109512952 L 484.74925750732024 33.3647386267976 L 484.50067272061347 33.335541121719054 L 484.25274623648096 33.30522135578573 L 484.0055028473646 33.273782360948964 L 483.7589672773973 33.24122728108204 L 483.5131641799305 33.20755937166581 L 483.2681181350692 33.17278199946317 L 483.0238536472137 33.136898642182345 L 482.7803951426091 33.09991288812917 L 482.5377669669031 33.06182843584822 L 482.2959933827111 33.022649093753 L 482.05509856719 32.98237877974506 L 481.81510660962056 32.94102152082225 L 481.57604150899857 32.898581452675984 L 481.33792717163493 32.85506281927773 L 481.10078740876486 32.81046997245454 L 480.8646459341671 32.764807371453955 L 480.6295263617923 32.718079582498014 L 480.39545220340176 32.67029127832667 L 480.16244686621627 32.62144723773053 L 479.93053365057534 32.57155234507294 L 479.69973574760735 32.52061158980158 L 479.4700762369102 32.46863006594954 L 479.2415780842436 32.41561297162588 L 479.0142641392324 32.36156560849586 L 478.7881571330817 32.30649338125074 L 478.56327967630364 32.25040179706736 L 478.3396542564565 32.1932964650574 L 478.11730323589603 32.13518309570646 L 477.89624884953884 32.07606750030306 L 477.67651320263946 32.01595559035747 L 477.45811826857937 31.954853377010593 L 477.2410858866701 31.89276697043285 L 477.02543775996884 31.829702579213155 L 476.81119545310867 31.765666509738075 L 476.5983803901417 31.700665165561198 L 476.3870138523969 31.634705046762775 L 476.17711697635184 31.56779274929972 L 475.9687107515193 31.49993496434601 L 475.7618160183481 31.431138477623605 L 475.55645346613903 31.361410168723843 L 475.3526436309763 31.290757010419505 L 475.15040689367345 31.21918606796754 L 474.9497634777358 31.146704498402556 L 474.7507334473377 31.073319549821107 L 474.5533367053163 30.999038560656903 L 474.35759299118143 30.923868958946954 L 474.16352187914123 30.847818261588788 L 473.97114277614526 30.77089407358877 L 473.7804749199435 30.693104087301595 L 473.59153737716264 30.614456081661068 L 473.40434904139954 30.53495792140221 L 473.2189286313318 30.454617556274798 L 473.03529468884585 30.373443020248402 L 472.85346557718304 30.291442430708976 L 472.67345947910286 30.208623987647137 L 472.4952943950652 30.124995972838178 L 472.31898814143 30.04056674901389 L 472.1445583486756 29.955344759026296 L 471.9720224596361 29.869338525003386 L 471.8013977277564 29.78255664749688 L 471.6327012153677 29.695007804622215 L 471.46594979198056 29.606700751190715 L 471.3011601325984 29.517644317834147 L 471.1383487160498 29.427847410121625 L 470.97753182334077 29.337319007669088 L 470.81872553602653 29.246068163241347 L 470.6619457346035 29.154104001846797 L 470.50720809692115 29.061435719824946 L 470.3545280966143 28.96807258392677 L 470.2039210015558 28.874023930388056 L 470.0554018723296 28.779299163995788 L 469.9089855607249 28.683907757147658 L 469.76468670825074 28.587859248904874 L 469.6225197446723 28.49116324403821 L 469.48249888656727 28.39382941206757 L 469.3446381359049 28.295867486295048 L 469.2089512786454 28.19728726283158 L 469.07545188336127 28.09809859961737 L 468.94415329988095 27.998311415436074 L 468.8150686579533 27.897935688922963 L 468.68821086593493 27.796981457567032 L 468.5635926094994 27.695458816707298 L 468.44122635036837 27.593377918523238 L 468.3211243250659 27.49074897101961 L 468.2032985436944 27.387582237005635 L 468.0877607887339 27.28388803306874 L 467.9745226138634 27.179676728542915 L 467.86359534280626 27.07495874447177 L 467.754990068197 26.96974455256644 L 467.64871765047263 26.86404467415844 L 467.5447887167864 26.75786967914753 L 467.44321365994494 26.65123018494473 L 467.34400263736944 26.5441368554106 L 467.2471655700794 26.436600399788837 L 467.1527121417009 26.328631571635405 L 467.06065179749794 26.220241167743136 L 466.9709937434284 26.111440027062095 L 466.8837469452228 26.002239029615684 L 466.79892012748843 25.89264909541265 L 466.71652177283624 25.782681183355084 L 466.63656012103314 25.672346290142553 L 466.5590431681776 25.561655449172438 L 466.4839786659003 25.450619729436585 L 466.4113741205889 25.339250234414447 L 466.3412367926375 25.22755810096271 L 466.2735736957205 25.11555449820165 L 466.208391596091 25.003250626398206 L 466.1456970119048 24.89065771584597 L 466.08549621256805 24.777787025742168 L 466.0277952181105 24.664649843061756 L 465.9725997985835 24.55125748142872 L 465.919915473483 24.43762127998473 L 465.8697475111977 24.323752602255233 L 465.8221009284819 24.209662835013113 L 465.7769804899542 24.095363387140015 L 465.73439070762095 23.980865688485487 L 465.69433584042474 23.86618118872397 L 465.656819893819 23.751321356209875 L 465.6218466193671 23.636297676830736 L 465.58941951436736 23.521121652858643 L 465.5595418215033 23.405804801800002 L 465.53221652851914 23.290358655243836 L 465.5074463679216 23.174794757708582 L 465.48523381670606 23.0591246654877 L 465.465581096109 22.94335994549402 L 465.44849017138625 22.827512174103067 L 465.433962751616 22.711592935995444 L 465.42200028952806 22.59561382299836 L 465.41260398135876 22.479586432926467 L 465.405774766731 22.363522368422085 L 465.4015133285606 22.24743323579494 L 465.39982009298785 22.13133064386156 L 465.4006952293349 22.015226202784383 L 465.4041386500887 21.89913152291076 L 465.41015001091023 21.78305821361194 L 465.41872871066835 21.667017882122124 L 465.4298738915002 21.551022132377756 L 465.443584438897 21.435082563857154 L 465.4598589818155 21.31921077042055 L 465.47869589281487 21.20341833915073 L 465.5000932882198 21.087716849194326 L 465.52404902830847 20.972117870603913 L 465.55056071752693 20.856632963181028 L 465.5796257047283 20.741273675320166 L 465.61124108343813 20.626051542853986 L 465.6454036921449 20.510978087899716 L 465.6821101146161 20.396064817706954 L 465.72135668024015 20.281323223506963 L 465.76313946439325 20.166764779363543 L 465.8074542888317 20.052400941025642 L 465.85429672211 19.938243144781794 L 465.90366208002393 19.82430280631649 L 465.95554542607874 19.71059131956863 L 466.0099415719832 19.59712005559212 L 466.0668450781679 19.48390036141881 L 466.1262502543297 19.370943558923763 L 466.1881511600005 19.2582609436931 L 466.2525416051413 19.145863783894434 L 466.31941515076124 19.033763319150093 L 466.3887651095615 18.921970759413128 L 466.46058454660397 18.810497283846352 L 466.53486628000485 18.69935403970443 L 466.6116028816527 18.588552141219157 L 466.69078667795117 18.478102668488045 L 466.7724097505868 18.36801666636633 L 466.8564639373202 18.25830514336248 L 466.94294083280283 18.148979070537376 L 467.03183178941714 18.04004938040719 L 467.1231279181416 17.931526965850164 L 467.2168200894394 17.823422679017316 L 467.31289893417147 17.715747330247247 L 467.41135484453343 17.608511686985103 L 467.5121779750163 17.501726472705844 L 467.615358243391 17.395402365841917 L 467.72088533171666 17.289549998715398 L 467.82874868737247 17.184179956474793 L 467.93893752411276 17.07930277603652 L 468.0514408231455 16.974928945031227 L 468.1662473342348 16.871068900755027 L 468.283345576825 16.767733029125807 L 468.4027238411896 16.664931663644616 L 468.5243701896015 16.562675084362333 L 468.6482724575273 16.46097351685167 L 468.77441825484345 16.359837131184634 L 468.9027949670753 16.259276040915502 L 469.03338975665866 16.159300302069507 L 469.16618956422343 16.059919912137218 L 469.30118110989946 15.961144809074815 L 469.43835089464466 15.862984870310289 L 469.5776852015949 15.765449911755718 L 469.7191700974356 15.668549686825678 L 469.86279143379505 15.57229388546191 L 470.00853484865934 15.476692133164342 L 470.1563857678084 15.381753990028534 L 470.3063294062735 15.287488949789683 L 470.45835076981587 15.193906438873261 L 470.6124346564257 15.101015815452374 L 470.76856565784277 15.008826368511954 L 470.92672816109706 14.917347316919871 L 471.0869063500701 14.826587808505055 L 471.24908420707635 14.73655691914271 L 471.41324551446536 14.647263651846753 L 471.5793738562432 14.558716935869498 L 471.74745261971407 14.470925625808754 L 471.9174649971417 14.38389850072237 L 472.08939398743 14.29764426325033 L 472.2632223978233 14.212171538744506 L 472.43893284562535 14.12748887440612 L 472.6165077599378 14.043604738431036 L 472.7959293834172 13.96052751916295 L 472.97717977405074 13.878265524254557 L 473.1602408069504 13.796826979836796 L 473.34509417616545 13.716220029696245 L 473.5317213965129 13.636452734460747 L 473.7201038054264 13.55753307079335 L 473.910222564822 13.479468930594656 L 474.1020586629821 13.402268120213629 L 474.2955929164568 13.325938359666978 L 474.49080597198207 13.250487281867144 L 474.687678308415 13.175922431859037 L 474.886190238686 13.102251266065519 L 475.08632191176747 13.029481151541777 L 475.2880533146589 12.95761936523862 L 475.4913642743881 12.886673093274794 L 475.69623446002856 12.816649430218376 L 475.90264338473236 12.747555378377317 L 476.11057040777905 12.679397847099223 L 476.31999473663967 12.612183652080423 L 476.53089542905576 12.54591951468441 L 476.7432513951339 12.480612061269703 L 476.9570413994544 12.416267822527217 L 477.172244063195 12.352893232827212 L 477.3888378662687 12.290494629575843 L 477.6068011494757 12.229078252581434 L 477.8261121166692 12.16865024343051 L 478.0467488369353 12.109216644873625 L 478.26868924678587 12.050783400221109 L 478.4919111523649 11.993356352748732 L 478.7163922316677 11.936941245113385 L 478.94211003677356 11.881543718778822 L 479.16904199609 11.827169313451508 L 479.3971654166102 11.773823466526666 L 479.62645748618223 11.721511512544536 L 479.85689527579024 11.670238682656919 L 480.0884557418472 11.620010104104079 L 480.32111572849954 11.570830799702014 L 480.5548519699425 11.52270568734018 L 480.78964109274665 11.47563957948971 L 481.0254596181954 11.429637182722168 L 481.26228396463273 11.384703097238896 L 481.50009044982136 11.340841816410997 L 481.73885529331085 11.29805772633 L 481.97855461881596 11.256355105369265 L 482.21916445660383 11.21573812375613 L 482.4606607458911 11.176210843154916 L 482.7030193372502 11.137777216260737 L 482.946215995024 11.10044108640426 L 483.19022639974924 11.064206187167352 L 483.43502615058884 11.029076142009746 L 483.6805907677718 10.99505446390668 L 483.9268956950409 10.962144554997614 L 484.1739163021088 10.930349706246012 L 484.42162788712056 10.899673097110258 L 484.67000567912413 10.870117795225697 L 484.9190248405473 10.841686756097891 L 485.1686604696814 10.81438282280706 L 485.41888760317164 10.788208725723779 L 485.66968121851306 10.763167082235944 L 485.9210162365532 10.739260396487039 L 486.17286752399974 10.716491059125712 L 486.42520989593373 10.69486134706673 L 486.6780181183283 10.67437342326327 L 486.9312669105718 10.655029336490642 L 487.18493094799624 10.6368310211414 L 487.43898486440906 10.619780297031918 L 487.6934032546304 10.603878869220395 L 487.94816067703334 10.589128327836361 L 488.20323165608784 10.575530147921663 L 488.4585906849086 10.56308568928296 L 488.7142122278055 10.551796196355749 L 488.97007072283725 10.54166279807991 L 489.2261405843676 10.53268650778683 L 489.4823962056238 10.524868223098053 L 489.7388119612572 10.518208725835539 L 489.99536220990603 10.51270868194346 L 490.2520212967591 10.508368641421624 L 490.50876355612166 10.505189038270467 L 490.7655633139818 10.503170190447653 L 491.0223948905776 10.502312299836282 L 491.27923260296546 10.5026154522247 L 491.5360507675882 10.504079617297922 L 491.7928237028434 10.50670464864066 L 492.04952573165144 10.510490283751968 L 492.30613118402346 10.51543614407149 L 492.56261439962793 10.521541735017312 L 492.81894973035713 10.528806446035432 L 493.07511154289153 10.5372295506608 L 493.33107422126335 10.54681020658997 L 493.5868121694181 10.55754745576534 L 493.8422998137741 10.569440224470933 L 494.09751160577974 10.582487323439793 L 494.3524220244685 10.596687447972894 L 494.60700557901106 10.612039178069617 L 494.86123681126395 10.628540978569744 L 495.11509029831586 10.646191199306978 L 495.3685406550297 10.664988075273955 L 495.62156253658094 10.684929726798739 L 495.8741306409923 10.706014159732797 L 496.12621971166374 10.728239265650407 L 496.37780453989836 10.751602822059496 L 496.628859967423 10.776102492623894 L 496.87936088890405 10.80173582739696 L 497.12928225445813 10.828500263066578 L 497.37859907215693 10.856393123211486 L 497.62728641052655 10.885411618568913 L 497.87531940104026 10.915552847313505 L 498.12267324060576 10.946813795347502 L 498.36932319404525 10.979191336602156 L 498.61524459656886 11.012682233350322 L 498.8604128562413 11.04728313653023 L 499.10480345644095 11.082990586080403 L 499.3483919583114 11.119801011285636 L 499.5911540032055 11.157710731134086 L 499.83306531512096 11.19671595468536 L 500.0741017031283 11.236812781449604 L 500.3142390637895 11.277997201777561 L 500.55345338356864 11.320265097261514 L 500.7917207412331 11.36361224114714 L 501.0290173102457 11.40803429875617 L 501.2653193611472 11.453526827919866 L 501.50060326392946 11.500085279423217 L 501.73484549039824 11.547704997459876 L 501.9680226165262 11.59638122009772 L 502.20011132479493 11.646109079755048 L 502.43108840652707 11.696883603687334 L 502.6609307642069 11.748699714484497 L 502.88961541379024 11.801552230578638 L 503.11711948700264 11.855435866762189 L 503.3434202336264 11.91034523471644 L 503.56849502377537 11.966274843550346 L 503.79232135015815 12.023219100349637 L 504.01487683032866 12.081172310736083 L 504.2361392089243 12.140128679436941 L 504.45608635989163 12.200082310864472 L 504.6746962886988 12.261027209705492 L 504.8919471345351 12.322957281520907 L 505.10781717249705 12.385866333355143 L 505.32228481576067 12.449748074355437 L 505.5353286177404 12.514596116400929 L 505.74692727423354 12.580403974741452 L 505.9570596255508 12.64716506864601 L 506.1657046586322 12.714872722060848 L 506.37284150914826 12.783520164277046 L 506.57844946358654 12.853100530607593 L 506.7825079613229 12.923606863073834 L 506.98499659667766 12.995032111101281 L 507.18589512095605 13.067369132224648 L 507.385183444473 13.14061069280211 L 507.58284163856223 13.214749468738637 L 507.7788499375691 13.289778046218421 L 507.973188740827 13.365688922446235 L 508.1658386146176 13.44247450639772 L 508.356780294114 13.520127119578463 L 508.54599468530745 13.598638996791859 L 508.73346286691645 13.678002286915614 L 508.91916609227906 13.75820905368685 L 509.1030857912275 13.839251276495729 L 509.28520357194515 13.921120851187503 L 509.4655012228057 14.003809590872931 L 509.64396071419435 14.08730922674695 L 509.82056420031057 14.171611408915552 L 509.99529402095305 14.256707707230778 L 510.16813270328527 14.342589612133706 L 510.339062963583 14.429248535505412 L 510.5080677089627 14.51667581152578 L 510.6751300390906 14.604862697540057 L 510.840233247873 14.693800374933137 L 511.0033608251266 14.78347995001139 L 511.16449645822956 14.873892454892044 L 511.3236240337528 14.965028848399953 L 511.4807276390715 15.056880016971714 L 511.635791563956 15.149436775567011 L 511.788800302143 15.242689868587114 L 511.9397385528862 15.336629970800434 L 512.0885912224863 15.431247688275032 L 512.2353434258005 15.52653355931801 L 512.3799804877304 15.622478055421665 L 512.5224879446909 15.71907158221634 L 512.6628515460545 15.816304480429855 L 512.8010572555785 15.91416702685341 L 512.9370912528068 16.012649435313918 L 513.0709399344531 16.111741857652596 L 513.2025899157609 16.211434384709797 L 513.3320280318417 16.311717047315884 L 513.4592413389918 16.412579817288165 L 513.5842171159863 16.5140126084337 L 513.706942865352 16.616005277557896 L 513.8274063146158 16.71854762547884 L 513.9455954175336 16.821629398047186 L 514.0614983552932 16.92524028717158 L 514.1751035376977 17.029369931849452 L 514.2863996043235 17.13400791920311 L 514.3953754256565 17.239143785521016 L 514.5020201042056 17.34476701730415 L 514.6063229755916 17.450867052317356 L 514.7082736096145 17.557433280645544 L 514.8078618112957 17.664455045754686 L 514.9050776218979 17.771921645557462 L 514.9999113199215 17.879822333483443 L 515.0923534220752 17.988146319553753 L 515.1823946842262 18.096882771460052 L 515.2700261023232 18.20602081564777 L 515.3552389132974 18.31554953840343 L 515.4380245959386 18.425457986946036 L 515.5183748717477 18.535735170522315 L 515.596281705764 18.646370061505813 L 515.6717373073691 18.75735159649963 L 515.7447341310656 18.86866867744274 L 515.815264877232 18.980310172719825 L 515.8833224928526 19.09226491827438 L 515.9489001722222 19.204521718725157 L 516.011991357628 19.31706934848565 L 516.0725897400035 19.429896552886674 L 516.1306892595614 19.54299204930181 L 516.186284106398 19.656344528275664 L 516.2393687210749 19.7699426546548 L 516.2899377951749 19.883775068721242 L 516.3379862718327 19.997830387328445 L 516.3835093462408 20.112097205039596 L 516.4265024661296 20.22656409526814 L 516.4669613322229 20.34121961142045 L 516.5048818986679 20.45605228804045 L 516.5402603734394 20.571050641956177 L 516.5730932187197 20.68620317342807 L 516.6033771512513 20.80149836729894 L 516.6311091426663 20.91692469414548 L 516.6562864197888 21.03247061143119 L 516.678906464912 21.148124564660638 L 516.69896701605 21.26387498853487 L 516.7164660671648 21.379710308107963 L 516.7314018683657 21.495618939944485 L 516.7437729260848 21.611589293277845 L 516.7535780032271 21.72760977116935 L 516.7608161192926 21.843668771667897 L 516.765486550476 21.959754688970147 L 516.767588829738 22.075855914581112 M 516.7677191267213 59.05552959179999 L 516.7664349391328 59.17163325555635 L 516.7625825047847 59.28772530904309 L 516.7561622089174 59.4037941431516 L 516.747174693555 59.51982815109519 L 516.7356208574417 59.63581572956977 L 516.7215018559515 59.75174527991415 L 516.7048191009726 59.86760520926988 L 516.6855742607667 59.983383931740605 L 516.6637692598017 60.09906986955053 L 516.6394062785597 60.21465145420231 L 516.6124877533184 60.33011712763378 L 516.583016375908 60.44545534337381 L 516.5509950934414 60.56065456769695 L 516.5164271080205 60.67570328077677 L 516.4793158764148 60.79058997783784 L 516.4396651097168 60.905303170306176 L 516.3974787729699 61.01983138695814 L 516.3527610847725 61.1341631750675 L 516.3055165168565 61.248287101550716 L 516.2557497936391 61.362191754110256 L 516.2034658917512 61.475865742375774 L 516.1486700395394 61.58929769904317 L 516.0913677165433 61.702476281011315 L 516.0315646529475 61.81539017051632 L 515.9692668290083 61.928028076263324 L 515.9044804744565 62.040378734555624 L 515.8372120678733 62.15243091042102 L 515.7674683360434 62.26417339873529 L 515.6952562532819 62.37559502534273 L 515.6205830407368 62.48668464817353 L 515.5434561656673 62.59743115835798 L 515.4638833406964 62.70782348133734 L 515.3818725230404 62.81785057797132 L 515.2974319137129 62.927501445641944 L 515.2105699567041 63.03676511935381 L 515.1212953381377 63.145630672830606 L 515.0296169854008 63.25408721960771 L 514.9355440662525 63.362123914120815 L 514.8390859879064 63.46972995279051 L 514.7402523960897 63.576894575102585 L 514.6390531740793 63.68360706468413 L 514.5354984417132 63.7898567503751 L 514.4295985543783 63.89563300729547 L 514.3213641019751 64.00092525790771 L 514.2108059078583 64.10572297307448 L 514.0979350277557 64.2100156731116 L 513.982762748661 64.31379292883598 L 513.8653005877061 64.41704436260852 L 513.7455602910093 64.5197596493719 L 513.6235538325004 64.62192851768305 L 513.4992934127237 64.72354075074024 L 513.3727914576174 64.82458618740488 L 513.2440606172719 64.92505472321747 L 513.1131137646637 65.02493631140818 L 512.9799639943691 65.12422096390142 L 512.8446246212542 65.22289875231468 L 512.7071091791433 65.32095980895134 L 512.5674314194662 65.41839432778747 L 512.4256053098825 65.51519256545237 L 512.2816450328849 65.61134484220293 L 512.1355649843811 65.70684154289161 L 511.98737977225414 65.80167311792792 L 511.83710421490196 65.8958300842334 L 511.684753339755 65.98930302618986 L 511.5303423817737 66.082082596581 L 511.3738867819253 66.1741595175271 L 511.2154021856394 66.26552458141282 L 511.0549044412435 66.35616865180788 L 510.8924095983783 66.44608266438077 L 510.7279339063927 66.53525762780518 L 510.5614938127188 66.62368462465909 L 510.3931059612274 66.71135481231647 L 510.2227871905631 66.79825942383165 L 510.05055453246126 66.88438976881586 L 509.876425210044 66.96973723430642 L 509.7004166360985 67.05429328562786 L 509.52254641133555 67.13804946724555 L 509.3428323226293 67.2209974036111 L 509.16129234123895 67.3031288 L 508.9779446210113 67.38443544334105 L 508.7928074965656 67.46490920303768 L 508.60589948146 67.54454203178099 L 508.4172392663403 67.62332596635444 L 508.2268457170707 67.70125312843025 L 508.0347378728476 67.77831572535715 L 507.8409349442952 67.85450605093965 L 507.64545631154493 67.92981648620868 L 507.44832152229714 68.0042395001835 L 507.24955028986653 68.07776765062471 L 507.0491624912106 68.15039358477854 L 506.8471781649423 68.22211004011211 L 506.64361750932596 68.29290984503963 L 506.43850088025744 68.36278591963963 L 506.23184878922876 68.43173127636285 L 506.0236819012768 68.49973902073111 L 505.81402103291686 68.56680235202661 L 505.6028871500611 68.63291456397212 L 505.39030136592186 68.69806904540155 L 505.1762849389004 68.76225928092104 L 504.96085927046096 68.82547885156053 L 504.74404590299105 68.88772143541564 L 504.52586651764665 68.94898080827986 L 504.30634293218446 69.00925084426694 L 504.0854970987801 69.06852551642352 L 503.8633511018329 69.12679889733177 L 503.6399271557574 69.18406515970216 L 503.41524760276207 69.24031857695618 L 503.18933491061495 69.29555352379899 L 502.962211670397 69.34976447678191 L 502.73390059424287 69.40294601485483 L 502.5044245130701 69.45509281990827 L 502.2738063742955 69.50619967730518 L 502.0420692395407 69.5562614764024 L 501.80923628232614 69.60527321106174 L 501.5753307857535 69.65322998015057 L 501.3403761401775 69.70012698803195 L 501.1043958408669 69.74595954504419 L 500.86741348565505 69.79072306796976 L 500.62945277257984 69.83441308049368 L 500.39053749751446 69.8770252136511 L 500.1506915517872 69.91855520626422 L 499.90993891979275 69.95899890536838 L 499.6683036765937 69.99835226662738 L 499.4258099855131 70.03661135473789 L 499.1824820957179 70.07377234382297 L 498.9383443397943 70.1098315178147 L 498.6934211313145 70.1447852708257 L 498.44773696239514 70.17863010750982 L 498.2013164012485 70.21136264341158 L 497.9541840897253 70.24297960530468 L 497.7063647408507 70.27347783151929 L 497.45788313635313 70.30285427225817 L 497.20876412418596 70.33110598990174 L 496.9590326160428 70.3582301593018 L 496.70871358486636 70.38422406806397 L 496.45783206235114 70.40908511681909 L 496.20641313644035 70.43281081948295 L 495.95448194881703 70.45539880350509 L 495.7020636923901 70.47684681010591 L 495.4491836087747 70.49715269450263 L 495.1958669857686 70.51631442612376 L 494.9421391548229 70.53433008881206 L 494.6880254885093 70.5511978810163 L 494.4335513979827 70.56691611597128 L 494.17874233044006 70.58148322186666 L 493.9236237665758 70.59489774200397 L 493.6682212180337 70.60715833494235 L 493.4125602248558 70.61826377463275 L 493.1566663529283 70.62821295054044 L 492.90056519142524 70.63700486775615 L 492.64428235024934 70.64463864709543 L 492.3878434574711 70.65111352518676 L 492.1312741567661 70.6564288545477 L 491.87460010485063 70.66058410364974 L 491.617846968916 70.66357885697145 L 491.36104042406185 70.66541281503999 L 491.1042061507286 70.66608579446107 L 490.84736983212963 70.66559772793731 L 490.5905571516827 70.66394866427497 L 490.33379379044186 70.66113876837903 L 490.07710542452935 70.65716832123674 L 489.82051772256773 70.6520377198895 L 489.56405634311346 70.64574747739319 L 489.30774693209077 70.63829822276679 L 489.0516151202271 70.62969070092957 L 488.7956865204902 70.61992577262654 L 488.5399867255269 70.60900441434241 L 488.28454130510346 70.59692771820387 L 488.0293758035491 70.58369689187049 L 487.7745157372014 70.56931325841389 L 487.51998659185455 70.5537782561854 L 487.26581382021095 70.53709343867231 L 487.01202283933605 70.51926047434249 L 486.75863902811636 70.50028114647749 L 486.5056877247219 70.48015735299427 L 486.25319422407216 70.45889110625544 L 486.00118377530686 70.43648453286792 L 485.7496815792608 70.41293987347039 L 485.4987127859441 70.38825948250917 L 485.2483024920269 70.36244582800279 L 484.9984757383299 70.3355014912952 L 484.74925750732024 70.3074291667976 L 484.50067272061347 70.27823166171905 L 484.25274623648096 70.24791189578572 L 484.0055028473646 70.21647290094896 L 483.7589672773973 70.18391782108203 L 483.5131641799305 70.15024991166581 L 483.2681181350692 70.11547253946316 L 483.0238536472137 70.07958918218233 L 482.7803951426091 70.04260342812915 L 482.5377669669031 70.00451897584821 L 482.2959933827111 69.96533963375299 L 482.05509856719 69.92506931974506 L 481.81510660962056 69.88371206082223 L 481.57604150899857 69.84127199267598 L 481.33792717163493 69.79775335927772 L 481.10078740876486 69.75316051245454 L 480.8646459341671 69.70749791145394 L 480.6295263617923 69.66077012249801 L 480.39545220340176 69.61298181832667 L 480.16244686621627 69.56413777773052 L 479.93053365057534 69.51424288507293 L 479.69973574760735 69.46330212980158 L 479.4700762369102 69.41132060594953 L 479.2415780842436 69.35830351162588 L 479.0142641392324 69.30425614849585 L 478.7881571330817 69.24918392125073 L 478.56327967630364 69.19309233706736 L 478.3396542564565 69.13598700505739 L 478.11730323589603 69.07787363570645 L 477.89624884953884 69.01875804030306 L 477.67651320263946 68.95864613035747 L 477.45811826857937 68.89754391701058 L 477.2410858866701 68.83545751043285 L 477.02543775996884 68.77239311921315 L 476.81119545310867 68.70835704973807 L 476.5983803901417 68.64335570556119 L 476.3870138523969 68.57739558676278 L 476.17711697635184 68.51048328929971 L 475.9687107515193 68.44262550434601 L 475.7618160183481 68.3738290176236 L 475.55645346613903 68.30410070872384 L 475.3526436309763 68.2334475504195 L 475.15040689367345 68.16187660796753 L 474.9497634777358 68.08939503840256 L 474.7507334473377 68.01601008982111 L 474.5533367053163 67.9417291006569 L 474.35759299118143 67.86655949894694 L 474.16352187914123 67.79050880158879 L 473.97114277614526 67.71358461358876 L 473.7804749199435 67.63579462730159 L 473.59153737716264 67.55714662166106 L 473.40434904139954 67.4776484614022 L 473.2189286313318 67.3973080962748 L 473.03529468884585 67.3161335602484 L 472.85346557718304 67.23413297070897 L 472.67345947910286 67.15131452764713 L 472.4952943950652 67.06768651283818 L 472.31898814143 66.98325728901388 L 472.1445583486756 66.89803529902629 L 471.9720224596361 66.81202906500337 L 471.8013977277564 66.72524718749688 L 471.6327012153677 66.63769834462221 L 471.46594979198056 66.54939129119072 L 471.3011601325984 66.46033485783414 L 471.1383487160498 66.37053795012162 L 470.97753182334077 66.28000954766908 L 470.81872553602653 66.18875870324135 L 470.6619457346035 66.09679454184679 L 470.50720809692115 66.00412625982494 L 470.3545280966143 65.91076312392677 L 470.2039210015558 65.81671447038805 L 470.0554018723296 65.72198970399577 L 469.9089855607249 65.62659829714765 L 469.76468670825074 65.53054978890486 L 469.6225197446723 65.4338537840382 L 469.48249888656727 65.33651995206756 L 469.3446381359049 65.23855802629504 L 469.2089512786454 65.13997780283158 L 469.07545188336127 65.04078913961736 L 468.94415329988095 64.94100195543606 L 468.8150686579533 64.84062622892296 L 468.68821086593493 64.73967199756703 L 468.5635926094994 64.63814935670729 L 468.44122635036837 64.53606845852323 L 468.3211243250659 64.4334395110196 L 468.2032985436944 64.33027277700563 L 468.0877607887339 64.22657857306874 L 467.9745226138634 64.12236726854292 L 467.86359534280626 64.01764928447176 L 467.754990068197 63.91243509256643 L 467.64871765047263 63.80673521415844 L 467.5447887167864 63.70056021914752 L 467.44321365994494 63.593920724944724 L 467.34400263736944 63.48682739541059 L 467.2471655700794 63.37929093978883 L 467.1527121417009 63.2713221116354 L 467.06065179749794 63.16293170774313 L 466.9709937434284 63.05413056706209 L 466.8837469452228 62.94492956961568 L 466.79892012748843 62.835339635412645 L 466.71652177283624 62.725371723355074 L 466.63656012103314 62.61503683014255 L 466.5590431681776 62.50434598917243 L 466.4839786659003 62.393310269436576 L 466.4113741205889 62.28194077441444 L 466.3412367926375 62.170248640962704 L 466.2735736957205 62.05824503820165 L 466.208391596091 61.9459411663982 L 466.1456970119048 61.83334825584596 L 466.08549621256805 61.720477565742165 L 466.0277952181105 61.60734038306175 L 465.9725997985835 61.493948021428714 L 465.919915473483 61.380311819984726 L 465.8697475111977 61.26644314225523 L 465.8221009284819 61.15235337501311 L 465.7769804899542 61.03805392714001 L 465.73439070762095 60.92355622848548 L 465.69433584042474 60.808871728723965 L 465.656819893819 60.69401189620987 L 465.6218466193671 60.57898821683073 L 465.58941951436736 60.46381219285863 L 465.5595418215033 60.348495341799996 L 465.53221652851914 60.23304919524383 L 465.5074463679216 60.117485297708576 L 465.48523381670606 60.001815205487695 L 465.465581096109 59.88605048549402 L 465.44849017138625 59.770202714103064 L 465.433962751616 59.654283475995435 L 465.42200028952806 59.53830436299835 L 465.41260398135876 59.42227697292646 L 465.405774766731 59.306212908422076 L 465.4015133285606 59.19012377579494 L 465.39982009298785 59.074021183861554" stroke-miterlimit="10" stroke-width="2.990598758" stroke-dasharray=""/></g><g><g/><text fill="black" stroke="none" font-family="sans-serif" font-size="11pt" font-style="normal" font-weight="normal" text-decoration="normal" x="454.81676266110026" y="89.542045166" text-anchor="start" dominant-baseline="alphabetic" xml:space="preserve">IndexedDB</text></g></g><g><path fill="white" stroke="black" paint-order="fill stroke markers" d=" M 82.09486786666666 103.615451086 L 99.68662526666667 103.615451086 L 99.68662526666667 155.247259055 L 82.09486786666666 155.247259055 L 82.09486786666666 103.615451086" stroke-miterlimit="10" stroke-width="1.4659797833333332" stroke-dasharray=""/><path fill="white" stroke="black" paint-order="fill stroke markers" d=" M 329.1318986214193 180.49143092399999 L 346.7236560214193 180.49143092399999 L 346.7236560214193 252.617636264 L 329.1318986214193 252.617636264 L 329.1318986214193 180.49143092399999" stroke-miterlimit="10" stroke-width="1.4659797833333332" stroke-dasharray=""/><path fill="white" stroke="black" paint-order="fill stroke markers" d=" M 82.09486786666666 349.372301964 L 99.68662526666667 349.372301964 L 99.68662526666667 398.62922268399996 L 82.09486786666666 398.62922268399996 L 82.09486786666666 349.372301964" stroke-miterlimit="10" stroke-width="1.4659797833333332" stroke-dasharray=""/><path fill="white" stroke="black" paint-order="fill stroke markers" d=" M 329.1318986214193 398.62922268399996 L 346.7236560214193 398.62922268399996 L 346.7236560214193 690.6523955239999 L 329.1318986214193 690.6523955239999 L 329.1318986214193 398.62922268399996" stroke-miterlimit="10" stroke-width="1.4659797833333332" stroke-dasharray=""/><path fill="white" stroke="black" paint-order="fill stroke markers" d=" M 482.28787462272135 447.88614340399994 L 499.87963202272135 447.88614340399994 L 499.87963202272135 497.1430641239999 L 482.28787462272135 497.1430641239999 L 482.28787462272135 447.88614340399994" stroke-miterlimit="10" stroke-width="1.4659797833333332" stroke-dasharray=""/><path fill="white" stroke="black" paint-order="fill stroke markers" d=" M 337.9277773214193 569.2692694639999 L 355.5195347214193 569.2692694639999 L 355.5195347214193 618.5261901839998 L 337.9277773214193 618.5261901839998 L 337.9277773214193 569.2692694639999" stroke-miterlimit="10" stroke-width="1.4659797833333332" stroke-dasharray=""/><path fill="white" stroke="black" paint-order="fill stroke markers" d=" M 82.09486786666666 690.6523955239999 L 99.68662526666667 690.6523955239999 L 99.68662526666667 739.9093162439999 L 82.09486786666666 739.9093162439999 L 82.09486786666666 690.6523955239999" stroke-miterlimit="10" stroke-width="1.4659797833333332" stroke-dasharray=""/><path fill="none" stroke="none"/><g><path fill="white" stroke="black" paint-order="fill stroke markers" d=" M 295.35111940716536 131.498386565 L 380.50443523567316 131.498386565 L 380.50443523567316 178.996131545 L 295.35111940716536 178.996131545 L 295.35111940716536 131.498386565 Z" stroke-miterlimit="10" stroke-width="2.814681184" stroke-dasharray=""/></g><g><g/><text fill="black" stroke="none" font-family="sans-serif" font-size="11pt" font-style="normal" font-weight="normal" text-decoration="normal" x="314.4381761861654" y="161.404374145" text-anchor="start" dominant-baseline="alphabetic" xml:space="preserve">Worker</text></g><g><g><rect fill="white" stroke="none" x="156.569447410998" y="132.377974435" width="81.89884985183593" height="22.86928462"/></g><text fill="black" stroke="none" font-family="sans-serif" font-size="11pt" font-style="normal" font-weight="normal" text-decoration="normal" x="159.20821102099802" y="148.21055609500002" text-anchor="start" dominant-baseline="alphabetic" xml:space="preserve">&lt;&lt;spawn&gt;&gt;</text></g><g><path fill="none" stroke="black" paint-order="fill stroke markers" d=" M 99.68662526666667 155.247259055 L 280.86723914783204 155.247259055" stroke-miterlimit="10" stroke-width="1.4659797833333332" stroke-dasharray="7.0367029599999995"/><g transform="translate(295.35111940716536,155.247259055) translate(-295.35111940716536,-155.247259055)"><path fill="black" stroke="none" paint-order="stroke fill markers" d=" M 280.691321573832 147.91736013833332 L 295.35111940716536 155.247259055 L 280.691321573832 162.57715797166668 Z"/></g></g><g><g><rect fill="white" stroke="none" x="367.54056894475264" y="206.879067024" width="91.66975439285156" height="22.86928462"/></g><text fill="black" stroke="none" font-family="sans-serif" font-size="11pt" font-style="normal" font-weight="normal" text-decoration="normal" x="370.17933255475265" y="222.711648684" text-anchor="start" dominant-baseline="alphabetic" xml:space="preserve">&lt;&lt;initialize&gt;&gt;</text></g><g><path fill="none" stroke="black" paint-order="fill stroke markers" d=" M 346.7236560214193 229.748351644 L 417.0906856214193 229.748351644 L 417.0906856214193 252.617636264 L 361.2075362807526 252.617636264" stroke-miterlimit="10" stroke-width="1.4659797833333332" stroke-dasharray=""/><g transform="translate(346.7236560214193,252.617636264) translate(-346.7236560214193,-252.617636264)"><path fill="black" stroke="none" paint-order="stroke fill markers" d=" M 361.38345385475264 245.28773734733332 L 346.7236560214193 252.617636264 L 361.38345385475264 259.94753518066665 Z"/></g></g><g><g><rect fill="white" stroke="none" x="56.00042772333333" y="326.503017344" width="5.27752722" height="22.86928462"/></g><text fill="black" stroke="none" font-family="sans-serif" font-size="11pt" font-style="normal" font-weight="normal" text-decoration="normal" x="58.63919133333333" y="342.335599004" text-anchor="start" dominant-baseline="alphabetic" xml:space="preserve"></text></g><g><path fill="none" stroke="black" paint-order="fill stroke markers" d=" M 35.1835148 349.372301964 L 67.61098760733333 349.372301964" stroke-miterlimit="10" stroke-width="1.4659797833333332" stroke-dasharray=""/><g transform="translate(82.09486786666666,349.372301964) translate(-82.09486786666666,-349.372301964)"><path fill="black" stroke="none" paint-order="stroke fill markers" d=" M 67.43507003333333 342.0424030473333 L 82.09486786666666 349.372301964 L 67.43507003333333 356.7022008806666 Z"/></g></g><g><g><rect fill="white" stroke="none" x="173.45626646148435" y="375.759938064" width="81.90599096511718" height="22.86928462"/></g><text fill="black" stroke="none" font-family="sans-serif" font-size="11pt" font-style="normal" font-weight="normal" text-decoration="normal" x="176.09503007148436" y="391.592519724" text-anchor="start" dominant-baseline="alphabetic" xml:space="preserve">upload data</text></g><g><path fill="none" stroke="black" paint-order="fill stroke markers" d=" M 99.68662526666667 398.62922268399996 L 326.9329289464193 398.62922268399996" stroke-miterlimit="10" stroke-width="1.4659797833333332" stroke-dasharray=""/><g transform="translate(329.1318986214193,398.62922268399996) translate(-329.1318986214193,-398.62922268399996)"><path fill="none" stroke="black" paint-order="fill stroke markers" d=" M 314.0600969781303 391.9055638533286 L 327.48388338159674 398.62922268399996 L 314.0600969781303 405.3528815146713" stroke-miterlimit="10" stroke-width="1.4659797833333332"/></g></g><g><g><rect fill="white" stroke="none" x="379.2685901520117" y="425.01685878399996" width="70.47435034011718" height="22.86928462"/></g><text fill="black" stroke="none" font-family="sans-serif" font-size="11pt" font-style="normal" font-weight="normal" text-decoration="normal" x="381.9073537620117" y="440.849440444" text-anchor="start" dominant-baseline="alphabetic" xml:space="preserve">store data</text></g><g><path fill="none" stroke="black" paint-order="fill stroke markers" d=" M 346.7236560214193 447.88614340399994 L 467.80399436338803 447.88614340399994" stroke-miterlimit="10" stroke-width="1.4659797833333332" stroke-dasharray=""/><g transform="translate(482.28787462272135,447.88614340399994) translate(-482.28787462272135,-447.88614340399994)"><path fill="black" stroke="none" paint-order="stroke fill markers" d=" M 467.628076789388 440.5562444873333 L 482.28787462272135 447.88614340399994 L 467.628076789388 455.2160423206666 Z"/></g></g><g><g><rect fill="white" stroke="none" x="411.8670017120703" y="474.27377950399995" width="5.27752722" height="22.86928462"/></g><text fill="black" stroke="none" font-family="sans-serif" font-size="11pt" font-style="normal" font-weight="normal" text-decoration="normal" x="414.5057653220703" y="490.10636116399996" text-anchor="start" dominant-baseline="alphabetic" xml:space="preserve"></text></g><g><path fill="none" stroke="black" paint-order="fill stroke markers" d=" M 482.28787462272135 497.1430641239999 L 361.2075362807526 497.1430641239999" stroke-miterlimit="10" stroke-width="1.4659797833333332" stroke-dasharray="7.0367029599999995"/><g transform="translate(346.7236560214193,497.1430641239999) translate(-346.7236560214193,-497.1430641239999)"><path fill="black" stroke="none" paint-order="stroke fill markers" d=" M 361.38345385475264 489.81316520733327 L 346.7236560214193 497.1430641239999 L 361.38345385475264 504.47296304066657 Z"/></g></g><g><g><rect fill="white" stroke="none" x="376.33644764475264" y="523.5307002239999" width="99.79431188796875" height="22.86928462"/></g><text fill="black" stroke="none" font-family="sans-serif" font-size="11pt" font-style="normal" font-weight="normal" text-decoration="normal" x="378.97521125475265" y="539.3632818839999" text-anchor="start" dominant-baseline="alphabetic" xml:space="preserve">compile model</text></g><g><path fill="none" stroke="black" paint-order="fill stroke markers" d=" M 346.7236560214193 546.3999848439998 L 425.8865643214193 546.3999848439998 L 425.8865643214193 569.2692694639999 L 370.0034149807526 569.2692694639999" stroke-miterlimit="10" stroke-width="1.4659797833333332" stroke-dasharray=""/><g transform="translate(355.5195347214193,569.2692694639999) translate(-355.5195347214193,-569.2692694639999)"><path fill="black" stroke="none" paint-order="stroke fill markers" d=" M 370.17933255475265 561.9393705473332 L 355.5195347214193 569.2692694639999 L 370.17933255475265 576.5991683806666 Z"/></g></g><g><g><rect fill="white" stroke="none" x="376.33644764475264" y="595.6569055639999" width="59.858749754179684" height="22.86928462"/></g><text fill="black" stroke="none" font-family="sans-serif" font-size="11pt" font-style="normal" font-weight="normal" text-decoration="normal" x="378.97521125475265" y="611.4894872239998" text-anchor="start" dominant-baseline="alphabetic" xml:space="preserve">.kmp file</text></g><g><path fill="none" stroke="black" paint-order="fill stroke markers" d=" M 355.5195347214193 618.5261901839998 L 425.8865643214193 618.5261901839998 L 425.8865643214193 641.3954748039998 L 361.2075362807526 641.3954748039998" stroke-miterlimit="10" stroke-width="1.4659797833333332" stroke-dasharray="7.0367029599999995"/><g transform="translate(346.7236560214193,641.3954748039998) translate(-346.7236560214193,-641.3954748039998)"><path fill="black" stroke="none" paint-order="stroke fill markers" d=" M 361.38345385475264 634.0655758873331 L 346.7236560214193 641.3954748039998 L 361.38345385475264 648.7253737206665 Z"/></g></g><g><g><rect fill="white" stroke="none" x="120.50353818999999" y="667.7831109039998" width="187.81144750808593" height="22.86928462"/></g><text fill="black" stroke="none" font-family="sans-serif" font-size="11pt" font-style="normal" font-weight="normal" text-decoration="normal" x="123.14230179999998" y="683.6156925639998" text-anchor="start" dominant-baseline="alphabetic" xml:space="preserve">onPackageCompileSuccess</text></g><g><path fill="none" stroke="black" paint-order="fill stroke markers" d=" M 329.1318986214193 690.6523955239999 L 101.88559494166667 690.6523955239999" stroke-miterlimit="10" stroke-width="1.4659797833333332" stroke-dasharray=""/><g transform="translate(99.68662526666667,690.6523955239999) translate(-99.68662526666667,-690.6523955239999)"><path fill="none" stroke="black" paint-order="fill stroke markers" d=" M 114.75842690995563 683.9287366933285 L 101.33464050648918 690.6523955239999 L 114.75842690995563 697.3760543546713" stroke-miterlimit="10" stroke-width="1.4659797833333332"/></g></g><g><g><rect fill="white" stroke="none" x="56.00042772333333" y="717.0400316239999" width="5.27752722" height="22.86928462"/></g><text fill="black" stroke="none" font-family="sans-serif" font-size="11pt" font-style="normal" font-weight="normal" text-decoration="normal" x="58.63919133333333" y="732.8726132839998" text-anchor="start" dominant-baseline="alphabetic" xml:space="preserve"></text></g><g><path fill="none" stroke="black" paint-order="fill stroke markers" d=" M 82.09486786666666 739.9093162439999 L 49.66739505933333 739.9093162439999" stroke-miterlimit="10" stroke-width="1.4659797833333332" stroke-dasharray=""/><g transform="translate(35.1835148,739.9093162439999) translate(-35.1835148,-739.9093162439999)"><path fill="black" stroke="none" paint-order="stroke fill markers" d=" M 49.843312633333326 732.5794173273332 L 35.1835148 739.9093162439999 L 49.843312633333326 747.2392151606666 Z"/></g></g><g><g/><path fill="none" stroke="black" paint-order="fill stroke markers" d=" M 17.5917574 279.005272364 L 552.6549042227214 279.005272364 L 552.6549042227214 766.2969523439999 L 17.5917574 766.2969523439999 L 17.5917574 279.005272364 Z" stroke-miterlimit="10" stroke-width="2.5131082" stroke-dasharray=""/><path fill="white" stroke="black" paint-order="fill stroke markers" d=" M 17.5917574 279.005272364 L 17.5917574 300.115381244 L 118.59608824003905 300.115381244 L 129.15114268003904 289.560326804 L 129.15114268003904 279.005272364 L 17.5917574 279.005272364" stroke-miterlimit="10" stroke-width="2.5131082" stroke-dasharray=""/><text fill="black" stroke="none" font-family="sans-serif" font-size="8.8pt" font-style="normal" font-weight="bold" text-decoration="normal" x="35.1835148" y="293.078678284" text-anchor="start" dominant-baseline="alphabetic" xml:space="preserve">upload data</text></g></g><g/><g/></g></svg>