<svg version="1.1" xmlns="http://www.w3.org/2000/svg" xmlns:xlink="http://www.w3.org/1999/xlink" width="1180" height="949"><defs/><g><g/><g/><g/><g/><g/><g/><g/><g/><g/><g/><g/><g/><g/><g/><g/><g/><g/><g/><g/><g/><g/><g/><g/><g/><g/><g><rect fill="white" stroke="none" x="0" y="0" width="1180" height="949"/></g><g/><g><path fill="none" stroke="black" paint-order="fill stroke markers" d=" M 14.5271929625 54.132350628 L 14.5271929625 949.8041131080004" stroke-miterlimit="10" stroke-width="0.8377027333333333" stroke-dasharray="7.732640615384615,3.3508109333333334"/><path fill="none" stroke="black" paint-order="fill stroke markers" d=" M 103.91394526041665 54.132350628 L 103.91394526041665 949.8041131080004" stroke-miterlimit="10" stroke-width="0.8377027333333333" stroke-dasharray="7.732640615384615,3.3508109333333334"/><path fill="none" stroke="black" paint-order="fill stroke markers" d=" M 349.86466240208335 54.132350628 L 349.86466240208335 949.8041131080004" stroke-miterlimit="10" stroke-width="0.8377027333333333" stroke-dasharray="7.732640615384615,3.3508109333333334"/><path fill="none" stroke="black" paint-order="fill stroke markers" d=" M 544.9289240791667 54.132350628 L 544.9289240791667 949.8041131080004" stroke-miterlimit="10" stroke-width="0.8377027333333333" stroke-dasharray="7.732640615384615,3.3508109333333334"/><path fill="none" stroke="black" paint-order="fill stroke markers" d=" M 631.4015813676667 54.132350628 L 631.4015813676667 949.8041131080004" stroke-miterlimit="10" stroke-width="0.8377027333333333" stroke-dasharray="7.732640615384615,3.3508109333333334"/><path fill="none" stroke="black" paint-order="fill stroke markers" d=" M 705.2070023280418 54.132350628 L 705.2070023280418 949.8041131080004" stroke-miterlimit="10" stroke-width="0.8377027333333333" stroke-dasharray="7.732640615384615,3.3508109333333334"/><path fill="none" stroke="black" paint-order="fill stroke markers" d=" M 803.8525111790418 54.132350628 L 803.8525111790418 949.8041131080004" stroke-miterlimit="10" stroke-width="0.8377027333333333" stroke-dasharray="7.732640615384615,3.3508109333333334"/><path fill="none" stroke="black" paint-order="fill stroke markers" d=" M 997.7895564457085 54.132350628 L 997.7895564457085 949.8041131080004" stroke-miterlimit="10" stroke-width="0.8377027333333333" stroke-dasharray="7.732640615384615,3.3508109333333334"/><path fill="none" stroke="black" paint-order="fill stroke markers" d=" M 1130.302117744667 54.132350628 L 1130.302117744667 949.8041131080004" stroke-miterlimit="10" stroke-width="0.8377027333333333" stroke-dasharray="7.732640615384615,3.3508109333333334"/></g><g><g><path fill="white" stroke="black" paint-order="fill stroke markers" d=" M 20.257079658499997 11.610559884000002 A 5.7298866959999994 5.7298866959999994 0 1 1 20.25707679355689 11.60482999825898 M 14.5271929625 17.340446580000002 L 14.5271929625 29.604414596 M 7.289441346499999 21.763517012 L 21.7649445785 21.763517012 M 14.5271929625 29.604414596 L 7.289441346499999 41.064187988 M 14.5271929625 29.604414596 L 21.7649445785 41.064187988" stroke-miterlimit="10" stroke-width="1.708913576" stroke-dasharray=""/></g><g><g/><text fill="black" stroke="none" font-family="sans-serif" font-size="7pt" font-style="normal" font-weight="normal" text-decoration="normal" x="5.026216399999999" y="51.116620788" text-anchor="start" dominant-baseline="alphabetic" xml:space="preserve">User</text></g><path fill="none" stroke="none"/><g><path fill="white" stroke="black" paint-order="fill stroke markers" d=" M 65.74118653179166 26.990782067999998 L 142.08670398904167 26.990782067999998 L 142.08670398904167 54.132350628 L 65.74118653179166 54.132350628 L 65.74118653179166 26.990782067999998 Z" stroke-miterlimit="10" stroke-width="1.608389248" stroke-dasharray=""/></g><g><g/><text fill="black" stroke="none" font-family="sans-serif" font-size="7pt" font-style="normal" font-weight="normal" text-decoration="normal" x="76.64807611979165" y="44.079917828" text-anchor="start" dominant-baseline="alphabetic" xml:space="preserve">Upload.svelte</text></g><path fill="none" stroke="none"/><g><path fill="white" stroke="black" paint-order="fill stroke markers" d=" M 274.76685484533334 26.990782067999998 L 424.96246995883337 26.990782067999998 L 424.96246995883337 54.132350628 L 274.76685484533334 54.132350628 L 274.76685484533334 26.990782067999998 Z" stroke-miterlimit="10" stroke-width="1.608389248" stroke-dasharray=""/></g><g><g/><text fill="black" stroke="none" font-family="sans-serif" font-size="7pt" font-style="normal" font-weight="normal" text-decoration="normal" x="285.67374443333335" y="44.079917828" text-anchor="start" dominant-baseline="alphabetic" xml:space="preserve">Predictive-Text-Studio-Worker.ts</text></g><path fill="none" stroke="none"/><g><path fill="white" stroke="black" paint-order="fill stroke markers" d=" M 500.84332355366666 26.990782067999998 L 589.0145246046667 26.990782067999998 L 589.0145246046667 54.132350628 L 500.84332355366666 54.132350628 L 500.84332355366666 26.990782067999998 Z" stroke-miterlimit="10" stroke-width="1.608389248" stroke-dasharray=""/></g><g><g/><text fill="black" stroke="none" font-family="sans-serif" font-size="7pt" font-style="normal" font-weight="normal" text-decoration="normal" x="511.7502131416667" y="44.079917828" text-anchor="start" dominant-baseline="alphabetic" xml:space="preserve">Read-Wordlist.ts</text></g><path fill="none" stroke="none"/><g><path fill="white" stroke="black" paint-order="fill stroke markers" d=" M 599.0669574046667 26.990782067999998 L 663.7362053306667 26.990782067999998 L 663.7362053306667 54.132350628 L 599.0669574046667 54.132350628 L 599.0669574046667 26.990782067999998 Z" stroke-miterlimit="10" stroke-width="1.608389248" stroke-dasharray=""/></g><g><g/><text fill="black" stroke="none" font-family="sans-serif" font-size="7pt" font-style="normal" font-weight="normal" text-decoration="normal" x="609.9738469926667" y="44.079917828" text-anchor="start" dominant-baseline="alphabetic" xml:space="preserve">Worksheet</text></g><path fill="none" stroke="none"/><g><path fill="white" stroke="black" paint-order="fill stroke markers" d=" M 673.7886381306668 26.990782067999998 L 736.6253665254168 26.990782067999998 L 736.6253665254168 54.132350628 L 673.7886381306668 54.132350628 L 673.7886381306668 26.990782067999998 Z" stroke-miterlimit="10" stroke-width="1.608389248" stroke-dasharray=""/></g><g><g/><text fill="black" stroke="none" font-family="sans-serif" font-size="7pt" font-style="normal" font-weight="normal" text-decoration="normal" x="684.6955277186668" y="44.079917828" text-anchor="start" dominant-baseline="alphabetic" xml:space="preserve">Storage.ts</text></g><path fill="none" stroke="none"/><g><path fill="white" stroke="black" paint-order="fill stroke markers" d=" M 746.6777993254168 26.990782067999998 L 861.0272230326668 26.990782067999998 L 861.0272230326668 54.132350628 L 746.6777993254168 54.132350628 L 746.6777993254168 26.990782067999998 Z" stroke-miterlimit="10" stroke-width="1.608389248" stroke-dasharray=""/></g><g><g/><text fill="black" stroke="none" font-family="sans-serif" font-size="7pt" font-style="normal" font-weight="normal" text-decoration="normal" x="757.5846889134168" y="44.079917828" text-anchor="start" dominant-baseline="alphabetic" xml:space="preserve">Link-Storage-to-Kmp.ts</text></g><path fill="none" stroke="none"/><g><path fill="white" stroke="black" paint-order="fill stroke markers" d=" M 924.8604500608335 26.990782067999998 L 1070.7186628305835 26.990782067999998 L 1070.7186628305835 54.132350628 L 924.8604500608335 54.132350628 L 924.8604500608335 26.990782067999998 Z" stroke-miterlimit="10" stroke-width="1.608389248" stroke-dasharray=""/></g><g><g/><text fill="black" stroke="none" font-family="sans-serif" font-size="7pt" font-style="normal" font-weight="normal" text-decoration="normal" x="935.7673396488335" y="44.079917828" text-anchor="start" dominant-baseline="alphabetic" xml:space="preserve">Generate-Storage-from-Kmp.ts</text></g><path fill="none" stroke="none"/><g><path fill="white" stroke="black" paint-order="fill stroke markers" d=" M 1085.131068000417 26.990782067999998 L 1175.473167488917 26.990782067999998 L 1175.473167488917 54.132350628 L 1085.131068000417 54.132350628 L 1085.131068000417 26.990782067999998 Z" stroke-miterlimit="10" stroke-width="1.608389248" stroke-dasharray=""/></g><g><g/><text fill="black" stroke="none" font-family="sans-serif" font-size="7pt" font-style="normal" font-weight="normal" text-decoration="normal" x="1096.037957588417" y="44.079917828" text-anchor="start" dominant-baseline="alphabetic" xml:space="preserve">Generate-Kmp.ts</text></g></g><g><path fill="white" stroke="black" paint-order="fill stroke markers" d=" M 9.5009765625 59.158567028 L 19.5534093625 59.158567028 L 19.5534093625 125.50462350800001 L 9.5009765625 125.50462350800001 L 9.5009765625 59.158567028" stroke-miterlimit="10" stroke-width="0.8377027333333333" stroke-dasharray=""/><path fill="white" stroke="black" paint-order="fill stroke markers" d=" M 98.88772886041666 125.50462350800001 L 108.94016166041665 125.50462350800001 L 108.94016166041665 914.6205983080004 L 98.88772886041666 914.6205983080004 L 98.88772886041666 125.50462350800001" stroke-miterlimit="10" stroke-width="0.8377027333333333" stroke-dasharray=""/><path fill="white" stroke="black" paint-order="fill stroke markers" d=" M 344.83844600208334 191.85067998800002 L 354.89087880208336 191.85067998800002 L 354.89087880208336 886.4737864680003 L 344.83844600208334 886.4737864680003 L 344.83844600208334 191.85067998800002" stroke-miterlimit="10" stroke-width="0.8377027333333333" stroke-dasharray=""/><path fill="white" stroke="black" paint-order="fill stroke markers" d=" M 539.9027076791667 258.19673646800004 L 549.9551404791666 258.19673646800004 L 549.9551404791666 384.857389748 L 539.9027076791667 384.857389748 L 539.9027076791667 258.19673646800004" stroke-miterlimit="10" stroke-width="0.8377027333333333" stroke-dasharray=""/><path fill="white" stroke="black" paint-order="fill stroke markers" d=" M 626.3753649676668 313.48511686800003 L 636.4277977676667 313.48511686800003 L 636.4277977676667 341.63192870800003 L 626.3753649676668 341.63192870800003 L 626.3753649676668 313.48511686800003" stroke-miterlimit="10" stroke-width="0.8377027333333333" stroke-dasharray=""/><path fill="white" stroke="black" paint-order="fill stroke markers" d=" M 700.1807859280418 451.203446228 L 710.2332187280417 451.203446228 L 710.2332187280417 451.203446228 L 700.1807859280418 451.203446228 L 700.1807859280418 451.203446228" stroke-miterlimit="10" stroke-width="0.8377027333333333" stroke-dasharray=""/><path fill="white" stroke="black" paint-order="fill stroke markers" d=" M 349.86466240208335 492.41842070800004 L 359.9170952020834 492.41842070800004 L 359.9170952020834 858.3269746280002 L 349.86466240208335 858.3269746280002 L 349.86466240208335 492.41842070800004" stroke-miterlimit="10" stroke-width="0.8377027333333333" stroke-dasharray=""/><path fill="white" stroke="black" paint-order="fill stroke markers" d=" M 798.8262947790419 599.979451668 L 808.8787275790418 599.979451668 L 808.8787275790418 939.7516803080003 L 798.8262947790419 939.7516803080003 L 798.8262947790419 599.979451668" stroke-miterlimit="10" stroke-width="0.8377027333333333" stroke-dasharray=""/><path fill="white" stroke="black" paint-order="fill stroke markers" d=" M 992.7633400457086 666.325508148 L 1002.8157728457085 666.325508148 L 1002.8157728457085 694.4723199880001 L 992.7633400457086 694.4723199880001 L 992.7633400457086 666.325508148" stroke-miterlimit="10" stroke-width="0.8377027333333333" stroke-dasharray=""/><path fill="white" stroke="black" paint-order="fill stroke markers" d=" M 1125.2759013446669 760.8183764680001 L 1135.328334144667 760.8183764680001 L 1135.328334144667 788.9651883080002 L 1125.2759013446669 788.9651883080002 L 1125.2759013446669 760.8183764680001" stroke-miterlimit="10" stroke-width="0.8377027333333333" stroke-dasharray=""/><path fill="white" stroke="black" paint-order="fill stroke markers" d=" M 9.5009765625 886.4737864680003 L 19.5534093625 886.4737864680003 L 19.5534093625 914.6205983080004 L 9.5009765625 914.6205983080004 L 9.5009765625 886.4737864680003" stroke-miterlimit="10" stroke-width="0.8377027333333333" stroke-dasharray=""/><path fill="white" stroke="black" paint-order="fill stroke markers" d=" M 81.83370340291665 74.23721622800001 L 116.94699759791665 74.23721622800001 L 125.99418711791665 83.28440574800001 L 125.99418711791665 97.35781166800001 L 81.83370340291665 97.35781166800001 L 81.83370340291665 74.23721622800001 M 116.94699759791665 74.23721622800001 L 116.94699759791665 83.28440574800001 L 125.99418711791665 83.28440574800001" stroke-miterlimit="10" stroke-width="0.8377027333333333" stroke-dasharray=""/><g><text fill="black" stroke="none" font-family="sans-serif" font-size="7pt" font-style="normal" font-weight="normal" text-decoration="normal" x="95.90710932291665" y="88.31062214800002" text-anchor="start" dominant-baseline="alphabetic" xml:space="preserve">App</text></g><g><g><rect fill="white" stroke="none" x="31.448788175833325" y="112.43646086800001" width="55.54356187125" height="13.06816264"/></g><text fill="black" stroke="none" font-family="sans-serif" font-size="7pt" font-style="normal" font-weight="normal" text-decoration="normal" x="32.956653095833325" y="121.48365038800002" text-anchor="start" dominant-baseline="alphabetic" xml:space="preserve">handleDrop()</text></g><g><path fill="none" stroke="black" paint-order="fill stroke markers" d=" M 19.5534093625 125.50462350800001 L 90.61122585508332 125.50462350800001" stroke-miterlimit="10" stroke-width="0.8377027333333333" stroke-dasharray=""/><g transform="translate(98.88772886041666,125.50462350800001) translate(-98.88772886041666,-125.50462350800001)"><path fill="black" stroke="none" paint-order="stroke fill markers" d=" M 90.51070152708333 121.31610984133334 L 98.88772886041666 125.50462350800001 L 90.51070152708333 129.69313717466667 Z"/></g></g><path fill="white" stroke="black" paint-order="fill stroke markers" d=" M 321.3706021852084 140.58327270800004 L 369.31153309895836 140.58327270800004 L 378.3587226189584 149.63046222800003 L 378.3587226189584 163.70386814800003 L 321.3706021852084 163.70386814800003 L 321.3706021852084 140.58327270800004 M 369.31153309895836 140.58327270800004 L 369.31153309895836 149.63046222800003 L 378.3587226189584 149.63046222800003" stroke-miterlimit="10" stroke-width="0.8377027333333333" stroke-dasharray=""/><g><text fill="black" stroke="none" font-family="sans-serif" font-size="7pt" font-style="normal" font-weight="normal" text-decoration="normal" x="335.44400810520835" y="154.656678628" text-anchor="start" dominant-baseline="alphabetic" xml:space="preserve">Worker</text></g><g><g><rect fill="white" stroke="none" x="120.83554047375" y="178.78251734800003" width="212.107526715" height="13.06816264"/></g><text fill="black" stroke="none" font-family="sans-serif" font-size="7pt" font-style="normal" font-weight="normal" text-decoration="normal" x="122.34340539375" y="187.82970686800002" text-anchor="start" dominant-baseline="alphabetic" xml:space="preserve">worker.addDictionarySourceToProject(file.name, file)</text></g><g><path fill="none" stroke="black" paint-order="fill stroke markers" d=" M 108.94016166041665 191.85067998800002 L 336.56194299675 191.85067998800002" stroke-miterlimit="10" stroke-width="0.8377027333333333" stroke-dasharray=""/><g transform="translate(344.83844600208334,191.85067998800002) translate(-344.83844600208334,-191.85067998800002)"><path fill="black" stroke="none" paint-order="stroke fill markers" d=" M 336.46141866875 187.66216632133336 L 344.83844600208334 191.85067998800002 L 336.46141866875 196.0391936546667 Z"/></g></g><path fill="white" stroke="black" paint-order="fill stroke markers" d=" M 516.4348638622916 206.92932918800005 L 564.3757947760417 206.92932918800005 L 573.4229842960417 215.97651870800004 L 573.4229842960417 230.04992462800004 L 516.4348638622916 230.04992462800004 L 516.4348638622916 206.92932918800005 M 564.3757947760417 206.92932918800005 L 564.3757947760417 215.97651870800004 L 573.4229842960417 215.97651870800004" stroke-miterlimit="10" stroke-width="0.8377027333333333" stroke-dasharray=""/><g><text fill="black" stroke="none" font-family="sans-serif" font-size="7pt" font-style="normal" font-weight="normal" text-decoration="normal" x="530.5082697822917" y="221.00273510800002" text-anchor="start" dominant-baseline="alphabetic" xml:space="preserve">Worker</text></g><g><g><rect fill="white" stroke="none" x="390.70240488312504" y="245.12857382800004" width="113.388776715" height="13.06816264"/></g><text fill="black" stroke="none" font-family="sans-serif" font-size="7pt" font-style="normal" font-weight="normal" text-decoration="normal" x="392.210269803125" y="254.17576334800003" text-anchor="start" dominant-baseline="alphabetic" xml:space="preserve">readExcel(file.arrayBuffer())</text></g><g><path fill="none" stroke="black" paint-order="fill stroke markers" d=" M 354.89087880208336 258.19673646800004 L 531.6262046738334 258.19673646800004" stroke-miterlimit="10" stroke-width="0.8377027333333333" stroke-dasharray=""/><g transform="translate(539.9027076791667,258.19673646800004) translate(-539.9027076791667,-258.19673646800004)"><path fill="black" stroke="none" paint-order="stroke fill markers" d=" M 531.5256803458334 254.00822280133337 L 539.9027076791667 258.19673646800004 L 531.5256803458334 262.3852501346667 Z"/></g></g><g><g><rect fill="white" stroke="none" x="568.4025049909167" y="300.416954228" width="39.525495465" height="13.06816264"/></g><text fill="black" stroke="none" font-family="sans-serif" font-size="7pt" font-style="normal" font-weight="normal" text-decoration="normal" x="569.9103699109166" y="309.464143748" text-anchor="start" dominant-baseline="alphabetic" xml:space="preserve">getRow()</text></g><g><path fill="none" stroke="black" paint-order="fill stroke markers" d=" M 549.9551404791666 313.48511686800003 L 618.0988619623334 313.48511686800003" stroke-miterlimit="10" stroke-width="0.8377027333333333" stroke-dasharray=""/><g transform="translate(626.3753649676668,313.48511686800003) translate(-626.3753649676668,-313.48511686800003)"><path fill="black" stroke="none" paint-order="stroke fill markers" d=" M 617.9983376343334 309.29660320133337 L 626.3753649676668 313.48511686800003 L 617.9983376343334 317.6736305346667 Z"/></g></g><g><g><rect fill="white" stroke="none" x="579.4064112409167" y="328.563766068" width="17.517682965" height="13.06816264"/></g><text fill="black" stroke="none" font-family="sans-serif" font-size="7pt" font-style="normal" font-weight="normal" text-decoration="normal" x="580.9142761609166" y="337.610955588" text-anchor="start" dominant-baseline="alphabetic" xml:space="preserve">row</text></g><g><path fill="none" stroke="black" paint-order="fill stroke markers" d=" M 626.3753649676668 341.63192870800003 L 558.2316434845 341.63192870800003" stroke-miterlimit="10" stroke-width="0.8377027333333333" stroke-dasharray="4.02097312"/><g transform="translate(549.9551404791666,341.63192870800003) translate(-549.9551404791666,-341.63192870800003)"><path fill="black" stroke="none" paint-order="stroke fill markers" d=" M 558.3321678125 337.44341504133337 L 549.9551404791666 341.63192870800003 L 558.3321678125 345.8204423746667 Z"/></g></g><g><g><rect fill="white" stroke="none" x="429.13258066437504" y="371.789227108" width="36.5284251525" height="13.06816264"/></g><text fill="black" stroke="none" font-family="sans-serif" font-size="7pt" font-style="normal" font-weight="normal" text-decoration="normal" x="430.640445584375" y="380.836416628" text-anchor="start" dominant-baseline="alphabetic" xml:space="preserve">wordList</text></g><g><path fill="none" stroke="black" paint-order="fill stroke markers" d=" M 539.9027076791667 384.857389748 L 363.1673818074167 384.857389748" stroke-miterlimit="10" stroke-width="0.8377027333333333" stroke-dasharray="4.02097312"/><g transform="translate(354.89087880208336,384.857389748) translate(-354.89087880208336,-384.857389748)"><path fill="black" stroke="none" paint-order="stroke fill markers" d=" M 363.2679061354167 380.66887608133334 L 354.89087880208336 384.857389748 L 363.2679061354167 389.04590341466667 Z"/></g></g><path fill="white" stroke="black" paint-order="fill stroke markers" d=" M 676.7129421111667 399.93603894800003 L 724.6538730249168 399.93603894800003 L 733.7010625449168 408.98322846800005 L 733.7010625449168 423.056634388 L 676.7129421111667 423.056634388 L 676.7129421111667 399.93603894800003 M 724.6538730249168 399.93603894800003 L 724.6538730249168 408.98322846800005 L 733.7010625449168 408.98322846800005" stroke-miterlimit="10" stroke-width="0.8377027333333333" stroke-dasharray=""/><g><text fill="black" stroke="none" font-family="sans-serif" font-size="7pt" font-style="normal" font-weight="normal" text-decoration="normal" x="690.7863480311668" y="414.00944486800006" text-anchor="start" dominant-baseline="alphabetic" xml:space="preserve">Worker</text></g><g><g><rect fill="white" stroke="none" x="475.7611217419376" y="438.135283588" width="103.54942124625" height="13.06816264"/></g><text fill="black" stroke="none" font-family="sans-serif" font-size="7pt" font-style="normal" font-weight="normal" text-decoration="normal" x="477.26898666193756" y="447.182473108" text-anchor="start" dominant-baseline="alphabetic" xml:space="preserve">saveFile(name, wordList)</text></g><g><path fill="none" stroke="black" paint-order="fill stroke markers" d=" M 354.89087880208336 451.203446228 L 691.9042829227085 451.203446228" stroke-miterlimit="10" stroke-width="0.8377027333333333" stroke-dasharray=""/><g transform="translate(700.1807859280418,451.203446228) translate(-700.1807859280418,-451.203446228)"><path fill="black" stroke="none" paint-order="stroke fill markers" d=" M 691.8037585947085 447.01493256133335 L 700.1807859280418 451.203446228 L 691.8037585947085 455.3919598946667 Z"/></g></g><g><g><rect fill="white" stroke="none" x="371.81247401541674" y="466.28209542800005" width="116.5616282775" height="13.06816264"/></g><text fill="black" stroke="none" font-family="sans-serif" font-size="7pt" font-style="normal" font-weight="normal" text-decoration="normal" x="373.3203389354167" y="475.32928494800007" text-anchor="start" dominant-baseline="alphabetic" xml:space="preserve">generateKMPFromStorage()</text></g><g><path fill="none" stroke="black" paint-order="fill stroke markers" d=" M 354.89087880208336 479.350258068 L 400.1268264020834 479.350258068 L 400.1268264020834 492.41842070800004 L 368.1935982074167 492.41842070800004" stroke-miterlimit="10" stroke-width="0.8377027333333333" stroke-dasharray=""/><g transform="translate(359.9170952020834,492.41842070800004) translate(-359.9170952020834,-492.41842070800004)"><path fill="black" stroke="none" paint-order="stroke fill markers" d=" M 368.2941225354167 488.2299070413334 L 359.9170952020834 492.41842070800004 L 368.2941225354167 496.6069343746667 Z"/></g></g><g><g><rect fill="white" stroke="none" x="371.81247401541674" y="507.497069908" width="118.06016343375" height="13.06816264"/></g><text fill="black" stroke="none" font-family="sans-serif" font-size="7pt" font-style="normal" font-weight="normal" text-decoration="normal" x="373.3203389354167" y="516.544259428" text-anchor="start" dominant-baseline="alphabetic" xml:space="preserve">_emitPackageCompileStart()</text></g><g><path fill="none" stroke="black" paint-order="fill stroke markers" d=" M 359.9170952020834 520.565232548 L 400.1268264020834 520.565232548 L 400.1268264020834 533.633395188 L 368.1935982074167 533.633395188" stroke-miterlimit="10" stroke-width="0.8377027333333333" stroke-dasharray=""/><g transform="translate(359.9170952020834,533.633395188) translate(-359.9170952020834,-533.633395188)"><path fill="black" stroke="none" paint-order="stroke fill markers" d=" M 368.2941225354167 529.4448815213333 L 359.9170952020834 533.633395188 L 368.2941225354167 537.8219088546667 Z"/></g></g><path fill="white" stroke="black" paint-order="fill stroke markers" d=" M 775.3584509621668 548.712044388 L 823.2993818759169 548.712044388 L 832.3465713959168 557.7592339079999 L 832.3465713959168 571.832639828 L 775.3584509621668 571.832639828 L 775.3584509621668 548.712044388 M 823.2993818759169 548.712044388 L 823.2993818759169 557.7592339079999 L 832.3465713959168 557.7592339079999" stroke-miterlimit="10" stroke-width="0.8377027333333333" stroke-dasharray=""/><g><text fill="black" stroke="none" font-family="sans-serif" font-size="7pt" font-style="normal" font-weight="normal" text-decoration="normal" x="789.4318568821668" y="562.785450308" text-anchor="start" dominant-baseline="alphabetic" xml:space="preserve">Worker</text></g><g><g><rect fill="white" stroke="none" x="523.3386835861877" y="586.911289028" width="112.06602280875" height="13.06816264"/></g><text fill="black" stroke="none" font-family="sans-serif" font-size="7pt" font-style="normal" font-weight="normal" text-decoration="normal" x="524.8465485061877" y="595.9584785480001" text-anchor="start" dominant-baseline="alphabetic" xml:space="preserve">linkStorageToKmp(storage)</text></g><g><path fill="none" stroke="black" paint-order="fill stroke markers" d=" M 359.9170952020834 599.979451668 L 790.5497917737085 599.979451668" stroke-miterlimit="10" stroke-width="0.8377027333333333" stroke-dasharray=""/><g transform="translate(798.8262947790419,599.979451668) translate(-798.8262947790419,-599.979451668)"><path fill="black" stroke="none" paint-order="stroke fill markers" d=" M 790.4492674457085 595.7909380013333 L 798.8262947790419 599.979451668 L 790.4492674457085 604.1679653346667 Z"/></g></g><path fill="white" stroke="black" paint-order="fill stroke markers" d=" M 969.2954962288335 615.058100868 L 1017.2364271425835 615.058100868 L 1026.2836166625834 624.105290388 L 1026.2836166625834 638.178696308 L 969.2954962288335 638.178696308 L 969.2954962288335 615.058100868 M 1017.2364271425835 615.058100868 L 1017.2364271425835 624.105290388 L 1026.2836166625834 624.105290388" stroke-miterlimit="10" stroke-width="0.8377027333333333" stroke-dasharray=""/><g><text fill="black" stroke="none" font-family="sans-serif" font-size="7pt" font-style="normal" font-weight="normal" text-decoration="normal" x="983.3689021488335" y="629.131506788" text-anchor="start" dominant-baseline="alphabetic" xml:space="preserve">Worker</text></g><g><g><rect fill="white" stroke="none" x="820.7741063923752" y="653.2573455080001" width="160.09385484" height="13.06816264"/></g><text fill="black" stroke="none" font-family="sans-serif" font-size="7pt" font-style="normal" font-weight="normal" text-decoration="normal" x="822.2819713123752" y="662.3045350280001" text-anchor="start" dominant-baseline="alphabetic" xml:space="preserve">generateSourcesFromStorage(storage)</text></g><g><path fill="none" stroke="black" paint-order="fill stroke markers" d=" M 808.8787275790418 666.325508148 L 984.4868370403752 666.325508148" stroke-miterlimit="10" stroke-width="0.8377027333333333" stroke-dasharray=""/><g transform="translate(992.7633400457086,666.325508148) translate(-992.7633400457086,-666.325508148)"><path fill="black" stroke="none" paint-order="stroke fill markers" d=" M 984.3863127123752 662.1369944813333 L 992.7633400457086 666.325508148 L 984.3863127123752 670.5140218146668 Z"/></g></g><g><g><rect fill="white" stroke="none" x="883.5565770955002" y="681.4041573480001" width="34.52891343375" height="13.06816264"/></g><text fill="black" stroke="none" font-family="sans-serif" font-size="7pt" font-style="normal" font-weight="normal" text-decoration="normal" x="885.0644420155002" y="690.4513468680002" text-anchor="start" dominant-baseline="alphabetic" xml:space="preserve">sources</text></g><g><path fill="none" stroke="black" paint-order="fill stroke markers" d=" M 992.7633400457086 694.4723199880001 L 817.1552305843751 694.4723199880001" stroke-miterlimit="10" stroke-width="0.8377027333333333" stroke-dasharray="4.02097312"/><g transform="translate(808.8787275790418,694.4723199880001) translate(-808.8787275790418,-694.4723199880001)"><path fill="black" stroke="none" paint-order="stroke fill markers" d=" M 817.2557549123751 690.2838063213334 L 808.8787275790418 694.4723199880001 L 817.2557549123751 698.6608336546668 Z"/></g></g><path fill="white" stroke="black" paint-order="fill stroke markers" d=" M 1101.808057527792 709.5509691880001 L 1149.748988441542 709.5509691880001 L 1158.796177961542 718.598158708 L 1158.796177961542 732.671564628 L 1101.808057527792 732.671564628 L 1101.808057527792 709.5509691880001 M 1149.748988441542 709.5509691880001 L 1149.748988441542 718.598158708 L 1158.796177961542 718.598158708" stroke-miterlimit="10" stroke-width="0.8377027333333333" stroke-dasharray=""/><g><text fill="black" stroke="none" font-family="sans-serif" font-size="7pt" font-style="normal" font-weight="normal" text-decoration="normal" x="1115.881463447792" y="723.6243751080001" text-anchor="start" dominant-baseline="alphabetic" xml:space="preserve">Worker</text></g><g><g><rect fill="white" stroke="none" x="856.5125647762293" y="747.7502138280001" width="221.12949937125" height="13.06816264"/></g><text fill="black" stroke="none" font-family="sans-serif" font-size="7pt" font-style="normal" font-weight="normal" text-decoration="normal" x="858.0204296962293" y="756.7974033480002" text-anchor="start" dominant-baseline="alphabetic" xml:space="preserve">generateKmp(langName, bcp47tag, sources, modelID)</text></g><g><path fill="none" stroke="black" paint-order="fill stroke markers" d=" M 808.8787275790418 760.8183764680001 L 1116.9993983393335 760.8183764680001" stroke-miterlimit="10" stroke-width="0.8377027333333333" stroke-dasharray=""/><g transform="translate(1125.2759013446669,760.8183764680001) translate(-1125.2759013446669,-760.8183764680001)"><path fill="black" stroke="none" paint-order="stroke fill markers" d=" M 1116.8988740113334 756.6298628013334 L 1125.2759013446669 760.8183764680001 L 1116.8988740113334 765.0068901346668 Z"/></g></g><g><g><rect fill="white" stroke="none" x="949.8172522762293" y="775.8970256680002" width="34.52012437125" height="13.06816264"/></g><text fill="black" stroke="none" font-family="sans-serif" font-size="7pt" font-style="normal" font-weight="normal" text-decoration="normal" x="951.3251171962293" y="784.9442151880003" text-anchor="start" dominant-baseline="alphabetic" xml:space="preserve">kmpFile</text></g><g><path fill="none" stroke="black" paint-order="fill stroke markers" d=" M 1125.2759013446669 788.9651883080002 L 817.1552305843751 788.9651883080002" stroke-miterlimit="10" stroke-width="0.8377027333333333" stroke-dasharray="4.02097312"/><g transform="translate(808.8787275790418,788.9651883080002) translate(-808.8787275790418,-788.9651883080002)"><path fill="black" stroke="none" paint-order="stroke fill markers" d=" M 817.2557549123751 784.7766746413334 L 808.8787275790418 788.9651883080002 L 817.2557549123751 793.1537019746669 Z"/></g></g><g><g><rect fill="white" stroke="none" x="562.1116328049377" y="804.0438375080003" width="34.52012437125" height="13.06816264"/></g><text fill="black" stroke="none" font-family="sans-serif" font-size="7pt" font-style="normal" font-weight="normal" text-decoration="normal" x="563.6194977249377" y="813.0910270280003" text-anchor="start" dominant-baseline="alphabetic" xml:space="preserve">kmpFile</text></g><g><path fill="none" stroke="black" paint-order="fill stroke markers" d=" M 798.8262947790419 817.1120001480002 L 368.1935982074167 817.1120001480002" stroke-miterlimit="10" stroke-width="0.8377027333333333" stroke-dasharray="4.02097312"/><g transform="translate(359.9170952020834,817.1120001480002) translate(-359.9170952020834,-817.1120001480002)"><path fill="black" stroke="none" paint-order="stroke fill markers" d=" M 368.2941225354167 812.9234864813335 L 359.9170952020834 817.1120001480002 L 368.2941225354167 821.3005138146669 Z"/></g></g><g><g><rect fill="white" stroke="none" x="371.81247401541674" y="832.1906493480002" width="164.57188218375" height="13.06816264"/></g><text fill="black" stroke="none" font-family="sans-serif" font-size="7pt" font-style="normal" font-weight="normal" text-decoration="normal" x="373.3203389354167" y="841.2378388680003" text-anchor="start" dominant-baseline="alphabetic" xml:space="preserve">_emitPackageCompileSuccess(kmpFile)</text></g><g><path fill="none" stroke="black" paint-order="fill stroke markers" d=" M 359.9170952020834 845.2588119880003 L 400.1268264020834 845.2588119880003 L 400.1268264020834 858.3269746280002 L 368.1935982074167 858.3269746280002" stroke-miterlimit="10" stroke-width="0.8377027333333333" stroke-dasharray=""/><g transform="translate(359.9170952020834,858.3269746280002) translate(-359.9170952020834,-858.3269746280002)"><path fill="black" stroke="none" paint-order="stroke fill markers" d=" M 368.2941225354167 854.1384609613335 L 359.9170952020834 858.3269746280002 L 368.2941225354167 862.515488294667 Z"/></g></g><g><g><rect fill="white" stroke="none" x="195.114104926875" y="873.4056238280003" width="63.55039780875" height="13.06816264"/></g><text fill="black" stroke="none" font-family="sans-serif" font-size="7pt" font-style="normal" font-weight="normal" text-decoration="normal" x="196.621969846875" y="882.4528133480004" text-anchor="start" dominant-baseline="alphabetic" xml:space="preserve">wordList.length</text></g><g><path fill="none" stroke="black" paint-order="fill stroke markers" d=" M 344.83844600208334 886.4737864680003 L 117.21666466574999 886.4737864680003" stroke-miterlimit="10" stroke-width="0.8377027333333333" stroke-dasharray="4.02097312"/><g transform="translate(108.94016166041665,886.4737864680003) translate(-108.94016166041665,-886.4737864680003)"><path fill="black" stroke="none" paint-order="stroke fill markers" d=" M 117.31718899374998 882.2852728013336 L 108.94016166041665 886.4737864680003 L 117.31718899374998 890.662300134667 Z"/></g></g><g><g><rect fill="white" stroke="none" x="40.71026278520832" y="901.5524356680004" width="37.0206126525" height="13.06816264"/></g><text fill="black" stroke="none" font-family="sans-serif" font-size="7pt" font-style="normal" font-weight="normal" text-decoration="normal" x="42.218127705208325" y="910.5996251880005" text-anchor="start" dominant-baseline="alphabetic" xml:space="preserve"> kmpFile</text></g><g><path fill="none" stroke="black" paint-order="fill stroke markers" d=" M 98.88772886041666 914.6205983080004 L 27.82991236783333 914.6205983080004" stroke-miterlimit="10" stroke-width="0.8377027333333333" stroke-dasharray="4.02097312"/><g transform="translate(19.5534093625,914.6205983080004) translate(-19.5534093625,-914.6205983080004)"><path fill="black" stroke="none" paint-order="stroke fill markers" d=" M 27.930436695833333 910.4320846413336 L 19.5534093625 914.6205983080004 L 27.930436695833333 918.8091119746671 Z"/></g></g><g><g/><path fill="none" stroke="black" paint-order="fill stroke markers" d=" M 504.71919287916666 273.275385668 L 666.5850961676667 273.275385668 L 666.5850961676667 356.710577908 L 504.71919287916666 356.710577908 L 504.71919287916666 273.275385668 Z" stroke-miterlimit="10" stroke-width="1.4360618285714286" stroke-dasharray=""/><path fill="white" stroke="black" paint-order="fill stroke markers" d=" M 504.71919287916666 273.275385668 L 504.71919287916666 285.33830502800004 L 539.5965194166666 285.33830502800004 L 545.6279790966666 279.306845348 L 545.6279790966666 273.275385668 L 504.71919287916666 273.275385668" stroke-miterlimit="10" stroke-width="1.4360618285714286" stroke-dasharray=""/><text fill="black" stroke="none" font-family="sans-serif" font-size="5.6000000000000005pt" font-style="normal" font-weight="bold" text-decoration="normal" x="514.7716256791666" y="281.317331908" text-anchor="start" dominant-baseline="alphabetic" xml:space="preserve">loop</text><text fill="black" stroke="none" font-family="sans-serif" font-size="5.6000000000000005pt" font-style="normal" font-weight="bold" text-decoration="normal" x="555.6804118966667" y="281.317331908" text-anchor="start" dominant-baseline="alphabetic" xml:space="preserve">[for each row in sheet]</text></g></g><g/><g/><g/><g/><g/><g/><g/><g/><g/></g></svg>