<svg version="1.1" xmlns="http://www.w3.org/2000/svg" xmlns:xlink="http://www.w3.org/1999/xlink" width="1045" height="853"><defs/><g><g/><g/><g/><g/><g/><g/><g/><g/><g/><g/><g/><g/><g/><g/><g/><g/><g/><g/><g/><g/><g/><g/><g/><g/><g/><g><rect fill="white" stroke="none" x="0" y="0" width="1045" height="853"/></g><g><text fill="black" stroke="none" font-family="sans-serif" font-size="9pt" font-style="normal" font-weight="normal" text-decoration="normal" x="476.0059865549167" y="13.19381805" text-anchor="start" dominant-baseline="alphabetic" xml:space="preserve">Excel File Upload</text></g><g/><g><path fill="none" stroke="black" paint-order="fill stroke markers" d=" M 12.84325185 69.35550354949999 L 12.84325185 853.0682957194997" stroke-miterlimit="10" stroke-width="0.7329898916666666" stroke-dasharray="6.766060538461538,2.9319595666666665"/><path fill="none" stroke="black" paint-order="fill stroke markers" d=" M 91.78621333333334 69.35550354949999 L 91.78621333333334 853.0682957194997" stroke-miterlimit="10" stroke-width="0.7329898916666666" stroke-dasharray="6.766060538461538,2.9319595666666665"/><path fill="none" stroke="black" paint-order="fill stroke markers" d=" M 309.89714356666667 69.35550354949999 L 309.89714356666667 853.0682957194997" stroke-miterlimit="10" stroke-width="0.7329898916666666" stroke-dasharray="6.766060538461538,2.9319595666666665"/><path fill="none" stroke="black" paint-order="fill stroke markers" d=" M 482.8222079833333 69.35550354949999 L 482.8222079833333 853.0682957194997" stroke-miterlimit="10" stroke-width="0.7329898916666666" stroke-dasharray="6.766060538461538,2.9319595666666665"/><path fill="none" stroke="black" paint-order="fill stroke markers" d=" M 559.2442059623334 69.35550354949999 L 559.2442059623334 853.0682957194997" stroke-miterlimit="10" stroke-width="0.7329898916666666" stroke-dasharray="6.766060538461538,2.9319595666666665"/><path fill="none" stroke="black" paint-order="fill stroke markers" d=" M 624.4064383163334 69.35550354949999 L 624.4064383163334 853.0682957194997" stroke-miterlimit="10" stroke-width="0.7329898916666666" stroke-dasharray="6.766060538461538,2.9319595666666665"/><path fill="none" stroke="black" paint-order="fill stroke markers" d=" M 711.6487487953334 69.35550354949999 L 711.6487487953334 853.0682957194997" stroke-miterlimit="10" stroke-width="0.7329898916666666" stroke-dasharray="6.766060538461538,2.9319595666666665"/><path fill="none" stroke="black" paint-order="fill stroke markers" d=" M 883.5253040286667 69.35550354949999 L 883.5253040286667 853.0682957194997" stroke-miterlimit="10" stroke-width="0.7329898916666666" stroke-dasharray="6.766060538461538,2.9319595666666665"/><path fill="none" stroke="black" paint-order="fill stroke markers" d=" M 1000.9884741203334 69.35550354949999 L 1000.9884741203334 853.0682957194997" stroke-miterlimit="10" stroke-width="0.7329898916666666" stroke-dasharray="6.766060538461538,2.9319595666666665"/></g><g><g><path fill="white" stroke="black" paint-order="fill stroke markers" d=" M 17.856902709 32.14893664849999 A 5.013650858999999 5.013650858999999 0 1 1 17.856900202174778 32.1439229984766 M 12.84325185 37.162587507499985 L 12.84325185 47.89355952149998 M 6.5102191860000005 41.03277413549999 L 19.176284514 41.03277413549999 M 12.84325185 47.89355952149998 L 6.5102191860000005 57.920861239499985 M 12.84325185 47.89355952149998 L 19.176284514 57.920861239499985" stroke-miterlimit="10" stroke-width="1.495299379" stroke-dasharray=""/></g><g><g/><text fill="black" stroke="none" font-family="sans-serif" font-size="6pt" font-style="normal" font-weight="normal" text-decoration="normal" x="4.39793935" y="66.71673993949999" text-anchor="start" dominant-baseline="alphabetic" xml:space="preserve">User</text></g><path fill="none" stroke="none"/><g><path fill="white" stroke="black" paint-order="fill stroke markers" d=" M 58.00635681883333 45.60663105949999 L 125.56606984783335 45.60663105949999 L 125.56606984783335 69.35550354949999 L 58.00635681883333 69.35550354949999 L 58.00635681883333 45.60663105949999 Z" stroke-miterlimit="10" stroke-width="1.407340592" stroke-dasharray=""/></g><g><g/><text fill="black" stroke="none" font-family="sans-serif" font-size="6pt" font-style="normal" font-weight="normal" text-decoration="normal" x="67.54988520833334" y="60.5596248495" text-anchor="start" dominant-baseline="alphabetic" xml:space="preserve">Upload.svelte</text></g><path fill="none" stroke="none"/><g><path fill="white" stroke="black" paint-order="fill stroke markers" d=" M 243.29502142716666 45.60663105949999 L 376.4992657061666 45.60663105949999 L 376.4992657061666 69.35550354949999 L 243.29502142716666 69.35550354949999 L 243.29502142716666 45.60663105949999 Z" stroke-miterlimit="10" stroke-width="1.407340592" stroke-dasharray=""/></g><g><g/><text fill="black" stroke="none" font-family="sans-serif" font-size="6pt" font-style="normal" font-weight="normal" text-decoration="normal" x="252.83854981666667" y="60.5596248495" text-anchor="start" dominant-baseline="alphabetic" xml:space="preserve">Predictive-Text-Studio-Worker.ts</text></g><path fill="none" stroke="none"/><g><path fill="white" stroke="black" paint-order="fill stroke markers" d=" M 443.7864920938333 45.60663105949999 L 521.8579238728333 45.60663105949999 L 521.8579238728333 69.35550354949999 L 443.7864920938333 69.35550354949999 L 443.7864920938333 45.60663105949999 Z" stroke-miterlimit="10" stroke-width="1.407340592" stroke-dasharray=""/></g><g><g/><text fill="black" stroke="none" font-family="sans-serif" font-size="6pt" font-style="normal" font-weight="normal" text-decoration="normal" x="453.3300204833333" y="60.5596248495" text-anchor="start" dominant-baseline="alphabetic" xml:space="preserve">Read-Wordlist.ts</text></g><path fill="none" stroke="none"/><g><path fill="white" stroke="black" paint-order="fill stroke markers" d=" M 530.6538025728333 45.60663105949999 L 587.8346093518334 45.60663105949999 L 587.8346093518334 69.35550354949999 L 530.6538025728333 69.35550354949999 L 530.6538025728333 45.60663105949999 Z" stroke-miterlimit="10" stroke-width="1.407340592" stroke-dasharray=""/></g><g><g/><text fill="black" stroke="none" font-family="sans-serif" font-size="6pt" font-style="normal" font-weight="normal" text-decoration="normal" x="540.1973309623334" y="60.5596248495" text-anchor="start" dominant-baseline="alphabetic" xml:space="preserve">Worksheet</text></g><path fill="none" stroke="none"/><g><path fill="white" stroke="black" paint-order="fill stroke markers" d=" M 596.6304880518334 45.60663105949999 L 652.1823885808334 45.60663105949999 L 652.1823885808334 69.35550354949999 L 596.6304880518334 69.35550354949999 L 596.6304880518334 45.60663105949999 Z" stroke-miterlimit="10" stroke-width="1.407340592" stroke-dasharray=""/></g><g><g/><text fill="black" stroke="none" font-family="sans-serif" font-size="6pt" font-style="normal" font-weight="normal" text-decoration="normal" x="606.1740164413334" y="60.5596248495" text-anchor="start" dominant-baseline="alphabetic" xml:space="preserve">Storage.ts</text></g><path fill="none" stroke="none"/><g><path fill="white" stroke="black" paint-order="fill stroke markers" d=" M 660.9782672808334 45.60663105949999 L 762.3192303098334 45.60663105949999 L 762.3192303098334 69.35550354949999 L 660.9782672808334 69.35550354949999 L 660.9782672808334 45.60663105949999 Z" stroke-miterlimit="10" stroke-width="1.407340592" stroke-dasharray=""/></g><g><g/><text fill="black" stroke="none" font-family="sans-serif" font-size="6pt" font-style="normal" font-weight="normal" text-decoration="normal" x="670.5217956703334" y="60.5596248495" text-anchor="start" dominant-baseline="alphabetic" xml:space="preserve">Link-Storage-to-Kmp.ts</text></g><path fill="none" stroke="none"/><g><path fill="white" stroke="black" paint-order="fill stroke markers" d=" M 818.8509162641667 45.60663105949999 L 948.1996917931667 45.60663105949999 L 948.1996917931667 69.35550354949999 L 818.8509162641667 69.35550354949999 L 818.8509162641667 45.60663105949999 Z" stroke-miterlimit="10" stroke-width="1.407340592" stroke-dasharray=""/></g><g><g/><text fill="black" stroke="none" font-family="sans-serif" font-size="6pt" font-style="normal" font-weight="normal" text-decoration="normal" x="828.3944446536667" y="60.5596248495" text-anchor="start" dominant-baseline="alphabetic" xml:space="preserve">Generate-Storage-from-Kmp.ts</text></g><path fill="none" stroke="none"/><g><path fill="white" stroke="black" paint-order="fill stroke markers" d=" M 960.9879144808334 45.60663105949999 L 1040.9890337598333 45.60663105949999 L 1040.9890337598333 69.35550354949999 L 960.9879144808334 69.35550354949999 L 960.9879144808334 45.60663105949999 Z" stroke-miterlimit="10" stroke-width="1.407340592" stroke-dasharray=""/></g><g><g/><text fill="black" stroke="none" font-family="sans-serif" font-size="6pt" font-style="normal" font-weight="normal" text-decoration="normal" x="970.5314428703334" y="60.5596248495" text-anchor="start" dominant-baseline="alphabetic" xml:space="preserve">Generate-Kmp.ts</text></g></g><g><path fill="white" stroke="black" paint-order="fill stroke markers" d=" M 8.4453125 73.75344289949999 L 17.2411912 73.75344289949999 L 17.2411912 131.80624231949997 L 8.4453125 131.80624231949997 L 8.4453125 73.75344289949999" stroke-miterlimit="10" stroke-width="0.7329898916666666" stroke-dasharray=""/><path fill="white" stroke="black" paint-order="fill stroke markers" d=" M 87.38827398333333 131.80624231949997 L 96.18415268333334 131.80624231949997 L 96.18415268333334 822.2827202694997 L 87.38827398333333 822.2827202694997 L 87.38827398333333 131.80624231949997" stroke-miterlimit="10" stroke-width="0.7329898916666666" stroke-dasharray=""/><path fill="white" stroke="black" paint-order="fill stroke markers" d=" M 305.49920421666667 189.85904173949996 L 314.2950829166667 189.85904173949996 L 314.2950829166667 797.6542599094997 L 305.49920421666667 797.6542599094997 L 305.49920421666667 189.85904173949996" stroke-miterlimit="10" stroke-width="0.7329898916666666" stroke-dasharray=""/><path fill="white" stroke="black" paint-order="fill stroke markers" d=" M 478.4242686333333 247.91184115949994 L 487.22014733333333 247.91184115949994 L 487.22014733333333 358.7399127795 L 478.4242686333333 358.7399127795 L 478.4242686333333 247.91184115949994" stroke-miterlimit="10" stroke-width="0.7329898916666666" stroke-dasharray=""/><path fill="white" stroke="black" paint-order="fill stroke markers" d=" M 554.8462666123334 296.28917400949996 L 563.6421453123334 296.28917400949996 L 563.6421453123334 320.9176343695 L 554.8462666123334 320.9176343695 L 554.8462666123334 296.28917400949996" stroke-miterlimit="10" stroke-width="0.7329898916666666" stroke-dasharray=""/><path fill="white" stroke="black" paint-order="fill stroke markers" d=" M 620.0084989663334 416.79271219950004 L 628.8043776663334 416.79271219950004 L 628.8043776663334 416.79271219950004 L 620.0084989663334 416.79271219950004 L 620.0084989663334 416.79271219950004" stroke-miterlimit="10" stroke-width="0.7329898916666666" stroke-dasharray=""/><path fill="white" stroke="black" paint-order="fill stroke markers" d=" M 309.89714356666667 452.8558148695 L 318.6930222666667 452.8558148695 L 318.6930222666667 773.0257995494998 L 309.89714356666667 773.0257995494998 L 309.89714356666667 452.8558148695" stroke-miterlimit="10" stroke-width="0.7329898916666666" stroke-dasharray=""/><path fill="white" stroke="black" paint-order="fill stroke markers" d=" M 707.2508094453334 546.9717169595 L 716.0466881453334 546.9717169595 L 716.0466881453334 736.9626968794997 L 707.2508094453334 736.9626968794997 L 707.2508094453334 546.9717169595" stroke-miterlimit="10" stroke-width="0.7329898916666666" stroke-dasharray=""/><path fill="white" stroke="black" paint-order="fill stroke markers" d=" M 879.1273646786667 605.0245163794999 L 887.9232433786667 605.0245163794999 L 887.9232433786667 629.6529767394999 L 879.1273646786667 629.6529767394999 L 879.1273646786667 605.0245163794999" stroke-miterlimit="10" stroke-width="0.7329898916666666" stroke-dasharray=""/><path fill="white" stroke="black" paint-order="fill stroke markers" d=" M 996.5905347703334 687.7057761594998 L 1005.3864134703334 687.7057761594998 L 1005.3864134703334 712.3342365194998 L 996.5905347703334 712.3342365194998 L 996.5905347703334 687.7057761594998" stroke-miterlimit="10" stroke-width="0.7329898916666666" stroke-dasharray=""/><path fill="white" stroke="black" paint-order="fill stroke markers" d=" M 8.4453125 797.6542599094997 L 17.2411912 797.6542599094997 L 17.2411912 822.2827202694997 L 8.4453125 822.2827202694997 L 8.4453125 797.6542599094997" stroke-miterlimit="10" stroke-width="0.7329898916666666" stroke-dasharray=""/><path fill="white" stroke="black" paint-order="fill stroke markers" d=" M 72.35479565333334 86.94726094949999 L 103.30134018333334 86.94726094949999 L 111.21763101333333 94.86355177949999 L 111.21763101333333 107.17778195949998 L 72.35479565333334 107.17778195949998 L 72.35479565333334 86.94726094949999 M 103.30134018333334 86.94726094949999 L 103.30134018333334 94.86355177949999 L 111.21763101333333 94.86355177949999" stroke-miterlimit="10" stroke-width="0.7329898916666666" stroke-dasharray=""/><g><text fill="black" stroke="none" font-family="sans-serif" font-size="6pt" font-style="normal" font-weight="normal" text-decoration="normal" x="84.66902583333334" y="99.2614911295" text-anchor="start" dominant-baseline="alphabetic" xml:space="preserve">App</text></g><g><g><rect fill="white" stroke="none" x="27.64964766166667" y="120.37160000949997" width="49.33016986" height="11.43464231"/></g><text fill="black" stroke="none" font-family="sans-serif" font-size="6pt" font-style="normal" font-weight="normal" text-decoration="normal" x="28.96902946666667" y="128.28789083949997" text-anchor="start" dominant-baseline="alphabetic" xml:space="preserve">handleDrop()</text></g><g><path fill="none" stroke="black" paint-order="fill stroke markers" d=" M 17.2411912 131.80624231949997 L 80.14633385366668 131.80624231949997" stroke-miterlimit="10" stroke-width="0.7329898916666666" stroke-dasharray=""/><g transform="translate(87.38827398333333,131.80624231949997) translate(-87.38827398333333,-131.80624231949997)"><path fill="black" stroke="none" paint-order="stroke fill markers" d=" M 80.05837506666667 128.14129286116665 L 87.38827398333333 131.80624231949997 L 80.05837506666667 135.4711917778333 Z"/></g></g><path fill="white" stroke="black" paint-order="fill stroke markers" d=" M 284.7645540116667 145.00006036949998 L 327.11344229166673 145.00006036949998 L 335.0297331216667 152.91635119949999 L 335.0297331216667 165.23058137949997 L 284.7645540116667 165.23058137949997 L 284.7645540116667 145.00006036949998 M 327.11344229166673 145.00006036949998 L 327.11344229166673 152.91635119949999 L 335.0297331216667 152.91635119949999" stroke-miterlimit="10" stroke-width="0.7329898916666666" stroke-dasharray=""/><g><text fill="black" stroke="none" font-family="sans-serif" font-size="6pt" font-style="normal" font-weight="normal" text-decoration="normal" x="297.07878419166667" y="157.31429054949996" text-anchor="start" dominant-baseline="alphabetic" xml:space="preserve">Worker</text></g><g><g><rect fill="white" stroke="none" x="106.59260914500001" y="178.42439942949997" width="188.49813861" height="11.43464231"/></g><text fill="black" stroke="none" font-family="sans-serif" font-size="6pt" font-style="normal" font-weight="normal" text-decoration="normal" x="107.91199095000002" y="186.34069025949998" text-anchor="start" dominant-baseline="alphabetic" xml:space="preserve">worker.addDictionarySourceToProject(file.name, file)</text></g><g><path fill="none" stroke="black" paint-order="fill stroke markers" d=" M 96.18415268333334 189.85904173949996 L 298.257264087 189.85904173949996" stroke-miterlimit="10" stroke-width="0.7329898916666666" stroke-dasharray=""/><g transform="translate(305.49920421666667,189.85904173949996) translate(-305.49920421666667,-189.85904173949996)"><path fill="black" stroke="none" paint-order="stroke fill markers" d=" M 298.1693053 186.19409228116663 L 305.49920421666667 189.85904173949996 L 298.1693053 193.52399119783328 Z"/></g></g><path fill="white" stroke="black" paint-order="fill stroke markers" d=" M 457.68961842833335 203.05285978949996 L 500.0385067083334 203.05285978949996 L 507.95479753833337 210.96915061949997 L 507.95479753833337 223.28338079949995 L 457.68961842833335 223.28338079949995 L 457.68961842833335 203.05285978949996 M 500.0385067083334 203.05285978949996 L 500.0385067083334 210.96915061949997 L 507.95479753833337 210.96915061949997" stroke-miterlimit="10" stroke-width="0.7329898916666666" stroke-dasharray=""/><g><text fill="black" stroke="none" font-family="sans-serif" font-size="6pt" font-style="normal" font-weight="normal" text-decoration="normal" x="470.0038486083333" y="215.36708996949994" text-anchor="start" dominant-baseline="alphabetic" xml:space="preserve">Worker</text></g><g><g><rect fill="white" stroke="none" x="345.98560647000005" y="236.47719884949996" width="100.74813861" height="11.43464231"/></g><text fill="black" stroke="none" font-family="sans-serif" font-size="6pt" font-style="normal" font-weight="normal" text-decoration="normal" x="347.304988275" y="244.39348967949996" text-anchor="start" dominant-baseline="alphabetic" xml:space="preserve">readExcel(file.arrayBuffer())</text></g><g><path fill="none" stroke="black" paint-order="fill stroke markers" d=" M 314.2950829166667 247.91184115949994 L 471.18232850366667 247.91184115949994" stroke-miterlimit="10" stroke-width="0.7329898916666666" stroke-dasharray=""/><g transform="translate(478.4242686333333,247.91184115949994) translate(-478.4242686333333,-247.91184115949994)"><path fill="black" stroke="none" paint-order="stroke fill markers" d=" M 471.0943697166667 244.24689170116662 L 478.4242686333333 247.91184115949994 L 471.0943697166667 251.57679061783327 Z"/></g></g><g><g><rect fill="white" stroke="none" x="503.48726266783336" y="284.85453169949994" width="35.09188861" height="11.43464231"/></g><text fill="black" stroke="none" font-family="sans-serif" font-size="6pt" font-style="normal" font-weight="normal" text-decoration="normal" x="504.80664447283334" y="292.7708225294999" text-anchor="start" dominant-baseline="alphabetic" xml:space="preserve">getRow()</text></g><g><path fill="none" stroke="black" paint-order="fill stroke markers" d=" M 487.22014733333333 296.28917400949996 L 547.6043264826667 296.28917400949996" stroke-miterlimit="10" stroke-width="0.7329898916666666" stroke-dasharray=""/><g transform="translate(554.8462666123334,296.28917400949996) translate(-554.8462666123334,-296.28917400949996)"><path fill="black" stroke="none" paint-order="stroke fill markers" d=" M 547.5163676956666 292.6242245511666 L 554.8462666123334 296.28917400949996 L 547.5163676956666 299.9541234678333 Z"/></g></g><g><g><rect fill="white" stroke="none" x="513.2685126678333" y="309.48299205949996" width="15.52938861" height="11.43464231"/></g><text fill="black" stroke="none" font-family="sans-serif" font-size="6pt" font-style="normal" font-weight="normal" text-decoration="normal" x="514.5878944728333" y="317.39928288949994" text-anchor="start" dominant-baseline="alphabetic" xml:space="preserve">row</text></g><g><path fill="none" stroke="black" paint-order="fill stroke markers" d=" M 554.8462666123334 320.9176343695 L 494.462087463 320.9176343695" stroke-miterlimit="10" stroke-width="0.7329898916666666" stroke-dasharray="3.5183514799999998"/><g transform="translate(487.22014733333333,320.9176343695) translate(-487.22014733333333,-320.9176343695)"><path fill="black" stroke="none" paint-order="stroke fill markers" d=" M 494.55004625 317.2526849111666 L 487.22014733333333 320.9176343695 L 494.55004625 324.58258382783333 Z"/></g></g><g><g><rect fill="white" stroke="none" x="380.14576272000005" y="347.3052704695" width="32.42782611" height="11.43464231"/></g><text fill="black" stroke="none" font-family="sans-serif" font-size="6pt" font-style="normal" font-weight="normal" text-decoration="normal" x="381.465144525" y="355.22156129949997" text-anchor="start" dominant-baseline="alphabetic" xml:space="preserve">wordList</text></g><g><path fill="none" stroke="black" paint-order="fill stroke markers" d=" M 478.4242686333333 358.7399127795 L 321.53702304633333 358.7399127795" stroke-miterlimit="10" stroke-width="0.7329898916666666" stroke-dasharray="3.5183514799999998"/><g transform="translate(314.2950829166667,358.7399127795) translate(-314.2950829166667,-358.7399127795)"><path fill="black" stroke="none" paint-order="stroke fill markers" d=" M 321.6249818333333 355.07496332116665 L 314.2950829166667 358.7399127795 L 321.6249818333333 362.40486223783336 Z"/></g></g><path fill="white" stroke="black" paint-order="fill stroke markers" d=" M 599.2738487613334 371.9337308295 L 641.6227370413334 371.9337308295 L 649.5390278713334 379.8500216595 L 649.5390278713334 392.1642518395 L 599.2738487613334 392.1642518395 L 599.2738487613334 371.9337308295 M 641.6227370413334 371.9337308295 L 641.6227370413334 379.8500216595 L 649.5390278713334 379.8500216595" stroke-miterlimit="10" stroke-width="0.7329898916666666" stroke-dasharray=""/><g><text fill="black" stroke="none" font-family="sans-serif" font-size="6pt" font-style="normal" font-weight="normal" text-decoration="normal" x="611.5880789413334" y="384.24796100950005" text-anchor="start" dominant-baseline="alphabetic" xml:space="preserve">Worker</text></g><g><g><rect fill="white" stroke="none" x="421.1507685115001" y="405.35806988950003" width="92.00204486" height="11.43464231"/></g><text fill="black" stroke="none" font-family="sans-serif" font-size="6pt" font-style="normal" font-weight="normal" text-decoration="normal" x="422.47015031650005" y="413.2743607195" text-anchor="start" dominant-baseline="alphabetic" xml:space="preserve">saveFile(name, wordList)</text></g><g><path fill="none" stroke="black" paint-order="fill stroke markers" d=" M 314.2950829166667 416.79271219950004 L 612.7665588366667 416.79271219950004" stroke-miterlimit="10" stroke-width="0.7329898916666666" stroke-dasharray=""/><g transform="translate(620.0084989663334,416.79271219950004) translate(-620.0084989663334,-416.79271219950004)"><path fill="black" stroke="none" paint-order="stroke fill markers" d=" M 612.6786000496667 413.1277627411667 L 620.0084989663334 416.79271219950004 L 612.6786000496667 420.4576616578334 Z"/></g></g><g><g><rect fill="white" stroke="none" x="329.10147872833335" y="429.98653024950005" width="103.56845111" height="11.43464231"/></g><text fill="black" stroke="none" font-family="sans-serif" font-size="6pt" font-style="normal" font-weight="normal" text-decoration="normal" x="330.4208605333333" y="437.90282107950003" text-anchor="start" dominant-baseline="alphabetic" xml:space="preserve">generateKMPFromStorage()</text></g><g><path fill="none" stroke="black" paint-order="fill stroke markers" d=" M 314.2950829166667 441.4211725595 L 353.8765370666667 441.4211725595 L 353.8765370666667 452.8558148695 L 325.93496239633333 452.8558148695" stroke-miterlimit="10" stroke-width="0.7329898916666666" stroke-dasharray=""/><g transform="translate(318.6930222666667,452.8558148695) translate(-318.6930222666667,-452.8558148695)"><path fill="black" stroke="none" paint-order="stroke fill markers" d=" M 326.0229211833333 449.19086541116667 L 318.6930222666667 452.8558148695 L 326.0229211833333 456.5207643278334 Z"/></g></g><g><g><rect fill="white" stroke="none" x="329.10147872833335" y="466.0496329195" width="104.90048236" height="11.43464231"/></g><text fill="black" stroke="none" font-family="sans-serif" font-size="6pt" font-style="normal" font-weight="normal" text-decoration="normal" x="330.4208605333333" y="473.9659237495" text-anchor="start" dominant-baseline="alphabetic" xml:space="preserve">_emitPackageCompileStart()</text></g><g><path fill="none" stroke="black" paint-order="fill stroke markers" d=" M 318.6930222666667 477.4842752295 L 353.8765370666667 477.4842752295 L 353.8765370666667 488.9189175395 L 325.93496239633333 488.9189175395" stroke-miterlimit="10" stroke-width="0.7329898916666666" stroke-dasharray=""/><g transform="translate(318.6930222666667,488.9189175395) translate(-318.6930222666667,-488.9189175395)"><path fill="black" stroke="none" paint-order="stroke fill markers" d=" M 326.0229211833333 485.25396808116665 L 318.6930222666667 488.9189175395 L 326.0229211833333 492.58386699783335 Z"/></g></g><path fill="white" stroke="black" paint-order="fill stroke markers" d=" M 686.5161592403334 502.1127355895 L 728.8650475203334 502.1127355895 L 736.7813383503334 510.0290264195 L 736.7813383503334 522.3432565995 L 686.5161592403334 522.3432565995 L 686.5161592403334 502.1127355895 M 728.8650475203334 502.1127355895 L 728.8650475203334 510.0290264195 L 736.7813383503334 510.0290264195" stroke-miterlimit="10" stroke-width="0.7329898916666666" stroke-dasharray=""/><g><text fill="black" stroke="none" font-family="sans-serif" font-size="6pt" font-style="normal" font-weight="normal" text-decoration="normal" x="698.8303894203334" y="514.4269657694999" text-anchor="start" dominant-baseline="alphabetic" xml:space="preserve">Worker</text></g><g><g><rect fill="white" stroke="none" x="463.18573717600003" y="535.5370746495" width="99.57235736" height="11.43464231"/></g><text fill="black" stroke="none" font-family="sans-serif" font-size="6pt" font-style="normal" font-weight="normal" text-decoration="normal" x="464.505118981" y="543.4533654795" text-anchor="start" dominant-baseline="alphabetic" xml:space="preserve">linkStorageToKmp(storage)</text></g><g><path fill="none" stroke="black" paint-order="fill stroke markers" d=" M 318.6930222666667 546.9717169595 L 700.0088693156667 546.9717169595" stroke-miterlimit="10" stroke-width="0.7329898916666666" stroke-dasharray=""/><g transform="translate(707.2508094453334,546.9717169595) translate(-707.2508094453334,-546.9717169595)"><path fill="black" stroke="none" paint-order="stroke fill markers" d=" M 699.9209105286667 543.3067675011666 L 707.2508094453334 546.9717169595 L 699.9209105286667 550.6366664178333 Z"/></g></g><path fill="white" stroke="black" paint-order="fill stroke markers" d=" M 858.3927144736667 560.1655350095 L 900.7416027536667 560.1655350095 L 908.6578935836667 568.0818258395 L 908.6578935836667 580.3960560195 L 858.3927144736667 580.3960560195 L 858.3927144736667 560.1655350095 M 900.7416027536667 560.1655350095 L 900.7416027536667 568.0818258395 L 908.6578935836667 568.0818258395" stroke-miterlimit="10" stroke-width="0.7329898916666666" stroke-dasharray=""/><g><text fill="black" stroke="none" font-family="sans-serif" font-size="6pt" font-style="normal" font-weight="normal" text-decoration="normal" x="870.7069446536667" y="572.4797651894999" text-anchor="start" dominant-baseline="alphabetic" xml:space="preserve">Worker</text></g><g><g><rect fill="white" stroke="none" x="726.4551446070001" y="593.5898740695" width="142.26376361" height="11.43464231"/></g><text fill="black" stroke="none" font-family="sans-serif" font-size="6pt" font-style="normal" font-weight="normal" text-decoration="normal" x="727.7745264120001" y="601.5061648994999" text-anchor="start" dominant-baseline="alphabetic" xml:space="preserve">generateSourcesFromStorage(storage)</text></g><g><path fill="none" stroke="black" paint-order="fill stroke markers" d=" M 716.0466881453334 605.0245163794999 L 871.885424549 605.0245163794999" stroke-miterlimit="10" stroke-width="0.7329898916666666" stroke-dasharray=""/><g transform="translate(879.1273646786667,605.0245163794999) translate(-879.1273646786667,-605.0245163794999)"><path fill="black" stroke="none" paint-order="stroke fill markers" d=" M 871.797465762 601.3595669211666 L 879.1273646786667 605.0245163794999 L 871.797465762 608.6894658378333 Z"/></g></g><g><g><rect fill="white" stroke="none" x="782.2617852320001" y="618.2183344294999" width="30.650482359999998" height="11.43464231"/></g><text fill="black" stroke="none" font-family="sans-serif" font-size="6pt" font-style="normal" font-weight="normal" text-decoration="normal" x="783.5811670370001" y="626.1346252594999" text-anchor="start" dominant-baseline="alphabetic" xml:space="preserve">sources</text></g><g><path fill="none" stroke="black" paint-order="fill stroke markers" d=" M 879.1273646786667 629.6529767394999 L 723.2886282750001 629.6529767394999" stroke-miterlimit="10" stroke-width="0.7329898916666666" stroke-dasharray="3.5183514799999998"/><g transform="translate(716.0466881453334,629.6529767394999) translate(-716.0466881453334,-629.6529767394999)"><path fill="black" stroke="none" paint-order="stroke fill markers" d=" M 723.3765870620001 625.9880272811665 L 716.0466881453334 629.6529767394999 L 723.3765870620001 633.3179261978332 Z"/></g></g><path fill="white" stroke="black" paint-order="fill stroke markers" d=" M 975.8558845653334 642.8467947894999 L 1018.2047728453335 642.8467947894999 L 1026.1210636753335 650.7630856194999 L 1026.1210636753335 663.0773157994998 L 975.8558845653334 663.0773157994998 L 975.8558845653334 642.8467947894999 M 1018.2047728453335 642.8467947894999 L 1018.2047728453335 650.7630856194999 L 1026.1210636753335 650.7630856194999" stroke-miterlimit="10" stroke-width="0.7329898916666666" stroke-dasharray=""/><g><text fill="black" stroke="none" font-family="sans-serif" font-size="6pt" font-style="normal" font-weight="normal" text-decoration="normal" x="988.1701147453334" y="655.1610249694997" text-anchor="start" dominant-baseline="alphabetic" xml:space="preserve">Worker</text></g><g><g><rect fill="white" stroke="none" x="758.0597765278334" y="676.2711338494998" width="196.51766986" height="11.43464231"/></g><text fill="black" stroke="none" font-family="sans-serif" font-size="6pt" font-style="normal" font-weight="normal" text-decoration="normal" x="759.3791583328334" y="684.1874246794998" text-anchor="start" dominant-baseline="alphabetic" xml:space="preserve">generateKmp(langName, bcp47tag, sources, modelID)</text></g><g><path fill="none" stroke="black" paint-order="fill stroke markers" d=" M 716.0466881453334 687.7057761594998 L 989.3485946406668 687.7057761594998" stroke-miterlimit="10" stroke-width="0.7329898916666666" stroke-dasharray=""/><g transform="translate(996.5905347703334,687.7057761594998) translate(-996.5905347703334,-687.7057761594998)"><path fill="black" stroke="none" paint-order="stroke fill markers" d=" M 989.2606358536667 684.0408267011665 L 996.5905347703334 687.7057761594998 L 989.2606358536667 691.3707256178332 Z"/></g></g><g><g><rect fill="white" stroke="none" x="840.9972765278334" y="700.8995942094998" width="30.642669859999998" height="11.43464231"/></g><text fill="black" stroke="none" font-family="sans-serif" font-size="6pt" font-style="normal" font-weight="normal" text-decoration="normal" x="842.3166583328334" y="708.8158850394998" text-anchor="start" dominant-baseline="alphabetic" xml:space="preserve">kmpFile</text></g><g><path fill="none" stroke="black" paint-order="fill stroke markers" d=" M 996.5905347703334 712.3342365194998 L 723.2886282750001 712.3342365194998" stroke-miterlimit="10" stroke-width="0.7329898916666666" stroke-dasharray="3.5183514799999998"/><g transform="translate(716.0466881453334,712.3342365194998) translate(-716.0466881453334,-712.3342365194998)"><path fill="black" stroke="none" paint-order="stroke fill markers" d=" M 723.3765870620001 708.6692870611664 L 716.0466881453334 712.3342365194998 L 723.3765870620001 715.9991859778331 Z"/></g></g><g><g><rect fill="white" stroke="none" x="497.65058092600003" y="725.5280545694998" width="30.642669859999998" height="11.43464231"/></g><text fill="black" stroke="none" font-family="sans-serif" font-size="6pt" font-style="normal" font-weight="normal" text-decoration="normal" x="498.969962731" y="733.4443453994998" text-anchor="start" dominant-baseline="alphabetic" xml:space="preserve">kmpFile</text></g><g><path fill="none" stroke="black" paint-order="fill stroke markers" d=" M 707.2508094453334 736.9626968794997 L 325.93496239633333 736.9626968794997" stroke-miterlimit="10" stroke-width="0.7329898916666666" stroke-dasharray="3.5183514799999998"/><g transform="translate(318.6930222666667,736.9626968794997) translate(-318.6930222666667,-736.9626968794997)"><path fill="black" stroke="none" paint-order="stroke fill markers" d=" M 326.0229211833333 733.2977474211664 L 318.6930222666667 736.9626968794997 L 326.0229211833333 740.6276463378331 Z"/></g></g><g><g><rect fill="white" stroke="none" x="329.10147872833335" y="750.1565149294997" width="146.24423236" height="11.43464231"/></g><text fill="black" stroke="none" font-family="sans-serif" font-size="6pt" font-style="normal" font-weight="normal" text-decoration="normal" x="330.4208605333333" y="758.0728057594997" text-anchor="start" dominant-baseline="alphabetic" xml:space="preserve">_emitPackageCompileSuccess(kmpFile)</text></g><g><path fill="none" stroke="black" paint-order="fill stroke markers" d=" M 318.6930222666667 761.5911572394998 L 353.8765370666667 761.5911572394998 L 353.8765370666667 773.0257995494998 L 325.93496239633333 773.0257995494998" stroke-miterlimit="10" stroke-width="0.7329898916666666" stroke-dasharray=""/><g transform="translate(318.6930222666667,773.0257995494998) translate(-318.6930222666667,-773.0257995494998)"><path fill="black" stroke="none" paint-order="stroke fill markers" d=" M 326.0229211833333 769.3608500911664 L 318.6930222666667 773.0257995494998 L 326.0229211833333 776.6907490078331 Z"/></g></g><g><g><rect fill="white" stroke="none" x="172.61799977" y="786.2196175994998" width="56.44735736" height="11.43464231"/></g><text fill="black" stroke="none" font-family="sans-serif" font-size="6pt" font-style="normal" font-weight="normal" text-decoration="normal" x="173.93738157500002" y="794.1359084294998" text-anchor="start" dominant-baseline="alphabetic" xml:space="preserve">wordList.length</text></g><g><path fill="none" stroke="black" paint-order="fill stroke markers" d=" M 305.49920421666667 797.6542599094997 L 103.426092813 797.6542599094997" stroke-miterlimit="10" stroke-width="0.7329898916666666" stroke-dasharray="3.5183514799999998"/><g transform="translate(96.18415268333334,797.6542599094997) translate(-96.18415268333334,-797.6542599094997)"><path fill="black" stroke="none" paint-order="stroke fill markers" d=" M 103.5140516 793.9893104511664 L 96.18415268333334 797.6542599094997 L 103.5140516 801.3192093678331 Z"/></g></g><g><g><rect fill="white" stroke="none" x="35.88206953666667" y="810.8480779594997" width="32.86532611" height="11.43464231"/></g><text fill="black" stroke="none" font-family="sans-serif" font-size="6pt" font-style="normal" font-weight="normal" text-decoration="normal" x="37.20145134166667" y="818.7643687894997" text-anchor="start" dominant-baseline="alphabetic" xml:space="preserve"> kmpFile</text></g><g><path fill="none" stroke="black" paint-order="fill stroke markers" d=" M 87.38827398333333 822.2827202694997 L 24.483131329666666 822.2827202694997" stroke-miterlimit="10" stroke-width="0.7329898916666666" stroke-dasharray="3.5183514799999998"/><g transform="translate(17.2411912,822.2827202694997) translate(-17.2411912,-822.2827202694997)"><path fill="black" stroke="none" paint-order="stroke fill markers" d=" M 24.571090116666667 818.6177708111663 L 17.2411912 822.2827202694997 L 24.571090116666667 825.947669727833 Z"/></g></g><g><g/><path fill="none" stroke="black" paint-order="fill stroke markers" d=" M 447.6386931833333 261.10565920949995 L 590.0297814123334 261.10565920949995 L 590.0297814123334 334.1114524195 L 447.6386931833333 334.1114524195 L 447.6386931833333 261.10565920949995 Z" stroke-miterlimit="10" stroke-width="1.2565541" stroke-dasharray=""/><path fill="white" stroke="black" paint-order="fill stroke markers" d=" M 447.6386931833333 261.10565920949995 L 447.6386931833333 271.66071364949994 L 477.8925599583333 271.66071364949994 L 483.17008717833335 266.3831864295 L 483.17008717833335 261.10565920949995 L 447.6386931833333 261.10565920949995" stroke-miterlimit="10" stroke-width="1.2565541" stroke-dasharray=""/><text fill="black" stroke="none" font-family="sans-serif" font-size="4.800000000000001pt" font-style="normal" font-weight="bold" text-decoration="normal" x="456.4345718833333" y="268.14236216949996" text-anchor="start" dominant-baseline="alphabetic" xml:space="preserve">loop</text><text fill="black" stroke="none" font-family="sans-serif" font-size="4.800000000000001pt" font-style="normal" font-weight="bold" text-decoration="normal" x="491.96596587833335" y="268.14236216949996" text-anchor="start" dominant-baseline="alphabetic" xml:space="preserve">[for each row in sheet]</text></g></g><g/><g/><g/><g/><g/><g/><g/><g/><g/></g></svg>