<svg version="1.1" xmlns="http://www.w3.org/2000/svg" xmlns:xlink="http://www.w3.org/1999/xlink" width="1063" height="839"><defs/><g><g/><g/><g/><g/><g/><g/><g/><g/><g/><g/><g/><g/><g/><g/><g/><g/><g/><g/><g/><g/><g/><g><rect fill="white" stroke="none" x="0" y="0" width="1063" height="839"/></g><g><text fill="black" stroke="none" font-family="sans-serif" font-size="10.5pt" font-style="normal" font-weight="normal" text-decoration="normal" x="461.17113268825005" y="15.0786492" text-anchor="start" dominant-baseline="alphabetic" xml:space="preserve">Google Sheets Upload</text></g><g/><g><path fill="none" stroke="black" paint-order="fill stroke markers" d=" M 14.5271929625 79.263432628 L 14.5271929625 839.2273523080004" stroke-miterlimit="10" stroke-width="0.8377027333333333" stroke-dasharray="7.732640615384615,3.3508109333333334"/><path fill="none" stroke="black" paint-order="fill stroke markers" d=" M 127.43787104166665 79.263432628 L 127.43787104166665 839.2273523080004" stroke-miterlimit="10" stroke-width="0.8377027333333333" stroke-dasharray="7.732640615384615,3.3508109333333334"/><path fill="none" stroke="black" paint-order="fill stroke markers" d=" M 316.512386625 79.263432628 L 316.512386625 839.2273523080004" stroke-miterlimit="10" stroke-width="0.8377027333333333" stroke-dasharray="7.732640615384615,3.3508109333333334"/><path fill="none" stroke="black" paint-order="fill stroke markers" d=" M 454.2830045645833 79.263432628 L 454.2830045645833 839.2273523080004" stroke-miterlimit="10" stroke-width="0.8377027333333333" stroke-dasharray="7.732640615384615,3.3508109333333334"/><path fill="none" stroke="black" paint-order="fill stroke markers" d=" M 591.6756162375 79.263432628 L 591.6756162375 839.2273523080004" stroke-miterlimit="10" stroke-width="0.8377027333333333" stroke-dasharray="7.732640615384615,3.3508109333333334"/><path fill="none" stroke="black" paint-order="fill stroke markers" d=" M 691.320880947875 79.263432628 L 691.320880947875 839.2273523080004" stroke-miterlimit="10" stroke-width="0.8377027333333333" stroke-dasharray="7.732640615384615,3.3508109333333334"/><path fill="none" stroke="black" paint-order="fill stroke markers" d=" M 885.2579262145417 79.263432628 L 885.2579262145417 839.2273523080004" stroke-miterlimit="10" stroke-width="0.8377027333333333" stroke-dasharray="7.732640615384615,3.3508109333333334"/><path fill="none" stroke="black" paint-order="fill stroke markers" d=" M 1017.7704875135 79.263432628 L 1017.7704875135 839.2273523080004" stroke-miterlimit="10" stroke-width="0.8377027333333333" stroke-dasharray="7.732640615384615,3.3508109333333334"/></g><g><g><path fill="white" stroke="black" paint-order="fill stroke markers" d=" M 20.257079658499997 36.741641883999996 A 5.7298866959999994 5.7298866959999994 0 1 1 20.25707679355689 36.73591199825898 M 14.5271929625 42.47152858 L 14.5271929625 54.735496596 M 7.289441346499999 46.89459901199999 L 21.7649445785 46.89459901199999 M 14.5271929625 54.735496596 L 7.289441346499999 66.19526998799999 M 14.5271929625 54.735496596 L 21.7649445785 66.19526998799999" stroke-miterlimit="10" stroke-width="1.708913576" stroke-dasharray=""/></g><g><g/><text fill="black" stroke="none" font-family="sans-serif" font-size="7pt" font-style="normal" font-weight="normal" text-decoration="normal" x="5.026216399999999" y="76.24770278799998" text-anchor="start" dominant-baseline="alphabetic" xml:space="preserve">User</text></g><path fill="none" stroke="none"/><g><path fill="white" stroke="black" paint-order="fill stroke markers" d=" M 64.99631348491666 52.121864067999994 L 189.87942859841667 52.121864067999994 L 189.87942859841667 79.26343262799999 L 64.99631348491666 79.26343262799999 L 64.99631348491666 52.121864067999994 Z" stroke-miterlimit="10" stroke-width="1.608389248" stroke-dasharray=""/></g><g><g/><text fill="black" stroke="none" font-family="sans-serif" font-size="7pt" font-style="normal" font-weight="normal" text-decoration="normal" x="75.90320307291665" y="69.21099982799998" text-anchor="start" dominant-baseline="alphabetic" xml:space="preserve">GoogleSheetsInput.svelte</text></g><path fill="none" stroke="none"/><g><path fill="white" stroke="black" paint-order="fill stroke markers" d=" M 277.08498922449996 52.121864067999994 L 355.9397840255 52.121864067999994 L 355.9397840255 79.26343262799999 L 277.08498922449996 79.26343262799999 L 277.08498922449996 52.121864067999994 Z" stroke-miterlimit="10" stroke-width="1.608389248" stroke-dasharray=""/></g><g><g/><text fill="black" stroke="none" font-family="sans-serif" font-size="7pt" font-style="normal" font-weight="normal" text-decoration="normal" x="287.9918788125" y="69.21099982799998" text-anchor="start" dominant-baseline="alphabetic" xml:space="preserve">GoogleSheets</text></g><path fill="none" stroke="none"/><g><path fill="white" stroke="black" paint-order="fill stroke markers" d=" M 379.18519700783327 52.121864067999994 L 529.3808121213333 52.121864067999994 L 529.3808121213333 79.26343262799999 L 379.18519700783327 79.26343262799999 L 379.18519700783327 52.121864067999994 Z" stroke-miterlimit="10" stroke-width="1.608389248" stroke-dasharray=""/></g><g><g/><text fill="black" stroke="none" font-family="sans-serif" font-size="7pt" font-style="normal" font-weight="normal" text-decoration="normal" x="390.0920865958333" y="69.21099982799998" text-anchor="start" dominant-baseline="alphabetic" xml:space="preserve">Predictive-Text-Studio-Worker.ts</text></g><path fill="none" stroke="none"/><g><path fill="white" stroke="black" paint-order="fill stroke markers" d=" M 560.257252040125 52.121864067999994 L 623.093980434875 52.121864067999994 L 623.093980434875 79.26343262799999 L 560.257252040125 79.26343262799999 L 560.257252040125 52.121864067999994 Z" stroke-miterlimit="10" stroke-width="1.608389248" stroke-dasharray=""/></g><g><g/><text fill="black" stroke="none" font-family="sans-serif" font-size="7pt" font-style="normal" font-weight="normal" text-decoration="normal" x="571.164141628125" y="69.21099982799998" text-anchor="start" dominant-baseline="alphabetic" xml:space="preserve">Storage.ts</text></g><path fill="none" stroke="none"/><g><path fill="white" stroke="black" paint-order="fill stroke markers" d=" M 633.146413234875 52.121864067999994 L 749.495348660875 52.121864067999994 L 749.495348660875 79.26343262799999 L 633.146413234875 79.26343262799999 L 633.146413234875 52.121864067999994 Z" stroke-miterlimit="10" stroke-width="1.608389248" stroke-dasharray=""/></g><g><g/><text fill="black" stroke="none" font-family="sans-serif" font-size="7pt" font-style="normal" font-weight="normal" text-decoration="normal" x="644.053302822875" y="69.21099982799998" text-anchor="start" dominant-baseline="alphabetic" xml:space="preserve">Link-Storage-To-Kmp.ts</text></g><path fill="none" stroke="none"/><g><path fill="white" stroke="black" paint-order="fill stroke markers" d=" M 815.5807729546667 52.121864067999994 L 954.9350794744167 52.121864067999994 L 954.9350794744167 79.26343262799999 L 815.5807729546667 79.26343262799999 L 815.5807729546667 52.121864067999994 Z" stroke-miterlimit="10" stroke-width="1.608389248" stroke-dasharray=""/></g><g><g/><text fill="black" stroke="none" font-family="sans-serif" font-size="7pt" font-style="normal" font-weight="normal" text-decoration="normal" x="826.4876625426667" y="69.21099982799998" text-anchor="start" dominant-baseline="alphabetic" xml:space="preserve">Generate-Storage-From-Kmp</text></g><path fill="none" stroke="none"/><g><path fill="white" stroke="black" paint-order="fill stroke markers" d=" M 977.3499260505 52.121864067999994 L 1058.1910489765 52.121864067999994 L 1058.1910489765 79.26343262799999 L 977.3499260505 79.26343262799999 L 977.3499260505 52.121864067999994 Z" stroke-miterlimit="10" stroke-width="1.608389248" stroke-dasharray=""/></g><g><g/><text fill="black" stroke="none" font-family="sans-serif" font-size="7pt" font-style="normal" font-weight="normal" text-decoration="normal" x="988.2568156385" y="69.21099982799998" text-anchor="start" dominant-baseline="alphabetic" xml:space="preserve">Generate-Kmp</text></g></g><g><path fill="white" stroke="black" paint-order="fill stroke markers" d=" M 9.5009765625 84.289649028 L 19.5534093625 84.289649028 L 19.5534093625 150.635705508 L 9.5009765625 150.635705508 L 9.5009765625 84.289649028" stroke-miterlimit="10" stroke-width="0.8377027333333333" stroke-dasharray=""/><path fill="white" stroke="black" paint-order="fill stroke markers" d=" M 122.41165464166666 150.635705508 L 132.46408744166666 150.635705508 L 132.46408744166666 804.0438375080004 L 122.41165464166666 804.0438375080004 L 122.41165464166666 150.635705508" stroke-miterlimit="10" stroke-width="0.8377027333333333" stroke-dasharray=""/><path fill="white" stroke="black" paint-order="fill stroke markers" d=" M 127.43787104166667 191.850679988 L 137.49030384166667 191.850679988 L 137.49030384166667 775.8970256680003 L 127.43787104166667 775.8970256680003 L 127.43787104166667 191.850679988" stroke-miterlimit="10" stroke-width="0.8377027333333333" stroke-dasharray=""/><path fill="white" stroke="black" paint-order="fill stroke markers" d=" M 311.48617022499997 247.139060388 L 321.538603025 247.139060388 L 321.538603025 275.285872228 L 311.48617022499997 275.285872228 L 311.48617022499997 247.139060388" stroke-miterlimit="10" stroke-width="0.8377027333333333" stroke-dasharray=""/><path fill="white" stroke="black" paint-order="fill stroke markers" d=" M 449.25678816458327 436.12479702800005 L 459.3092209645833 436.12479702800005 L 459.3092209645833 829.1749195080004 L 449.25678816458327 829.1749195080004 L 449.25678816458327 436.12479702800005" stroke-miterlimit="10" stroke-width="0.8377027333333333" stroke-dasharray=""/><path fill="white" stroke="black" paint-order="fill stroke markers" d=" M 586.6493998375 464.27160886800004 L 596.7018326374999 464.27160886800004 L 596.7018326374999 464.27160886800004 L 586.6493998375 464.27160886800004 L 586.6493998375 464.27160886800004" stroke-miterlimit="10" stroke-width="0.8377027333333333" stroke-dasharray=""/><path fill="white" stroke="black" paint-order="fill stroke markers" d=" M 686.2946645478751 530.6176653480001 L 696.347097347875 530.6176653480001 L 696.347097347875 829.1749195080004 L 686.2946645478751 829.1749195080004 L 686.2946645478751 530.6176653480001" stroke-miterlimit="10" stroke-width="0.8377027333333333" stroke-dasharray=""/><path fill="white" stroke="black" paint-order="fill stroke markers" d=" M 880.2317098145418 596.9637218280001 L 890.2841426145417 596.9637218280001 L 890.2841426145417 625.1105336680001 L 880.2317098145418 625.1105336680001 L 880.2317098145418 596.9637218280001" stroke-miterlimit="10" stroke-width="0.8377027333333333" stroke-dasharray=""/><path fill="white" stroke="black" paint-order="fill stroke markers" d=" M 1012.7442711135001 691.4565901480001 L 1022.7967039135 691.4565901480001 L 1022.7967039135 719.6034019880002 L 1012.7442711135001 719.6034019880002 L 1012.7442711135001 691.4565901480001" stroke-miterlimit="10" stroke-width="0.8377027333333333" stroke-dasharray=""/><path fill="white" stroke="black" paint-order="fill stroke markers" d=" M 9.5009765625 775.8970256680003 L 19.5534093625 775.8970256680003 L 19.5534093625 804.0438375080004 L 9.5009765625 804.0438375080004 L 9.5009765625 775.8970256680003" stroke-miterlimit="10" stroke-width="0.8377027333333333" stroke-dasharray=""/><path fill="white" stroke="black" paint-order="fill stroke markers" d=" M 105.35762918416665 99.368298228 L 140.47092337916666 99.368298228 L 149.51811289916665 108.415487748 L 149.51811289916665 122.488893668 L 105.35762918416665 122.488893668 L 105.35762918416665 99.368298228 M 140.47092337916666 99.368298228 L 140.47092337916666 108.415487748 L 149.51811289916665 108.415487748" stroke-miterlimit="10" stroke-width="0.8377027333333333" stroke-dasharray=""/><g><text fill="black" stroke="none" font-family="sans-serif" font-size="7pt" font-style="normal" font-weight="normal" text-decoration="normal" x="119.43103510416665" y="113.44170414800001" text-anchor="start" dominant-baseline="alphabetic" xml:space="preserve">App</text></g><g><g><rect fill="white" stroke="none" x="31.448788175833332" y="137.567542868" width="79.0674876525" height="13.06816264"/></g><text fill="black" stroke="none" font-family="sans-serif" font-size="7pt" font-style="normal" font-weight="normal" text-decoration="normal" x="32.95665309583333" y="146.614732388" text-anchor="start" dominant-baseline="alphabetic" xml:space="preserve">handleClientLoad()</text></g><g><path fill="none" stroke="black" paint-order="fill stroke markers" d=" M 19.5534093625 150.635705508 L 114.13515163633332 150.635705508" stroke-miterlimit="10" stroke-width="0.8377027333333333" stroke-dasharray=""/><g transform="translate(122.41165464166666,150.635705508) translate(-122.41165464166666,-150.635705508)"><path fill="black" stroke="none" paint-order="stroke fill markers" d=" M 114.03462730833333 146.44719184133334 L 122.41165464166666 150.635705508 L 114.03462730833333 154.82421917466667 Z"/></g></g><g><g><rect fill="white" stroke="none" x="149.38568265499998" y="165.714354708" width="121.91416734" height="13.06816264"/></g><text fill="black" stroke="none" font-family="sans-serif" font-size="7pt" font-style="normal" font-weight="normal" text-decoration="normal" x="150.89354757499999" y="174.761544228" text-anchor="start" dominant-baseline="alphabetic" xml:space="preserve">getValuesFromSpreadSheet()</text></g><g><path fill="none" stroke="black" paint-order="fill stroke markers" d=" M 132.46408744166666 178.782517348 L 177.70003504166664 178.782517348 L 177.70003504166664 191.850679988 L 145.76680684699997 191.850679988" stroke-miterlimit="10" stroke-width="0.8377027333333333" stroke-dasharray=""/><g transform="translate(137.49030384166664,191.850679988) translate(-137.49030384166664,-191.850679988)"><path fill="black" stroke="none" paint-order="stroke fill markers" d=" M 145.86733117499998 187.66216632133333 L 137.49030384166664 191.850679988 L 145.86733117499998 196.03919365466666 Z"/></g></g><g><g><rect fill="white" stroke="none" x="204.7254893008333" y="234.070897748" width="39.525495465" height="13.06816264"/></g><text fill="black" stroke="none" font-family="sans-serif" font-size="7pt" font-style="normal" font-weight="normal" text-decoration="normal" x="206.2333542208333" y="243.11808726799998" text-anchor="start" dominant-baseline="alphabetic" xml:space="preserve">getRow()</text></g><g><path fill="none" stroke="black" paint-order="fill stroke markers" d=" M 137.49030384166664 247.139060388 L 303.20966721966664 247.139060388" stroke-miterlimit="10" stroke-width="0.8377027333333333" stroke-dasharray=""/><g transform="translate(311.48617022499997,247.139060388) translate(-311.48617022499997,-247.139060388)"><path fill="black" stroke="none" paint-order="stroke fill markers" d=" M 303.10914289166664 242.95054672133332 L 311.48617022499997 247.139060388 L 303.10914289166664 251.32757405466666 Z"/></g></g><g><g><rect fill="white" stroke="none" x="215.7293955508333" y="262.217709588" width="17.517682965" height="13.06816264"/></g><text fill="black" stroke="none" font-family="sans-serif" font-size="7pt" font-style="normal" font-weight="normal" text-decoration="normal" x="217.2372604708333" y="271.264899108" text-anchor="start" dominant-baseline="alphabetic" xml:space="preserve">row</text></g><g><path fill="none" stroke="black" paint-order="fill stroke markers" d=" M 311.48617022499997 275.285872228 L 145.76680684699997 275.285872228" stroke-miterlimit="10" stroke-width="0.8377027333333333" stroke-dasharray="4.02097312"/><g transform="translate(137.49030384166664,275.285872228) translate(-137.49030384166664,-275.285872228)"><path fill="black" stroke="none" paint-order="stroke fill markers" d=" M 145.86733117499998 271.09735856133335 L 137.49030384166664 275.285872228 L 145.86733117499998 279.4743858946667 Z"/></g></g><g><g><rect fill="white" stroke="none" x="149.38568265499998" y="290.36452142800005" width="158.58213609" height="13.06816264"/></g><text fill="black" stroke="none" font-family="sans-serif" font-size="7pt" font-style="normal" font-weight="normal" text-decoration="normal" x="150.89354757499999" y="299.41171094800006" text-anchor="start" dominant-baseline="alphabetic" xml:space="preserve">wordListObject.push(word, wordCount)</text></g><g><path fill="none" stroke="black" paint-order="fill stroke markers" d=" M 137.49030384166664 303.432684068 L 177.70003504166664 303.432684068 L 177.70003504166664 316.50084670800004 L 145.76680684699997 316.50084670800004" stroke-miterlimit="10" stroke-width="0.8377027333333333" stroke-dasharray=""/><g transform="translate(137.49030384166664,316.50084670800004) translate(-137.49030384166664,-316.50084670800004)"><path fill="black" stroke="none" paint-order="stroke fill markers" d=" M 145.86733117499998 312.3123330413334 L 137.49030384166664 316.50084670800004 L 145.86733117499998 320.6893603746667 Z"/></g></g><path fill="white" stroke="black" paint-order="fill stroke markers" d=" M 425.7889443477083 346.65814510800004 L 473.7298752614583 346.65814510800004 L 482.7770647814583 355.70533462800006 L 482.7770647814583 369.77874054800003 L 425.7889443477083 369.77874054800003 L 425.7889443477083 346.65814510800004 M 473.7298752614583 346.65814510800004 L 473.7298752614583 355.70533462800006 L 482.7770647814583 355.70533462800006" stroke-miterlimit="10" stroke-width="0.8377027333333333" stroke-dasharray=""/><g><text fill="black" stroke="none" font-family="sans-serif" font-size="7pt" font-style="normal" font-weight="normal" text-decoration="normal" x="439.8623502677083" y="360.73155102800007" text-anchor="start" dominant-baseline="alphabetic" xml:space="preserve">Worker</text></g><g><g><rect fill="white" stroke="none" x="180.06384787687497" y="384.857389748" width="231.6456126525" height="13.06816264"/></g><text fill="black" stroke="none" font-family="sans-serif" font-size="7pt" font-style="normal" font-weight="normal" text-decoration="normal" x="181.57171279687498" y="393.904579268" text-anchor="start" dominant-baseline="alphabetic" xml:space="preserve">worker.readGoogleSheet(spreadSheetId, wordListObject)</text></g><g><path fill="none" stroke="black" paint-order="fill stroke markers" d=" M 137.49030384166664 397.925552388 L 446.00650155924995 397.925552388" stroke-miterlimit="10" stroke-width="0.8377027333333333" stroke-dasharray=""/><g transform="translate(454.2830045645833,397.925552388) translate(-454.2830045645833,-397.925552388)"><path fill="black" stroke="none" paint-order="stroke fill markers" d=" M 445.90597723124995 393.73703872133336 L 454.2830045645833 397.925552388 L 445.90597723124995 402.1140660546667 Z"/></g></g><path fill="white" stroke="black" paint-order="fill stroke markers" d=" M 563.181556020625 413.00420158800006 L 611.122486934375 413.00420158800006 L 620.169676454375 422.0513911080001 L 620.169676454375 436.12479702800005 L 563.181556020625 436.12479702800005 L 563.181556020625 413.00420158800006 M 611.122486934375 413.00420158800006 L 611.122486934375 422.0513911080001 L 620.169676454375 422.0513911080001" stroke-miterlimit="10" stroke-width="0.8377027333333333" stroke-dasharray=""/><g><text fill="black" stroke="none" font-family="sans-serif" font-size="7pt" font-style="normal" font-weight="normal" text-decoration="normal" x="577.254961940625" y="427.0776075080001" text-anchor="start" dominant-baseline="alphabetic" xml:space="preserve">Worker</text></g><g><g><rect fill="white" stroke="none" x="471.20459977791666" y="451.203446228" width="103.54942124625" height="13.06816264"/></g><text fill="black" stroke="none" font-family="sans-serif" font-size="7pt" font-style="normal" font-weight="normal" text-decoration="normal" x="472.71246469791663" y="460.25063574800004" text-anchor="start" dominant-baseline="alphabetic" xml:space="preserve">saveFile(name, wordList)</text></g><g><path fill="none" stroke="black" paint-order="fill stroke markers" d=" M 459.3092209645833 464.27160886800004 L 578.3728968321667 464.27160886800004" stroke-miterlimit="10" stroke-width="0.8377027333333333" stroke-dasharray=""/><g transform="translate(586.6493998375,464.27160886800004) translate(-586.6493998375,-464.27160886800004)"><path fill="black" stroke="none" paint-order="stroke fill markers" d=" M 578.2723725041667 460.0830952013334 L 586.6493998375 464.27160886800004 L 578.2723725041667 468.4601225346667 Z"/></g></g><path fill="white" stroke="black" paint-order="fill stroke markers" d=" M 662.826820731 479.3502580680001 L 710.7677516447501 479.3502580680001 L 719.81494116475 488.3974475880001 L 719.81494116475 502.47085350800006 L 662.826820731 502.47085350800006 L 662.826820731 479.3502580680001 M 710.7677516447501 479.3502580680001 L 710.7677516447501 488.3974475880001 L 719.81494116475 488.3974475880001" stroke-miterlimit="10" stroke-width="0.8377027333333333" stroke-dasharray=""/><g><text fill="black" stroke="none" font-family="sans-serif" font-size="7pt" font-style="normal" font-weight="normal" text-decoration="normal" x="676.900226651" y="493.4236639880001" text-anchor="start" dominant-baseline="alphabetic" xml:space="preserve">Worker</text></g><g><g><rect fill="white" stroke="none" x="516.7689313518542" y="517.5495027080001" width="112.06602280875" height="13.06816264"/></g><text fill="black" stroke="none" font-family="sans-serif" font-size="7pt" font-style="normal" font-weight="normal" text-decoration="normal" x="518.2767962718542" y="526.5966922280002" text-anchor="start" dominant-baseline="alphabetic" xml:space="preserve">linkStorageToKmp(storage)</text></g><g><path fill="none" stroke="black" paint-order="fill stroke markers" d=" M 459.3092209645833 530.6176653480001 L 678.0181615425417 530.6176653480001" stroke-miterlimit="10" stroke-width="0.8377027333333333" stroke-dasharray=""/><g transform="translate(686.2946645478751,530.6176653480001) translate(-686.2946645478751,-530.6176653480001)"><path fill="black" stroke="none" paint-order="stroke fill markers" d=" M 677.9176372145417 526.4291516813333 L 686.2946645478751 530.6176653480001 L 677.9176372145417 534.8061790146668 Z"/></g></g><path fill="white" stroke="black" paint-order="fill stroke markers" d=" M 856.7638659976667 545.696314548 L 904.7047969114168 545.696314548 L 913.7519864314168 554.743504068 L 913.7519864314168 568.816909988 L 856.7638659976667 568.816909988 L 856.7638659976667 545.696314548 M 904.7047969114168 545.696314548 L 904.7047969114168 554.743504068 L 913.7519864314168 554.743504068" stroke-miterlimit="10" stroke-width="0.8377027333333333" stroke-dasharray=""/><g><text fill="black" stroke="none" font-family="sans-serif" font-size="7pt" font-style="normal" font-weight="normal" text-decoration="normal" x="870.8372719176667" y="559.7697204680001" text-anchor="start" dominant-baseline="alphabetic" xml:space="preserve">Worker</text></g><g><g><rect fill="white" stroke="none" x="708.2424761612084" y="583.8955591880001" width="160.09385484" height="13.06816264"/></g><text fill="black" stroke="none" font-family="sans-serif" font-size="7pt" font-style="normal" font-weight="normal" text-decoration="normal" x="709.7503410812084" y="592.9427487080002" text-anchor="start" dominant-baseline="alphabetic" xml:space="preserve">generateSourcesFromStorage(storage)</text></g><g><path fill="none" stroke="black" paint-order="fill stroke markers" d=" M 696.347097347875 596.9637218280001 L 871.9552068092084 596.9637218280001" stroke-miterlimit="10" stroke-width="0.8377027333333333" stroke-dasharray=""/><g transform="translate(880.2317098145418,596.9637218280001) translate(-880.2317098145418,-596.9637218280001)"><path fill="black" stroke="none" paint-order="stroke fill markers" d=" M 871.8546824812084 592.7752081613334 L 880.2317098145418 596.9637218280001 L 871.8546824812084 601.1522354946668 Z"/></g></g><g><g><rect fill="white" stroke="none" x="771.0249468643334" y="612.0423710280002" width="34.52891343375" height="13.06816264"/></g><text fill="black" stroke="none" font-family="sans-serif" font-size="7pt" font-style="normal" font-weight="normal" text-decoration="normal" x="772.5328117843334" y="621.0895605480002" text-anchor="start" dominant-baseline="alphabetic" xml:space="preserve">sources</text></g><g><path fill="none" stroke="black" paint-order="fill stroke markers" d=" M 696.347097347875 625.1105336680001 L 871.9552068092084 625.1105336680001" stroke-miterlimit="10" stroke-width="0.8377027333333333" stroke-dasharray="4.02097312"/><g transform="translate(880.2317098145418,625.1105336680001) translate(-880.2317098145418,-625.1105336680001)"><path fill="black" stroke="none" paint-order="stroke fill markers" d=" M 871.8546824812084 620.9220200013334 L 880.2317098145418 625.1105336680001 L 871.8546824812084 629.2990473346669 Z"/></g></g><path fill="white" stroke="black" paint-order="fill stroke markers" d=" M 989.276427296625 640.1891828680001 L 1037.2173582103749 640.1891828680001 L 1046.264547730375 649.2363723880001 L 1046.264547730375 663.3097783080001 L 989.276427296625 663.3097783080001 L 989.276427296625 640.1891828680001 M 1037.2173582103749 640.1891828680001 L 1037.2173582103749 649.2363723880001 L 1046.264547730375 649.2363723880001" stroke-miterlimit="10" stroke-width="0.8377027333333333" stroke-dasharray=""/><g><text fill="black" stroke="none" font-family="sans-serif" font-size="7pt" font-style="normal" font-weight="normal" text-decoration="normal" x="1003.349833216625" y="654.2625887880001" text-anchor="start" dominant-baseline="alphabetic" xml:space="preserve">Worker</text></g><g><g><rect fill="white" stroke="none" x="743.9809345450626" y="678.3884275080002" width="221.12949937125" height="13.06816264"/></g><text fill="black" stroke="none" font-family="sans-serif" font-size="7pt" font-style="normal" font-weight="normal" text-decoration="normal" x="745.4887994650626" y="687.4356170280003" text-anchor="start" dominant-baseline="alphabetic" xml:space="preserve">generateKmp(langName, bcp47tag, sources, modelID)</text></g><g><path fill="none" stroke="black" paint-order="fill stroke markers" d=" M 696.347097347875 691.4565901480001 L 1004.4677681081668 691.4565901480001" stroke-miterlimit="10" stroke-width="0.8377027333333333" stroke-dasharray=""/><g transform="translate(1012.7442711135001,691.4565901480001) translate(-1012.7442711135001,-691.4565901480001)"><path fill="black" stroke="none" paint-order="stroke fill markers" d=" M 1004.3672437801667 687.2680764813334 L 1012.7442711135001 691.4565901480001 L 1004.3672437801667 695.6451038146669 Z"/></g></g><g><g><rect fill="white" stroke="none" x="837.2856220450626" y="706.5352393480002" width="34.52012437125" height="13.06816264"/></g><text fill="black" stroke="none" font-family="sans-serif" font-size="7pt" font-style="normal" font-weight="normal" text-decoration="normal" x="838.7934869650626" y="715.5824288680003" text-anchor="start" dominant-baseline="alphabetic" xml:space="preserve">kmpFile</text></g><g><path fill="none" stroke="black" paint-order="fill stroke markers" d=" M 696.347097347875 719.6034019880002 L 1004.4677681081668 719.6034019880002" stroke-miterlimit="10" stroke-width="0.8377027333333333" stroke-dasharray="4.02097312"/><g transform="translate(1012.7442711135001,719.6034019880002) translate(-1012.7442711135001,-719.6034019880002)"><path fill="black" stroke="none" paint-order="stroke fill markers" d=" M 1004.3672437801667 715.4148883213335 L 1012.7442711135001 719.6034019880002 L 1004.3672437801667 723.7919156546669 Z"/></g></g><g><g><rect fill="white" stroke="none" x="554.2916364299792" y="734.6820511880003" width="37.0206126525" height="13.06816264"/></g><text fill="black" stroke="none" font-family="sans-serif" font-size="7pt" font-style="normal" font-weight="normal" text-decoration="normal" x="555.7995013499792" y="743.7292407080004" text-anchor="start" dominant-baseline="alphabetic" xml:space="preserve">kmpFile </text></g><g><path fill="none" stroke="black" paint-order="fill stroke markers" d=" M 686.2946645478751 747.7502138280003 L 467.5857239699166 747.7502138280003" stroke-miterlimit="10" stroke-width="0.8377027333333333" stroke-dasharray="4.02097312"/><g transform="translate(459.3092209645833,747.7502138280003) translate(-459.3092209645833,-747.7502138280003)"><path fill="black" stroke="none" paint-order="stroke fill markers" d=" M 467.6862482979166 743.5617001613335 L 459.3092209645833 747.7502138280003 L 467.6862482979166 751.938727494667 Z"/></g></g><g><g><rect fill="white" stroke="none" x="276.11348381749997" y="762.8288630280003" width="34.52012437125" height="13.06816264"/></g><text fill="black" stroke="none" font-family="sans-serif" font-size="7pt" font-style="normal" font-weight="normal" text-decoration="normal" x="277.62134873749994" y="771.8760525480004" text-anchor="start" dominant-baseline="alphabetic" xml:space="preserve">kmpFile</text></g><g><path fill="none" stroke="black" paint-order="fill stroke markers" d=" M 449.25678816458327 775.8970256680003 L 145.76680684699997 775.8970256680003" stroke-miterlimit="10" stroke-width="0.8377027333333333" stroke-dasharray="4.02097312"/><g transform="translate(137.49030384166664,775.8970256680003) translate(-137.49030384166664,-775.8970256680003)"><path fill="black" stroke="none" paint-order="stroke fill markers" d=" M 145.86733117499998 771.7085120013336 L 137.49030384166664 775.8970256680003 L 145.86733117499998 780.085539334667 Z"/></g></g><g><g><rect fill="white" stroke="none" x="53.72246981645833" y="790.9756748680004" width="34.52012437125" height="13.06816264"/></g><text fill="black" stroke="none" font-family="sans-serif" font-size="7pt" font-style="normal" font-weight="normal" text-decoration="normal" x="55.23033473645833" y="800.0228643880005" text-anchor="start" dominant-baseline="alphabetic" xml:space="preserve">kmpFile</text></g><g><path fill="none" stroke="black" paint-order="fill stroke markers" d=" M 122.41165464166666 804.0438375080004 L 27.82991236783333 804.0438375080004" stroke-miterlimit="10" stroke-width="0.8377027333333333" stroke-dasharray="4.02097312"/><g transform="translate(19.5534093625,804.0438375080004) translate(-19.5534093625,-804.0438375080004)"><path fill="black" stroke="none" paint-order="stroke fill markers" d=" M 27.930436695833333 799.8553238413336 L 19.5534093625 804.0438375080004 L 27.930436695833333 808.2323511746671 Z"/></g></g><g><g/><path fill="none" stroke="black" paint-order="fill stroke markers" d=" M 82.20192344166665 206.929329188 L 351.695901425 206.929329188 L 351.695901425 331.579495908 L 82.20192344166665 331.579495908 L 82.20192344166665 206.929329188 Z" stroke-miterlimit="10" stroke-width="1.4360618285714286" stroke-dasharray=""/><path fill="white" stroke="black" paint-order="fill stroke markers" d=" M 82.20192344166665 206.929329188 L 82.20192344166665 218.992248548 L 117.07924997916665 218.992248548 L 123.11070965916664 212.960788868 L 123.11070965916664 206.929329188 L 82.20192344166665 206.929329188" stroke-miterlimit="10" stroke-width="1.4360618285714286" stroke-dasharray=""/><text fill="black" stroke="none" font-family="sans-serif" font-size="5.6000000000000005pt" font-style="normal" font-weight="bold" text-decoration="normal" x="92.25435624166666" y="214.97127542799998" text-anchor="start" dominant-baseline="alphabetic" xml:space="preserve">loop</text><text fill="black" stroke="none" font-family="sans-serif" font-size="5.6000000000000005pt" font-style="normal" font-weight="bold" text-decoration="normal" x="133.16314245916664" y="214.97127542799998" text-anchor="start" dominant-baseline="alphabetic" xml:space="preserve">[for each row in sheet]</text></g></g><g/><g/><g/><g/><g/><g/><g/><g/></g></svg>